<?xml version="1.0" encoding="UTF-8" standalone="no"?>
<svg
   xmlns:osb="http://www.openswatchbook.org/uri/2009/osb"
   xmlns:dc="http://purl.org/dc/elements/1.1/"
   xmlns:cc="http://creativecommons.org/ns#"
   xmlns:rdf="http://www.w3.org/1999/02/22-rdf-syntax-ns#"
   xmlns:svg="http://www.w3.org/2000/svg"
   xmlns="http://www.w3.org/2000/svg"
   xmlns:sodipodi="http://sodipodi.sourceforge.net/DTD/sodipodi-0.dtd"
   xmlns:inkscape="http://www.inkscape.org/namespaces/inkscape"
   baseprofile="tiny"
   fill="#ececec"
   height="1372.2466mm"
   stroke="#000000"
   stroke-linecap="round"
   stroke-linejoin="round"
   stroke-width="0.2"
   version="1.2"
   viewbox="0 0 2000 857"
   width="1009.3854mm"
   id="svg776"
   sodipodi:docname="Gwadar.svg"
   inkscape:version="1.0.2-2 (e86c870879, 2021-01-15)"
   inkscape:export-filename="D:\Portfolio\Posters\Gwadar.png"
   inkscape:export-xdpi="96"
   inkscape:export-ydpi="96">
  <metadata
     id="metadata782">
    <rdf:RDF>
      <cc:Work
         rdf:about="">
        <dc:format>image/svg+xml</dc:format>
        <dc:type
           rdf:resource="http://purl.org/dc/dcmitype/StillImage" />
        <dc:title />
      </cc:Work>
    </rdf:RDF>
  </metadata>
  <defs
     id="defs780">
    <rect
       x="367.8187"
       y="4055.5537"
       width="2440.5376"
       height="231.55479"
       id="rect1207" />
    <rect
       x="938.54395"
       y="4183.4321"
       width="1702.4751"
       height="160.06175"
       id="rect1181" />
    <rect
       x="367.8187"
       y="436.93106"
       width="2439.7285"
       height="436.93106"
       id="rect8995" />
    <linearGradient
       id="linearGradient8867"
       osb:paint="gradient">
      <stop
         style="stop-color:#252b31;stop-opacity:1;"
         offset="0"
         id="stop8863" />
      <stop
         style="stop-color:#252b31;stop-opacity:0;"
         offset="1"
         id="stop8865" />
    </linearGradient>
    <filter
       style="color-interpolation-filters:sRGB"
       inkscape:label="Drop Shadow"
       id="filter8713">
      <feFlood
         flood-opacity="0.498039"
         flood-color="rgb(0,0,0)"
         result="flood"
         id="feFlood8703" />
      <feComposite
         in="flood"
         in2="SourceGraphic"
         operator="in"
         result="composite1"
         id="feComposite8705" />
      <feGaussianBlur
         in="composite1"
         stdDeviation="23.3533"
         result="blur"
         id="feGaussianBlur8707" />
      <feOffset
         dx="-0.2"
         dy="0.5"
         result="offset"
         id="feOffset8709" />
      <feComposite
         in="SourceGraphic"
         in2="offset"
         operator="over"
         result="composite2"
         id="feComposite8711" />
    </filter>
    <filter
       style="color-interpolation-filters:sRGB"
       inkscape:label="Drop Shadow"
       id="filter8725">
      <feFlood
         flood-opacity="0.498039"
         flood-color="rgb(0,0,0)"
         result="flood"
         id="feFlood8715" />
      <feComposite
         in="flood"
         in2="SourceGraphic"
         operator="in"
         result="composite1"
         id="feComposite8717" />
      <feGaussianBlur
         in="composite1"
         stdDeviation="23.3533"
         result="blur"
         id="feGaussianBlur8719" />
      <feOffset
         dx="-0.2"
         dy="0.5"
         result="offset"
         id="feOffset8721" />
      <feComposite
         in="SourceGraphic"
         in2="offset"
         operator="over"
         result="composite2"
         id="feComposite8723" />
    </filter>
    <filter
       style="color-interpolation-filters:sRGB"
       inkscape:label="Drop Shadow"
       id="filter8737">
      <feFlood
         flood-opacity="0.498039"
         flood-color="rgb(0,0,0)"
         result="flood"
         id="feFlood8727" />
      <feComposite
         in="flood"
         in2="SourceGraphic"
         operator="in"
         result="composite1"
         id="feComposite8729" />
      <feGaussianBlur
         in="composite1"
         stdDeviation="23.3533"
         result="blur"
         id="feGaussianBlur8731" />
      <feOffset
         dx="-0.2"
         dy="0.5"
         result="offset"
         id="feOffset8733" />
      <feComposite
         in="SourceGraphic"
         in2="offset"
         operator="over"
         result="composite2"
         id="feComposite8735" />
    </filter>
    <filter
       style="color-interpolation-filters:sRGB"
       inkscape:label="Drop Shadow"
       id="filter8749">
      <feFlood
         flood-opacity="0.498039"
         flood-color="rgb(0,0,0)"
         result="flood"
         id="feFlood8739" />
      <feComposite
         in="flood"
         in2="SourceGraphic"
         operator="in"
         result="composite1"
         id="feComposite8741" />
      <feGaussianBlur
         in="composite1"
         stdDeviation="23.3533"
         result="blur"
         id="feGaussianBlur8743" />
      <feOffset
         dx="-0.2"
         dy="0.5"
         result="offset"
         id="feOffset8745" />
      <feComposite
         in="SourceGraphic"
         in2="offset"
         operator="over"
         result="composite2"
         id="feComposite8747" />
    </filter>
    <filter
       style="color-interpolation-filters:sRGB"
       inkscape:label="Drop Shadow"
       id="filter8761">
      <feFlood
         flood-opacity="0.498039"
         flood-color="rgb(0,0,0)"
         result="flood"
         id="feFlood8751" />
      <feComposite
         in="flood"
         in2="SourceGraphic"
         operator="in"
         result="composite1"
         id="feComposite8753" />
      <feGaussianBlur
         in="composite1"
         stdDeviation="23.3533"
         result="blur"
         id="feGaussianBlur8755" />
      <feOffset
         dx="-0.2"
         dy="0.5"
         result="offset"
         id="feOffset8757" />
      <feComposite
         in="SourceGraphic"
         in2="offset"
         operator="over"
         result="composite2"
         id="feComposite8759" />
    </filter>
    <filter
       style="color-interpolation-filters:sRGB"
       inkscape:label="Drop Shadow"
       id="filter8773">
      <feFlood
         flood-opacity="0.498039"
         flood-color="rgb(0,0,0)"
         result="flood"
         id="feFlood8763" />
      <feComposite
         in="flood"
         in2="SourceGraphic"
         operator="in"
         result="composite1"
         id="feComposite8765" />
      <feGaussianBlur
         in="composite1"
         stdDeviation="23.3533"
         result="blur"
         id="feGaussianBlur8767" />
      <feOffset
         dx="-0.2"
         dy="0.5"
         result="offset"
         id="feOffset8769" />
      <feComposite
         in="SourceGraphic"
         in2="offset"
         operator="over"
         result="composite2"
         id="feComposite8771" />
    </filter>
    <filter
       style="color-interpolation-filters:sRGB"
       inkscape:label="Drop Shadow"
       id="filter8859"
       x="-0.013027149"
       width="1.0260543"
       y="-0.0087962262"
       height="1.0175925">
      <feFlood
         flood-opacity="0.498039"
         flood-color="rgb(0,0,0)"
         result="flood"
         id="feFlood8849" />
      <feComposite
         in="flood"
         in2="SourceGraphic"
         operator="in"
         result="composite1"
         id="feComposite8851" />
      <feGaussianBlur
         in="composite1"
         stdDeviation="13.267626"
         result="blur"
         id="feGaussianBlur8853" />
      <feOffset
         dx="-0.2"
         dy="0.5"
         result="offset"
         id="feOffset8855" />
      <feComposite
         in="SourceGraphic"
         in2="offset"
         operator="over"
         result="composite2"
         id="feComposite8857" />
    </filter>
    <filter
       style="color-interpolation-filters:sRGB"
       inkscape:label="Drop Shadow"
       id="filter1233"
       x="-0.02428746"
       width="1.0485749"
       y="-0.61845231"
       height="2.2369046">
      <feFlood
         flood-opacity="0.498039"
         flood-color="rgb(0,0,0)"
         result="flood"
         id="feFlood1223" />
      <feComposite
         in="flood"
         in2="SourceGraphic"
         operator="in"
         result="composite1"
         id="feComposite1225" />
      <feGaussianBlur
         in="composite1"
         stdDeviation="10.178306"
         result="blur"
         id="feGaussianBlur1227" />
      <feOffset
         dx="0.1"
         dy="0.1"
         result="offset"
         id="feOffset1229" />
      <feComposite
         in="SourceGraphic"
         in2="offset"
         operator="over"
         result="composite2"
         id="feComposite1231" />
    </filter>
    <filter
       style="color-interpolation-filters:sRGB"
       inkscape:label="Drop Shadow"
       id="filter1329"
       x="-0.0035564688"
       width="1.0071129"
       y="-0.046307575"
       height="1.0926151">
      <feFlood
         flood-opacity="0.498039"
         flood-color="rgb(0,0,0)"
         result="flood"
         id="feFlood1319" />
      <feComposite
         in="flood"
         in2="SourceGraphic"
         operator="in"
         result="composite1"
         id="feComposite1321" />
      <feGaussianBlur
         in="composite1"
         stdDeviation="1.3905839"
         result="blur"
         id="feGaussianBlur1323" />
      <feOffset
         dx="0.1"
         dy="0.1"
         result="offset"
         id="feOffset1325" />
      <feComposite
         in="SourceGraphic"
         in2="offset"
         operator="over"
         result="fbSourceGraphic"
         id="feComposite1327" />
      <feColorMatrix
         result="fbSourceGraphicAlpha"
         in="fbSourceGraphic"
         values="0 0 0 -1 0 0 0 0 -1 0 0 0 0 -1 0 0 0 0 1 0"
         id="feColorMatrix1427" />
      <feFlood
         id="feFlood1429"
         flood-opacity="0.498039"
         flood-color="rgb(0,0,0)"
         result="flood"
         in="fbSourceGraphic" />
      <feComposite
         in2="fbSourceGraphic"
         id="feComposite1431"
         in="flood"
         operator="in"
         result="composite1" />
      <feGaussianBlur
         id="feGaussianBlur1433"
         in="composite1"
         stdDeviation="0.4"
         result="blur" />
      <feOffset
         id="feOffset1435"
         dx="0.1"
         dy="0.1"
         result="offset" />
      <feComposite
         in2="offset"
         id="feComposite1437"
         in="fbSourceGraphic"
         operator="over"
         result="composite2" />
    </filter>
    <rect
       x="367.8187"
       y="4055.5537"
       width="2440.5376"
       height="231.55479"
       id="rect1207-5" />
    <rect
       x="367.8187"
       y="4055.5537"
       width="2440.5376"
       height="231.55479"
       id="rect1448" />
    <filter
       style="color-interpolation-filters:sRGB"
       inkscape:label="Drop Shadow"
       id="filter1233-4"
       x="-0.024440847"
       width="1.0488816"
       y="-0.36734131"
       height="1.7346826">
      <feFlood
         flood-opacity="0.498039"
         flood-color="rgb(0,0,0)"
         result="flood"
         id="feFlood1223-0" />
      <feComposite
         in="flood"
         in2="SourceGraphic"
         operator="in"
         result="composite1"
         id="feComposite1225-7" />
      <feGaussianBlur
         in="composite1"
         stdDeviation="8.824801"
         result="blur"
         id="feGaussianBlur1227-4" />
      <feOffset
         dx="0.1"
         dy="0.1"
         result="offset"
         id="feOffset1229-3" />
      <feComposite
         in="SourceGraphic"
         in2="offset"
         operator="over"
         result="composite2"
         id="feComposite1231-6" />
    </filter>
    <rect
       x="367.8187"
       y="4055.5537"
       width="2440.5376"
       height="231.55479"
       id="rect1207-5-8" />
    <rect
       x="367.8187"
       y="4055.5537"
       width="2440.5376"
       height="231.55479"
       id="rect1502" />
    <filter
       style="color-interpolation-filters:sRGB"
       inkscape:label="Drop Shadow"
       id="filter1233-4-7"
       x="-0.025771152"
       width="1.0515423"
       y="-0.34921181"
       height="1.6984236">
      <feFlood
         flood-opacity="0.498039"
         flood-color="rgb(0,0,0)"
         result="flood"
         id="feFlood1223-0-8" />
      <feComposite
         in="flood"
         in2="SourceGraphic"
         operator="in"
         result="composite1"
         id="feComposite1225-7-3" />
      <feGaussianBlur
         in="composite1"
         stdDeviation="7.4449986"
         result="blur"
         id="feGaussianBlur1227-4-3" />
      <feOffset
         dx="0.1"
         dy="0.1"
         result="offset"
         id="feOffset1229-3-5" />
      <feComposite
         in="SourceGraphic"
         in2="offset"
         operator="over"
         result="composite2"
         id="feComposite1231-6-8" />
    </filter>
    <filter
       style="color-interpolation-filters:sRGB"
       inkscape:label="Drop Shadow"
       id="filter2550"
       x="-0.0087219486"
       width="1.0174439"
       y="-0.0061194324"
       height="1.0122389">
      <feFlood
         flood-opacity="0.498039"
         flood-color="rgb(0,0,0)"
         result="flood"
         id="feFlood2540" />
      <feComposite
         in="flood"
         in2="SourceGraphic"
         operator="in"
         result="composite1"
         id="feComposite2542" />
      <feGaussianBlur
         in="composite1"
         stdDeviation="11.501552"
         result="blur"
         id="feGaussianBlur2544" />
      <feOffset
         dx="0"
         dy="0"
         result="offset"
         id="feOffset2546" />
      <feComposite
         in="offset"
         in2="offset"
         operator="atop"
         result="fbSourceGraphic"
         id="feComposite2548" />
      <feColorMatrix
         result="fbSourceGraphicAlpha"
         in="fbSourceGraphic"
         values="0 0 0 -1 0 0 0 0 -1 0 0 0 0 -1 0 0 0 0 1 0"
         id="feColorMatrix1001" />
      <feFlood
         id="feFlood1003"
         flood-opacity="0.498039"
         flood-color="rgb(0,0,0)"
         result="flood"
         in="fbSourceGraphic" />
      <feComposite
         in2="fbSourceGraphic"
         id="feComposite1005"
         in="flood"
         operator="in"
         result="composite1" />
      <feGaussianBlur
         id="feGaussianBlur1007"
         in="composite1"
         stdDeviation="0"
         result="blur" />
      <feOffset
         id="feOffset1009"
         dx="0"
         dy="0"
         result="offset" />
      <feComposite
         in2="offset"
         id="feComposite1011"
         in="offset"
         operator="atop"
         result="composite2" />
    </filter>
    <filter
       style="color-interpolation-filters:sRGB"
       inkscape:label="Drop Shadow"
       id="filter1071">
      <feFlood
         flood-opacity="0.498039"
         flood-color="rgb(0,0,0)"
         result="flood"
         id="feFlood1061" />
      <feComposite
         in="flood"
         in2="SourceGraphic"
         operator="in"
         result="composite1"
         id="feComposite1063" />
      <feGaussianBlur
         in="composite1"
         stdDeviation="0"
         result="blur"
         id="feGaussianBlur1065" />
      <feOffset
         dx="0"
         dy="0"
         result="offset"
         id="feOffset1067" />
      <feComposite
         in="SourceGraphic"
         in2="offset"
         operator="over"
         result="composite2"
         id="feComposite1069" />
    </filter>
  </defs>
  <sodipodi:namedview
     pagecolor="#ffffff"
     bordercolor="#ffffff"
     borderopacity="0"
     objecttolerance="10"
     gridtolerance="10"
     guidetolerance="10"
     inkscape:pageopacity="1"
     inkscape:pageshadow="2"
     inkscape:window-width="2560"
     inkscape:window-height="1017"
     id="namedview778"
     showgrid="false"
     units="mm"
     inkscape:snap-bbox="true"
     inkscape:object-paths="true"
     inkscape:snap-intersection-paths="true"
     inkscape:snap-smooth-nodes="true"
     inkscape:snap-object-midpoints="true"
     inkscape:snap-midpoints="true"
     inkscape:snap-center="true"
     inkscape:snap-text-baseline="true"
     inkscape:snap-page="true"
     inkscape:snap-grids="true"
     inkscape:zoom="0.13744695"
     inkscape:cx="57.685368"
     inkscape:cy="2461.3989"
     inkscape:window-x="-8"
     inkscape:window-y="-8"
     inkscape:window-maximized="1"
     inkscape:current-layer="svg776"
     inkscape:document-rotation="0"
     inkscape:pagecheckerboard="false"
     fit-margin-top="0"
     fit-margin-left="0"
     fit-margin-right="0"
     fit-margin-bottom="0" />
  <rect
     style="opacity:1;fill:#ffffff;fill-opacity:1;stroke:#3f3e3f;stroke-width:15.7;stroke-linecap:square;stroke-linejoin:miter;stroke-miterlimit:3;stroke-dasharray:none;stroke-opacity:1;paint-order:markers stroke fill;filter:url(#filter1071);stop-color:#000000"
     id="rect9123"
     width="3178.5828"
     height="4493.8584"
     x="314.09796"
     y="344.60867"
     inkscape:export-filename="D:\Portfolio\Inkscape\rect9123.png"
     inkscape:export-xdpi="96"
     inkscape:export-ydpi="96" />
  <rect
     style="opacity:1;fill:none;fill-opacity:1;stroke:none;stroke-width:100;stroke-linecap:square;stroke-linejoin:miter;stroke-miterlimit:3;stroke-dasharray:none;stroke-opacity:0.710843;paint-order:markers stroke fill;stop-color:#000000"
     id="rect8861"
     width="3178.5828"
     height="4493.8584"
     x="318.20862"
     y="346.29272"
     inkscape:export-filename="D:\Portfolio\Inkscape\rect9123.png"
     inkscape:export-xdpi="96"
     inkscape:export-ydpi="96" />
  <circle
     cx="1311.998"
     cy="533.70868"
     id="0"
     r="0" />
  <circle
     cx="987.59796"
     cy="1068.7086"
     id="1"
     r="0" />
  <circle
     cx="2112.2979"
     cy="1063.9087"
     id="2"
     r="0" />
  <g
     id="g1008"
     transform="translate(-1.8201371,-110.88909)">
    <g
       id="g8835"
       style="filter:url(#filter8859)"
       transform="translate(320.02884,526.32878)"
       inkscape:export-filename="D:\Portfolio\Inkscape\rect9123.png"
       inkscape:export-xdpi="96"
       inkscape:export-ydpi="96">
      <path
         style="opacity:0.997;fill:#253a78;fill-opacity:1;stroke:none;stroke-width:0.2;stroke-miterlimit:4;stroke-dasharray:none;filter:url(#filter8773)"
         d="m 1428.4509,4030.7813 c 135.4615,-80.471 329.1751,-183.6155 369.4215,-196.7017 58.3706,-18.9793 130.4006,-17.5066 159.1707,3.2543 17.1731,17.8931 20.0717,28.4361 11.0738,50.9216 0,41.6697 -158.4909,172.0719 -168.8257,138.9054 -1.5607,-5.0082 -32.5686,-9.1058 -68.9067,-9.1058 -55.2586,0 -68.59,3.0679 -81.476,18.7494 -14.0569,17.1065 -26.2174,18.7493 -138.7827,18.7493 H 1386.75 Z m 799.2889,-21.2058 c -34.4266,-3.9349 -8.6788,-6.1432 78.996,-6.7753 71.5382,-0.5156 128.9957,0.066 127.6834,1.2834 -6.8616,6.3871 -162.6331,10.5264 -206.6794,5.4919 z M 851.40631,3899.1183 c -1.76981,-44.4943 -16.77081,-90.595 -24.25247,-88.947 -13.17134,2.9012 47.86366,-22.9705 60.86224,-31.8181 5.20516,-3.5428 12.97615,-0.6281 17.26885,6.4777 5.67252,9.3897 7.37647,6.5162 6.23667,-10.5172 -2.74501,-41.0224 0.75691,-56.248 12.93709,-56.248 6.52169,0 14.06247,-6.3279 16.75729,-14.062 2.69482,-7.7341 8.8504,-14.062 13.67905,-14.062 4.82866,0 8.77938,6.3279 8.77938,14.062 0,7.7341 3.8305,14.062 8.51223,14.062 11.75115,0 10.75997,-25.7364 -1.15971,-30.1122 -20.18329,-7.4094 12.12554,-40.5663 66.57447,-68.3219 30.3444,-15.4682 59.1527,-33.3972 64.0185,-39.8423 4.8658,-6.4451 25.6151,-11.7184 46.1096,-11.7184 24.9076,0 36.5572,-3.8116 35.1347,-11.4957 -2.7887,-15.0644 33.9107,-20.9955 48.3349,-7.8115 6.1715,5.6408 16.8384,7.882 23.7044,4.9803 19.2901,-8.1523 37.0364,20.0969 23.7232,37.7636 -14.7234,19.5381 -25.5366,17.5533 -25.5366,-4.6873 0,-12.4995 -5.6749,-18.7494 -17.0245,-18.7494 -14.7507,0 -17.0244,6.2499 -17.0244,46.794 0,36.6411 -3.6938,49.3344 -17.0245,58.503 -9.3634,6.44 -17.0244,19.1316 -17.0244,28.2035 0,10.2445 -6.4507,16.4943 -17.0245,16.4943 -14.1018,0 -17.0244,6.2498 -17.0244,36.4053 0,40.4469 -10.4994,47.5992 -70.2259,47.8387 -17.5565,0.075 -31.9208,3.8546 -31.9208,8.4093 0,4.5547 -7.6417,10.4821 -16.9815,13.172 -9.3398,2.6899 -19.5849,12.6737 -22.7667,22.1864 -3.1819,9.5126 -10.86223,20.6692 -17.06744,24.7925 -6.20521,4.1232 -11.2822,13.6151 -11.2822,21.093 0,9.6766 12.53964,53.2188 -12.39972,53.2188 -174.44548,32.7991 -111.07244,100.2663 -116.89283,-46.0634 z m 640.02599,-67.4632 c 0,-28.1594 3.7445,-37.4837 16.5316,-41.1664 22.2964,-6.4214 26.0296,-0.45 26.0296,41.6355 0,32.0822 -2.2823,35.9362 -21.2806,35.9362 -19.046,0 -21.2806,-3.8228 -21.2806,-36.4053 z m -195.7811,-273.5233 c -16.3861,-9.5064 -36.4962,-17.4869 -44.6892,-17.7346 -20.1547,-0.6094 -19.1033,-19.1996 1.0858,-19.1996 8.7902,0 20.7507,-6.3279 26.5789,-14.062 5.8283,-7.7341 15.9255,-14.062 22.4383,-14.062 11.9587,0 18.4124,-2.8888 69.758,-31.2252 15.595,-8.6065 33.91,-15.6482 40.7002,-15.6482 6.7901,0 14.5505,-6.3279 17.2453,-14.062 2.6949,-7.7341 10.2356,-14.062 16.7573,-14.062 122.8418,-41.5812 95.5815,28.8428 57.2943,93.7467 -9.3514,16.491 -37.7752,18.7494 -105.0943,18.7494 -62.3589,0 -76.5379,-2.6051 -76.5379,-14.062 0,-7.7341 -3.8306,-14.0621 -8.5123,-14.0621 -4.6817,0 -8.5122,6.328 -8.5122,14.0621 0,7.7341 3.8305,14.062 8.5122,14.062 4.6817,0 8.5123,8.1946 8.5123,18.2103 0,14.6112 7.15,18.9195 36.1769,21.7988 l 36.177,3.5886 -34.0489,0.6234 c -18.7269,0.3422 -47.4557,-7.1548 -63.8417,-16.6613 z m 121.2992,-71.2669 c -5.8522,-2.6006 -15.4284,-2.6006 -21.2806,0 -5.8521,2.6006 -1.064,4.7285 10.6403,4.7285 11.7043,0 16.4924,-2.1279 10.6403,-4.7285 z m 1133.2018,106.7555 c -0.8552,-34.5089 0.044,-72.344 -16.5445,-72.9851 -17.2372,-0.6656 36.9906,-29.9941 58.3159,-38.5628 36.8906,-14.823 62.1158,13.5911 36.8088,41.4621 -6.5176,7.1781 22.2881,49.2072 19.9854,59.1547 -2.3028,9.9475 -98.0225,32.8446 -98.5656,10.9311 z m 152.472,-313.631 c -27.5948,-8.9496 -19.4804,-33.1017 -19.4804,-46.3034 0,-6.8628 -8.1667,-15.7798 -1.7173,-15.7798 6.4493,0 16.4946,-6.3279 22.3228,-14.062 8.4649,-11.233 21.8845,-10.7601 13.3251,-10.7601 -5.8934,0 -0.6163,-11.1217 11.7261,-24.715 12.3427,-13.5933 22.4413,-30.0061 22.4413,-36.4731 0,-6.4668 1.9511,-19.3392 18.472,-19.3621 l 41.1136,-0.057 v 52.1105 c 0,41.9577 2.3434,91.6561 -11.3641,101.0839 -9.3634,6.4401 -22.6848,-19.7142 -22.6848,-12.5754 0,15.4377 -16.476,45.5997 -39.2485,38.2141 z"
         id="path2192"
         sodipodi:nodetypes="ssccsssscssscscsssssssssssssssssssssssscsssssccsssssssssssssccsssssssccsssssssssssssssssssscsssss" />
      <path
         style="opacity:0.997;fill:#255b96;fill-opacity:1;stroke:none;stroke-width:0.2;stroke-miterlimit:4;stroke-dasharray:none;filter:url(#filter8761)"
         d="m 647.01717,4034.2974 c -2.02928,-11.691 1.1819,-33.8386 7.13596,-49.217 5.95405,-15.3783 10.99832,-64.8734 11.20948,-109.989 0.3129,-66.8523 -1.97834,-82.0284 -12.3844,-82.0284 -16.83293,0 -17.5158,-68.3623 -0.83514,-83.6086 6.56325,-5.999 14.31195,-21.3452 17.21933,-34.1028 5.1298,-22.5095 18.81802,-44.7499 49.58558,-80.5655 8.19301,-9.5373 14.89639,-21.1417 14.89639,-25.7876 -3e-5,-10.5234 97.25939,-104.0489 108.20289,-104.0489 4.40034,0 16.99706,-10.5465 27.99268,-23.4367 10.99562,-12.8902 25.07009,-23.4367 31.27659,-23.4367 6.20649,0 11.28453,-3.2593 11.28453,-7.2429 0,-3.9834 12.44913,-14.0778 27.66473,-22.4318 96.26501,-52.8533 117.48001,-62.6033 159.60421,-73.3499 50.2786,-12.8271 192.3389,-84.6756 219.0314,-110.7775 8.9301,-8.7325 18.6795,-23.1341 21.6653,-32.0036 2.9858,-8.8695 15.1691,-18.8186 27.0739,-22.1093 11.9048,-3.2906 21.645,-9.7443 21.645,-14.3414 0,-4.5971 4.9006,-8.3584 10.8902,-8.3584 5.9897,0 56.0742,-45.3499 111.2991,-100.7777 55.2248,-55.4277 119.1387,-115.7462 142.0309,-134.0411 54.7891,-43.7861 59.5632,-50.2676 31.5797,-42.8741 -25.2703,6.6766 -30.7856,-3.8834 -11.3204,-21.6749 11.5253,-10.5343 21.8499,-11.9223 60.2657,-8.102 9.3634,0.9309 33.7736,-1.356 54.2448,-5.0825 41.5251,-7.5592 41.9481,-5.9144 17.6987,68.8109 -5.8563,18.0462 -13.345,41.2486 -16.6415,51.5607 -16.11,50.3948 -43.2358,107.8087 -50.9353,107.8087 -4.8312,0 -8.6229,23.9091 -8.6229,54.3731 0,29.9052 -3.3999,58.3807 -7.5555,63.279 -4.1555,4.8983 -10.0866,18.1453 -13.1802,29.4378 -5.107,18.6417 -2.2565,20.7992 30.9641,23.4367 30.4945,2.421 37.042,6.4181 39.309,23.9978 1.496,11.6012 5.4694,21.093 8.8296,21.093 3.3603,0 7.021,13.1719 8.1348,29.2709 1.2745,18.4216 11.4215,38.9377 27.3762,55.3516 26.9907,27.7677 34.7773,28.3103 138.0802,9.6233 25.8411,-4.6746 40.433,-3.9109 40.433,2.1162 0,5.9205 18.848,7.2608 50.641,3.6011 51.9771,-5.8803 64.2748,25.6134 88.8881,-21.1086 8.1819,-14.5799 64.7643,10.1519 64.7643,23.2236 0,5.7299 -3.8305,10.418 -8.5122,10.418 -4.6817,0 -8.5122,4.2186 -8.5122,9.3746 0,5.1561 11.4915,9.3747 25.5366,9.3747 17.8084,0 25.5367,-4.5714 25.5367,-15.1053 0,-12.1966 5.7584,-13.9156 29.904,-8.9269 22.7853,4.7076 31.1074,2.7244 34.9596,-8.3314 7.5818,-21.7596 37.2831,-18.3822 37.2831,4.2396 0,16.1452 5.6749,18.7493 40.8587,18.7493 37.6798,0 61.288,11.5557 61.288,29.999 14.9458,36.4583 38.2087,1.7844 78.1751,8.5036 40.0663,-4.2353 21.7989,-0.5417 32.5419,-15.1425 6.4265,-8.5278 6.5357,-14.1842 0.355,-18.3909 -4.9088,-3.3418 -8.9253,-14.264 -8.9253,-24.2718 0,-11.0702 -5.8337,-18.206 -14.8964,-18.2214 -8.4947,-0.019 -22.2126,-15.1222 -31.9208,-35.155 -10.5857,-21.8433 -24.2681,-36.2627 -36.177,-38.1254 -16.812,-2.6295 -19.1525,-8.473 -19.1525,-47.8181 0,-55.4715 13.8814,-101.4773 32.6323,-108.15 7.8017,-2.7763 28.7625,-19.8231 46.5795,-37.8818 17.817,-18.0586 36.0119,-32.8338 40.4331,-32.8338 4.4211,0 8.0385,-4.1383 8.0385,-9.1961 0,-5.0578 9.5762,-11.843 21.2805,-15.0783 11.7044,-3.2352 21.2806,-9.1515 21.2806,-13.1472 0,-3.9957 6.7034,-9.7439 14.8964,-12.7736 32.3711,-11.9705 60.6482,-37.3678 82.412,-74.0192 8.4197,-14.1792 20.2927,-25.7803 26.3844,-25.7803 6.0917,0 15.6908,-16.9011 21.9078,-32.3693 7.7969,-19.3991 50.1098,-59.2136 50.3093,-45.8127 l 0.3264,21.934 -2.3556,138.2763 -2.3556,138.2764 -27.6648,2.9377 c -15.6598,1.6629 -27.6647,8.2272 -27.6647,15.1272 0,6.7044 -10.0986,23.3115 -22.4413,36.9048 -12.3427,13.5933 -17.6194,24.715 -11.7261,24.715 8.5596,0 8.5834,2.829 0.1183,14.062 -5.8282,7.7341 -15.8735,14.062 -22.3228,14.062 -18.6545,0 -13.5884,23.9663 7.4264,35.1321 45.4104,24.1279 62.8963,21.6735 79.3462,-11.1374 26.3791,-52.6152 29.1847,-27.9601 29.1847,256.4643 l 0.616,441.3903 h -30.1008 c -16.5553,4e-4 -30.1006,4.1106 -30.1006,9.1343 0,16.5534 -49.5467,37.7394 -88.2594,37.7394 -69.0897,0 -90.5411,22.9823 -28.7837,30.8378 69.1998,8.8022 153.7287,17.9299 153.7787,30.0228 0.041,10.0054 -171.6831,4.7621 -417.0905,4.7621 -376.6009,0 -383.8428,-0.3497 -388.2117,-18.7493 -2.9404,-12.3835 -11.6108,-18.7494 -25.5367,-18.7494 -13.9258,0 -22.5962,6.3659 -25.5367,18.7494 -4.2349,17.8351 -11.6107,18.7493 -151.276,18.7493 -146.2848,0 -146.7674,-0.066 -131.4171,-18.7493 12.886,-15.6815 26.2174,-18.7494 81.476,-18.7494 36.3381,0 67.346,4.0976 68.9067,9.1058 10.3348,33.1665 168.8257,-97.2357 168.8257,-138.9054 4.3485,-18.0754 2.362,-41.1757 -11.0738,-50.9216 -28.7701,-20.7609 -100.8001,-22.2336 -159.1707,-3.2543 -40.2464,13.0862 -233.96,116.2307 -369.4215,196.7017 l -41.7009,24.7725 H 1018.7284 650.70676 Z m 1787.40203,-30.2138 c 1.3123,-1.2216 -56.1452,-1.7991 -127.6834,-1.2834 -87.6748,0.6318 -113.4226,2.8404 -78.996,6.7753 44.0463,5.0345 199.8178,0.8953 206.6794,-5.4919 z m 171.8681,-13.7863 c 6.887,-4.7968 9.8524,-11.6613 6.5899,-15.2544 -3.2626,-3.5931 -10.8127,-2.1174 -16.778,3.2794 -5.9653,5.3968 -20.4222,11.7513 -32.1265,14.1212 -19.2555,3.8989 -18.8504,4.4168 4.2561,5.4421 14.0451,0.6234 31.1715,-2.7916 38.0585,-7.5883 z M 980.69886,3891.9629 c 0,-7.4779 5.07699,-16.9698 11.2822,-21.093 6.20521,-4.1233 13.88554,-15.2799 17.06744,-24.7925 3.1818,-9.5127 13.4269,-19.4965 22.7667,-22.1864 9.3398,-2.6899 16.9815,-8.6173 16.9815,-13.172 0,-4.5547 14.3643,-8.3389 31.9208,-8.4093 59.7265,-0.2395 70.2259,-7.3918 70.2259,-47.8387 0,-30.1555 2.9226,-36.4053 17.0244,-36.4053 10.5738,0 17.0245,-6.2498 17.0245,-16.4943 0,-9.0719 7.661,-21.7635 17.0244,-28.2035 13.3307,-9.1686 17.0245,-21.8619 17.0245,-58.503 0,-40.5441 2.2737,-46.794 17.0244,-46.794 11.3496,0 17.0245,6.2499 17.0245,18.7494 0,22.2406 10.8132,24.2254 25.5366,4.6873 13.3132,-17.6667 -4.4331,-45.9159 -23.7232,-37.7636 -6.866,2.9017 -17.5329,0.6609 -23.7044,-4.9803 -14.4242,-13.184 -51.1236,-7.2529 -48.3349,7.8115 1.4225,7.6841 -10.2271,11.4957 -35.1347,11.4957 -20.4945,0 -41.2438,5.2733 -46.1096,11.7184 -4.8658,6.4451 -33.6741,24.3741 -64.0185,39.8423 -54.44893,27.7556 -86.75776,60.9125 -66.57447,68.3219 11.91968,4.3758 12.91086,30.1122 1.15971,30.1122 -4.68173,0 -8.51223,-6.3279 -8.51223,-14.062 0,-7.7341 -3.95072,-14.062 -8.77938,-14.062 -4.82865,0 -10.98423,6.3279 -13.67905,14.062 -2.69482,7.7341 -10.2356,14.062 -16.75729,14.062 -12.18021,0 -15.6821,15.2256 -12.93709,56.248 1.1398,17.0334 -0.56419,19.9069 -6.23667,10.5172 -4.2927,-7.1056 -12.06369,-10.0205 -17.26885,-6.4777 -58.87545,59.7451 78.30507,216.5647 92.68278,113.6097 z m 1140.63814,41.6284 c 0,-5.2065 -7.2189,-16.2736 -16.0419,-24.5935 -15.5818,-14.6933 -15.3987,-15.7622 6.3842,-37.271 12.3343,-12.1791 32.9599,-30.9484 45.8346,-41.7095 19.4275,-16.2382 23.4086,-26.7295 23.4086,-61.6877 0,-57.419 -10.0634,-73.9902 -61.3479,-101.0208 l -43.0509,6.0571 -48.9714,18.7282 c -24.4525,60.9067 -30.7232,36.5944 -30.7232,68.829 -13.1708,54.1363 14.2956,78.7348 45.605,114.5623 55.7067,63.3293 78.9029,80.4114 78.9029,58.1059 z m -587.3435,-101.4671 c 0,-42.0856 -3.7332,-48.0569 -26.0296,-41.6355 -12.7871,3.6827 -16.5316,13.007 -16.5316,41.1664 0,32.5825 2.2346,36.4053 21.2806,36.4053 18.9983,0 21.2806,-3.854 21.2806,-35.9362 z m -212.8056,-283.3416 c 0,-10.0157 -3.8306,-18.2103 -8.5123,-18.2103 -4.6817,0 -8.5122,-6.3279 -8.5122,-14.062 0,-7.7341 3.8305,-14.0621 8.5122,-14.0621 4.6817,0 8.5123,6.328 8.5123,14.0621 0,11.4569 14.179,14.062 76.5379,14.062 67.3191,0 77.8184,-2.2584 87.1698,-18.7494 47.5814,-39.9417 13.5285,-94.9811 -39.3698,-93.7467 -6.5217,0 -14.0624,6.3279 -16.7573,14.062 -2.6948,7.7341 -10.4552,14.062 -17.2453,14.062 -6.7902,0 -25.1052,7.0417 -40.7002,15.6482 -51.3456,28.3364 -57.7993,31.2252 -69.758,31.2252 -6.5128,0 -16.61,6.3279 -22.4383,14.062 -5.8282,7.7341 -17.7887,14.062 -26.5789,14.062 -20.1891,0 -21.2405,18.5904 -1.0858,19.1996 8.193,0.2475 28.3031,8.2282 44.6892,17.7346 21.201,13.4486 24.3905,6.5911 25.5367,-9.3492 z m 74.4819,-61.9177 c 5.8522,-2.6006 15.4284,-2.6006 21.2806,0 5.8521,2.6006 1.064,4.7285 -10.6403,4.7285 -11.7043,0 -16.4924,-2.1279 -10.6403,-4.7285 z m 1233.0626,36.6697 c 25.307,-27.871 0.085,-56.2851 -36.8088,-41.4621 -21.3253,8.5687 -47.4801,39.5269 -30.2429,40.1929 16.5887,0.6413 -4.3788,44.851 29.1635,48.6742 37.056,0.9115 21.51,-28.8022 37.8882,-47.405 z"
         id="path2194"
         sodipodi:nodetypes="ssssssssssssssssssssssssssssssssssssssccssssssssscccsscsssssssssssssscccssssssssccsssssssssscssccsscccssssssssssscsssssssssssssssssssssssssssccssssssccccsssssscsssssccsssssssccsssscsscc" />
      <path
         style="opacity:0.997;fill:#257cb4;fill-opacity:1;stroke:none;stroke-width:0.2;stroke-miterlimit:4;stroke-dasharray:none;filter:url(#filter8749)"
         d="m 367.81868,3960.8041 c 0,-86.4934 1.29804,-94.1766 14.89639,-88.173 114.59832,50.5947 177.94843,26.932 184.87904,-63.9563 -14.9531,-34.6175 -40.50664,-42.8966 -34.92721,-110.8667 2.35513,-26.9937 19.42904,-54.7398 23.52902,-54.7398 4.09999,0 14.09251,-16.8744 22.2056,-37.4987 8.11308,-20.6243 18.63558,-37.5224 23.38332,-37.5513 4.74773,-0.028 30.64393,-22.1768 57.5471,-49.2171 26.90317,-27.0404 61.72557,-61.4287 77.38312,-76.4185 15.65755,-14.9897 43.44237,-47.474 61.74407,-72.1871 18.30169,-24.7132 38.43023,-45.1429 44.7301,-45.3995 12.49644,-0.5091 63.4194,-37.4656 67.99313,-49.345 1.56058,-4.0533 8.26395,-7.3696 14.89639,-7.3696 6.63244,0 12.05899,-4.041 12.05899,-8.98 0,-12.9263 118.52726,-75.392 143.05446,-75.392 25.088,0 96.467,-24.0296 139.977,-47.1229 17.5565,-9.3182 31.9209,-13.0382 31.9209,-8.2669 0,4.7714 8.1056,3.3662 18.0125,-3.1225 28.4125,-18.6095 84.1341,-81.5799 84.1341,-95.0792 0,-6.7357 7.7961,-20.0169 17.3247,-29.5139 9.5285,-9.4969 15.3572,-22.9137 12.9525,-29.8152 -2.4047,-6.9015 5.4863,-21.9327 17.5355,-33.4028 12.0493,-11.4701 27.9059,-33.5106 35.237,-48.9788 8.235,-17.3756 14.7905,-23.3542 17.1531,-15.6436 2.7123,8.8525 10.886,5.0291 28.1179,-13.1528 13.3618,-14.0984 22.6835,-28.5033 20.715,-32.011 -1.9684,-3.5078 1.0407,-6.5442 6.6869,-6.7477 20.3143,-0.7322 36.0262,-7.6886 48.5708,-21.5042 7.0226,-7.7341 21.8987,-15.4773 33.0579,-17.2071 11.1592,-1.7299 28.1611,-11.2217 37.782,-21.0931 9.6209,-9.8713 22.516,-17.9479 28.6558,-17.9479 6.1398,0 11.1633,-3.4953 11.1633,-7.7674 0,-5.9542 40.1357,-79.2952 56.8432,-103.8709 1.4319,-2.1063 19.9432,-3.5409 41.1364,-3.1881 35.1848,0.586 42.7277,5.2613 86.8078,53.8076 41.0101,45.1652 46.837,55.7016 38.7202,70.0155 -8.2528,14.5538 -4.9935,19.1148 23.9205,33.4743 18.4115,9.1435 33.4753,20.2026 33.4753,24.5755 0,4.373 5.7457,7.9509 12.7683,7.9509 7.0226,0 12.7684,4.2186 12.7684,9.3747 0,5.1561 5.7457,9.3747 12.7683,9.3747 7.0226,0 12.7683,4.2186 12.7683,9.3746 0,5.1561 6.065,9.3747 13.4777,9.3747 20.7985,0 9.051,23.0219 -13.6048,26.6616 -22.3417,3.5892 -67.9707,52.4358 -67.9707,72.7639 0,7.1888 -3.061,13.0705 -6.8022,13.0705 -3.7412,0 -11.942,15.8198 -18.224,35.1551 -6.2821,19.3352 -14.9026,37.6425 -19.1566,40.6829 -4.2542,3.0403 -8.5025,42.0405 -9.4407,86.6671 -0.9383,44.6265 -4.5788,81.161 -8.0901,81.1877 -3.5113,0.028 -6.3842,4.2673 -6.3842,9.4233 0,5.1561 5.6181,9.3747 12.4847,9.3747 6.8664,0 25.8913,14.7651 42.2773,32.8114 16.386,18.0462 35.6662,32.8113 42.8449,32.8113 17.9634,0 16.4969,-16.5726 -1.8443,-20.8425 -8.1931,-1.9073 4.2561,-3.2713 27.6647,-3.031 29.5862,0.3037 50.3461,-5.4653 68.0978,-18.9235 14.0452,-10.6481 37.8307,-28.5771 52.8567,-39.8423 15.0261,-11.2652 38.5248,-20.4821 52.2196,-20.4821 27.2356,0 111.4934,-54.2464 111.7966,-71.9763 0.132,-7.7237 13.8254,-9.491 45.5758,-5.8821 41.0092,4.6614 47.5777,2.7465 68.0978,-19.8527 12.491,-13.7565 22.8368,-27.984 22.9908,-31.6167 0.1541,-3.6327 15.4761,-23.3661 34.0489,-43.852 18.5729,-20.4858 33.7689,-40.5241 33.7689,-44.5296 0,-4.0055 4.7881,-7.478 10.6403,-7.7167 5.8522,-0.2391 22.1318,-16.9179 36.177,-37.0646 14.0451,-20.1468 31.3186,-36.8259 38.3854,-37.0647 7.0669,-0.239 17.6332,-8.8712 23.4808,-19.1834 5.9673,-10.5233 19.8507,-18.7493 31.6441,-18.7493 12.9772,0 26.3039,-8.8943 34.8503,-23.2595 7.6111,-12.7928 31.64,-32.8311 53.3977,-44.5297 21.7577,-11.6986 44.6212,-26.5434 50.8078,-32.9885 6.1865,-6.4451 15.0695,-12.4259 21.7577,-12.4259 6.6882,0 12.5637,-3.6643 13.8112,-8.6671 19.8113,-79.4486 17.0029,-11.0256 17.0029,-11.0256 0,0 0.022,26.6501 0.022,57.8989 0,52.1251 -1.4076,56.2481 -19.2027,56.2481 -13.1495,0 -22.7657,8.8653 -30.5062,28.124 -6.217,15.4682 -16.2878,28.124 -22.3795,28.124 -6.0917,0 -17.9647,11.6011 -26.3844,25.7803 -21.7638,36.6514 -50.0409,62.0487 -82.412,74.0192 -8.193,3.0297 -14.8964,8.7779 -14.8964,12.7736 0,3.9957 -9.5762,9.912 -21.2806,13.1472 -11.7043,3.2353 -21.2805,10.0205 -21.2805,15.0783 0,5.0578 -3.6174,9.1961 -8.0385,9.1961 -4.4212,0 -22.6161,14.7752 -40.4331,32.8338 -17.817,18.0587 -38.7778,35.1055 -46.5795,37.8818 -18.7509,6.6727 -32.6323,52.6785 -32.6323,108.15 0,39.3451 2.3405,45.1886 19.1525,47.8181 11.9089,1.8627 25.5913,16.2821 36.177,38.1254 9.7082,20.0328 23.4261,35.1406 31.9208,35.155 9.0627,0.019 14.8964,7.1512 14.8964,18.2214 0,10.0078 9.3532,22.2642 14.2623,25.6055 45.0406,56.7578 -117.3919,59.8135 -116.409,23.6961 0,-18.4433 -23.6082,-29.999 -61.288,-29.999 -35.1838,0 -40.8587,-2.6041 -40.8587,-18.7493 0,-22.6218 -29.7013,-25.9992 -37.2831,-4.2396 -3.8522,11.0558 -12.1743,13.039 -34.9596,8.3314 -24.1456,-4.9887 -29.904,-3.2697 -29.904,8.9269 0,10.5339 -7.7283,15.1053 -25.5367,15.1053 -58.5493,13.2297 -113.2051,-17.0715 -162.1646,-31.2823 -31.793,3.6597 -50.641,2.3194 -50.641,-3.6011 0,-6.0271 -14.5919,-6.7908 -40.433,-2.1162 -103.3029,18.687 -111.0895,18.1444 -138.0802,-9.6233 -15.9547,-16.4139 -26.1017,-36.93 -27.3762,-55.3516 -1.1138,-16.099 -4.7745,-29.2709 -8.1348,-29.2709 -3.3602,0 -7.3336,-9.4918 -8.8296,-21.093 -2.267,-17.5797 -8.8145,-21.5768 -39.309,-23.9978 -33.2206,-2.6375 -36.0711,-4.795 -30.9641,-23.4367 3.0936,-11.2925 9.0247,-24.5395 13.1802,-29.4378 4.1556,-4.8983 7.5555,-33.3738 7.5555,-63.279 0,-30.464 3.7917,-54.3731 8.6229,-54.3731 7.6995,0 34.8253,-57.4139 50.9353,-107.8087 3.2965,-10.3121 10.7852,-33.5145 16.6415,-51.5607 24.2494,-74.7253 23.8264,-76.3701 -17.6987,-68.8109 -110.419,56.5608 -109.9463,56.505 -134.7698,77.7335 -22.8922,18.2949 -86.8061,78.6134 -142.0309,134.0411 -55.2249,55.4278 -105.3094,100.7777 -111.2991,100.7777 -5.9896,0 -10.8902,3.7613 -10.8902,8.3584 0,4.5971 -9.7402,11.0508 -21.645,14.3414 -11.9048,3.2907 -24.0881,13.2398 -27.0739,22.1093 -2.9858,8.8695 -12.7352,23.2711 -21.6653,32.0036 -26.6925,26.1019 -168.7528,97.9504 -219.0314,110.7775 -42.1242,10.7466 -63.3392,20.4966 -159.60421,73.3499 -15.2156,8.354 -27.66473,18.4484 -27.66473,22.4318 0,3.9836 -5.07804,7.2429 -11.28453,7.2429 -6.2065,0 -20.28097,10.5465 -31.27659,23.4367 -10.99562,12.8902 -23.59234,23.4367 -27.99268,23.4367 -10.9435,0 -108.20292,93.5255 -108.20292,104.0489 0,4.6459 -6.70337,16.2503 -14.89639,25.7876 -30.76756,35.8156 -44.45577,58.056 -49.58557,80.5655 -2.90739,12.7576 -10.65608,28.1038 -17.21933,34.1028 -16.68064,15.2463 -15.99777,83.6086 0.83516,83.6086 10.34046,0 12.76834,15.0359 12.76834,79.0744 0,43.491 -4.35129,90.9503 -9.66953,105.4651 -5.31825,14.5149 -9.0879,37.9918 -8.37702,52.171 l 1.29252,25.7803 H 508.4056 367.81868 Z M 1931.7214,4036.3 c 5.7867,-24.3703 48.4949,-31.5098 52.7867,-6.5859 2.2519,13.0774 -4.1275,25.8397 -27.7385,25.8397 -25.6878,0 -29.013,-2.556 -25.0482,-19.2538 z m 814.7464,10.2464 c -8.1293,-8.9529 -43.0695,-16.9753 -112.2693,-25.7775 -61.7574,-7.8555 -40.306,-30.8378 28.7837,-30.8378 38.7127,0 88.2594,-21.186 88.2594,-37.7394 0,-5.0237 13.4068,-9.1339 29.7928,-9.1339 h 29.7928 v 56.248 56.248 h -28.0904 c -15.4496,0 -31.7707,-4.0533 -36.269,-9.0074 z m -182.4951,-54.1029 c 11.7043,-2.3699 26.1612,-8.7244 32.1265,-14.1212 5.9653,-5.3968 13.5154,-6.8725 16.778,-3.2794 9.5504,10.5181 -16.9422,24.072 -44.6484,22.8427 -23.1065,-1.0253 -23.5116,-1.5432 -4.2561,-5.4421 z m -521.5386,-116.9581 c -43.4325,-39.163 -54.1314,-71.5127 -54.9441,-118.5648 0,-32.2346 -4.3192,-43.3618 36.2888,-65.7699 34.8694,-25.8092 55.4913,-28.7698 95.7958,-23.8419 57.5435,7.0356 61.3479,43.6018 61.3479,101.0208 0,34.9582 -3.9811,45.4495 -23.4086,61.6877 -12.8747,10.7611 -33.5003,29.5304 -45.8346,41.7095 -21.7829,21.5088 -21.966,22.5777 -6.3842,37.271 8.823,8.3199 16.0419,19.387 16.0419,24.5935 0,22.3055 -23.1962,5.2234 -78.9029,-58.1059 z"
         id="path2196"
         sodipodi:nodetypes="ssccsscsssssssssssssssssssssssssssssssssssssssssscssssssssssssssssssssssssscssssssssssssssscsccsssssccsssssssssssssccsssssssssssssssssssscccsssssssssscccsssssssccccsssssc" />
      <path
         style="opacity:0.997;fill:#259dd2;fill-opacity:1;stroke:none;stroke-width:0.2;stroke-miterlimit:4;stroke-dasharray:none;filter:url(#filter8737)"
         d="m 418.89203,3886.2706 c -25.74948,-9.7253 -47.77486,-17.8011 -48.94529,-17.9462 -1.17043,-0.1452 -2.12806,-168.8455 -2.12806,-374.8895 v -374.6254 l 36.17696,-10.7683 c 23.14678,-6.8897 159.6433,-25.9977 189.59796,-21.2106 110.71763,17.6943 287.51091,21.4952 353.73069,-5.0171 26.12037,-10.4577 64.42541,-21.1318 85.12221,-23.7203 20.6969,-2.5885 60.0245,-7.3775 87.3947,-10.6423 36.9799,-4.411 63.221,-15.2114 102.1467,-42.0415 73.2483,-50.4875 93.5251,-69.3249 93.5251,-86.8864 17.1382,-82.8923 128.4878,-170.1826 288.1609,-175.4231 3.9455,-52.8302 20.5078,-15.8725 30.4335,-42.0346 13.3334,-35.1446 25.6092,-35.7017 68.0025,-84.7211 15.2156,-17.5937 27.6647,-40.5665 27.6647,-51.0505 0,-17.2997 -7.3031,-38.1877 48.7056,-39.3077 48.7986,-2.1334 106.4305,18.1513 124.1604,26.888 15.2156,6.9221 38.1119,38.5238 61.8876,65.7417 31.0716,35.57 49.6415,49.4869 66.0321,49.4869 28.3952,0 107.8011,-46.2415 107.8011,-62.7772 0,-6.7211 5.7458,-12.2202 12.7684,-12.2202 8.7051,0 12.8077,-9.6957 12.8922,-30.4677 0.2349,-57.8818 40.7668,-157.0257 64.1944,-157.0257 14.2903,0 26.7878,21.24 15.036,25.5541 -4.8302,1.7733 -6.9462,13.8013 -4.7023,26.7291 3.7606,21.6651 5.2365,22.3525 18.853,8.7813 15.9833,-15.9303 51.8649,-7.6402 64.5174,14.9063 9.7767,17.4217 -35.6487,53.3489 -60.767,48.0607 -20.3908,-4.2929 -20.6454,-3.4658 -20.6454,67.0564 0,41.3521 3.5825,71.4029 8.5122,71.4029 4.6818,0 8.5123,16.8744 8.5123,37.4987 0,20.6242 3.8305,37.4986 8.5122,37.4986 4.6817,0 8.5122,6.328 8.5122,14.0621 0,7.7341 2.8729,13.2261 6.3842,12.2046 13.8264,-4.0225 44.6892,13.1894 44.6892,24.9228 0,6.835 5.3122,14.6723 11.8049,17.4162 8.4628,3.5765 10.6636,-0.7838 7.7738,-15.4027 -2.3233,-11.7525 -1.0136,-16.339 3.0915,-10.8262 18.4174,24.7345 105.0131,45.4563 105.0131,25.1292 0,-4.1202 13.4068,-12.8305 29.7928,-19.3561 16.3861,-6.5257 29.7928,-15.8103 29.7928,-20.6327 0,-4.8223 6.2577,-8.7678 13.906,-8.7678 15.0348,0 54.1644,-44.8709 54.1814,-62.1312 0.01,-5.8137 5.3809,-15.4792 11.9449,-21.4787 8.1214,-7.4231 12.8808,-37.4926 14.8964,-94.1161 2.6812,-75.3212 4.979,-85.0425 24.2425,-102.5619 11.7043,-10.6447 25.907,-23.6508 31.5615,-28.9024 5.6546,-5.2517 41.0867,-9.5485 78.7381,-9.5485 h 68.4571 v 136.6024 c 0,136.2288 -5.4575,163.387 -32.8329,163.387 -4.6817,0 -13.574,5.2733 -19.7605,11.7184 -6.1866,6.4451 -29.0501,21.2899 -50.8078,32.9885 -21.7577,11.6986 -45.7866,31.7369 -53.3977,44.5297 -8.5464,14.3652 -21.8731,23.2595 -34.8503,23.2595 -11.7934,0 -25.6768,8.226 -31.6441,18.7493 -5.8476,10.3122 -16.4139,18.9447 -23.4808,19.1834 -7.0668,0.2391 -24.3403,16.9179 -38.3854,37.0647 -14.0452,20.1467 -30.3248,36.8258 -36.177,37.0646 -5.8522,0.239 -10.6403,3.7112 -10.6403,7.7167 0,4.0055 -15.196,24.0438 -33.7689,44.5296 -18.5728,20.4859 -33.8948,40.2193 -34.0489,43.852 -0.1541,3.6327 -10.4998,17.8602 -22.9908,31.6167 -20.5201,22.5992 -27.0886,24.5141 -68.0978,19.8527 -31.7504,-3.6089 -45.4437,-1.8416 -45.5758,5.8821 -0.303,17.7299 -86.5315,70.957 -111.1295,82.6496 -37.8905,18.0112 -34.8734,-4.8507 -101.4873,46.1857 -39.4465,32.6301 -82.7768,45.5502 -98.1743,46.2624 -7.1787,0 -26.4589,-14.7651 -42.8449,-32.8113 -16.386,-18.0463 -35.4109,-32.8114 -42.2773,-32.8114 -6.8666,0 -12.4847,-4.2186 -12.4847,-9.3747 0,-5.156 2.8729,-9.3965 6.3842,-9.4233 3.5113,-0.028 7.1518,-36.5612 8.0901,-81.1877 0.9382,-44.6266 5.1865,-83.6268 9.4407,-86.6671 4.254,-3.0404 12.8745,-21.3477 19.1566,-40.6829 6.282,-19.3353 14.4828,-35.1551 18.224,-35.1551 3.7412,0 6.8022,-5.8817 6.8022,-13.0705 0,-20.3281 45.629,-69.1747 67.9707,-72.7639 22.6558,-3.6397 34.4033,-26.6616 13.6048,-26.6616 -7.4127,0 -13.4777,-4.2186 -13.4777,-9.3747 0,-5.156 -5.7457,-9.3746 -12.7683,-9.3746 -7.0226,0 -12.7683,-4.2186 -12.7683,-9.3747 0,-5.1561 -5.7458,-9.3747 -12.7684,-9.3747 -7.0226,0 -12.7683,-3.5779 -12.7683,-7.9509 0,-4.3729 -15.0638,-15.432 -33.4753,-24.5755 -28.914,-14.3595 -32.1733,-18.9205 -23.9205,-33.4743 8.1168,-14.3139 2.2899,-24.8503 -38.7202,-70.0155 -44.0801,-48.5463 -51.623,-53.2217 -86.8078,-53.8076 -21.1932,-0.3524 -39.7045,1.0818 -41.1364,3.1881 -16.7075,24.5757 -56.8432,97.9167 -56.8432,103.8709 0,4.2721 -5.0235,7.7674 -11.1633,7.7674 -6.1398,0 -19.0349,8.0766 -28.6558,17.9479 -9.6209,9.8714 -26.6228,19.3632 -37.782,21.0931 -11.1592,1.7298 -26.0353,9.473 -33.0579,17.2071 -12.5446,13.8156 -28.2565,20.7719 -48.5708,21.5042 -5.6462,0.2034 -8.6553,3.2399 -6.6869,6.7477 1.9685,3.5077 -7.3532,17.9126 -20.715,32.011 -17.2319,18.1819 -31.066,52.194 -33.7783,43.3415 -19.0551,-0.784 -28.8033,16.9889 -46.7297,34.4337 -12.0492,11.4701 -19.9402,26.5013 -17.5355,33.4028 2.4047,6.9015 -3.424,20.3183 -12.9525,29.8152 -9.5286,9.497 -17.3247,22.7782 -17.3247,29.5139 0,13.4993 -55.7216,76.4697 -84.1341,95.0792 -9.9069,6.4887 -18.0125,7.8939 -18.0125,3.1225 0,-4.7713 -14.3644,-1.0513 -31.9209,8.2669 -43.51,23.0933 -114.889,47.1229 -139.977,47.1229 -24.5272,0 -143.05446,62.4657 -143.05446,75.392 0,4.939 -5.42655,8.98 -12.05899,8.98 -6.63244,0 -13.33581,3.3163 -14.89639,7.3696 -4.57373,11.8794 -55.49669,48.8359 -67.99313,49.345 -6.29987,0.2569 -26.42841,20.6863 -44.7301,45.3995 -18.3017,24.7131 -46.08652,57.1974 -61.74407,72.1871 -15.65755,14.9898 -50.47995,49.3781 -77.38312,76.4185 -26.90317,27.0403 -52.79937,49.188 -57.5471,49.2171 -4.74774,0.028 -15.27024,16.927 -23.38332,37.5513 -8.11309,20.6243 -18.10561,37.4987 -22.2056,37.4987 -4.09998,0 -9.38144,22.0857 -11.73657,49.0794 -12.34746,53.1084 30.98798,103.2819 31.15363,116.5271 -6.09811,79.9709 -68.55535,110.8947 -156.72095,77.5958 z M 2768.2661,2602.4799 c 0,-5.1561 -3.5879,-9.3747 -7.9729,-9.3747 -4.3851,0 -9.1732,-13.0794 -10.6403,-29.0655 l -2.6674,-29.0655 -23.4086,20.3713 c -30.2729,26.3448 -29.6295,37.7597 2.128,37.7597 14.0452,0 25.5367,4.2186 25.5367,9.3747 0,5.1561 3.8305,9.3747 8.5122,9.3747 4.6818,0 8.5123,-4.2186 8.5123,-9.3747 z M 1271.9069,1593.7573 c -6.0367,-7.2141 -7.2204,-13.1165 -2.6303,-13.1165 8.8394,0 21.6357,17.8326 16.5867,23.1149 -1.6393,1.715 -7.9196,-2.7843 -13.9564,-9.9984 z"
         id="path2198"
         sodipodi:nodetypes="ssscssssssccsssccsssssssssssssssssssscsssscssssscsssssssssssssssssccssscsssssssssssssssssssssssssccsssssssssssssscssccsssscsssssssss" />
      <path
         style="opacity:0.997;fill:#58bee7;fill-opacity:1;stroke:none;stroke-width:0.2;stroke-miterlimit:4;stroke-dasharray:none;stroke-opacity:1;filter:url(#filter8725)"
         d="m 367.81868,2264.077 c 0,-849.9479 0.0881,-854.3417 17.0362,-849.4606 5.97182,-28.2388 168.54469,-27.1395 161.72052,-40.2183 -10.48964,-7.4658 -9.60348,-9.1132 4.96546,-9.2312 9.7536,-0.075 20.057,2.415 22.89646,5.5422 2.83945,3.1272 46.51409,2.7118 92.44258,4.8423 230.89735,10.7106 343.5111,40.6956 470.4749,107.6778 139.0825,21.0472 205.3963,146.8401 267.1053,229.7985 14.7208,22.5745 30.2143,45.5252 34.4299,51.0017 31.3302,40.7005 59.9937,159.4314 61.6807,255.4962 1.4366,81.8071 -11.2553,123.1761 -38.1695,124.4125 -125.2187,5.7529 -166.75,14.7114 -166.75,35.9691 0,19.5689 -28.031,33.6865 -85.1223,42.8711 -111.2003,17.8894 -119.4186,22.3513 -66.6916,36.2091 14.1184,3.7106 26.9591,16.5923 33.9988,34.1075 142.6264,-13.064 152.8924,-1.6912 237.6704,16.3079 21.7832,-6.0409 271.4016,14.8638 299.5118,17.1031 128.556,0.2003 26.2397,-14.7197 184.7075,-51.5343 7.3892,-15.2058 1.8196,-17.2998 -61.4804,-23.1136 -41.6811,-3.8283 -75.1093,-11.8783 -83.3241,-20.066 -18.4383,-18.377 -32.0989,-17.2546 -71.2479,5.854 -42.7195,25.2161 -86.4636,18.2544 -100.642,-16.0166 -7.8365,-18.9419 -9.6975,-29.5378 0.1613,-36.4073 9.9795,-6.9539 11.6771,-4.3415 -1.1643,-4.4581 -10.4721,-0.095 -14.1667,-4.8516 -10.9467,-14.093 2.6733,-7.6724 2.1255,-13.5007 -1.2173,-12.9519 -18.0388,2.9611 -27.4251,9.1792 -28.0789,-19.4558 -0.8087,-35.42 -45.8417,22.3057 -41.5057,-44.0008 0.6803,-10.4032 54.5089,-22.1361 45.6428,-25.883 -6.5612,-2.7735 -11.9291,-9.642 -11.9291,-15.2642 0,-5.6222 3.6935,-7.7081 8.2078,-4.6355 7.8118,5.3171 10.4483,-25.3698 10.8562,-126.3508 0.1107,-27.496 2.2543,-35.824 6.1548,-23.916 5.1728,15.7923 7.3172,14.0594 15.812,-12.7775 5.4051,-17.0763 23.2826,-51.6738 39.7278,-76.8835 16.4452,-25.2097 29.9003,-47.6108 29.9003,-49.7803 0,-2.1695 10.5339,-15.8969 23.4086,-30.5055 12.8747,-14.6084 36.9134,-43.4086 53.4191,-64.0001 16.5058,-20.5916 36.5169,-41.6579 44.4692,-46.8139 7.9523,-5.1561 32.7526,-23.9629 55.1117,-41.7929 79.043,-62.8239 154.8912,-122.0659 213.5807,-147.596 97.3782,-23.6213 106.3184,-27.4751 161.0427,-40.687 8.8448,-6.0203 227.4522,-20.5551 255.1894,-20.4503 33.5006,0.1266 1.746,-22.4302 -44.6347,-31.7061 -40.3512,-8.07 -42.4339,-9.9683 -45.1228,-41.1297 -4.1981,-48.6502 13.9137,-97.5804 50.8054,-137.2541 18.0839,-19.4476 32.8798,-42.5454 32.8798,-51.3284 0,-11.3537 4.9204,-14.552 17.0245,-11.066 9.9994,2.8798 17.0244,0.2876 17.0244,-6.2819 22.2349,-13.2872 46.7551,-11.628 71.3029,-22.9191 12.4055,-5.5348 87.8302,-12.2232 149.1619,-21.7814 l 111.512,-17.3785 v 710.5149 710.5148 h -68.4571 c -37.6514,0 -73.0835,4.2968 -78.7381,9.5485 -5.6545,5.2516 -19.8572,18.2577 -31.5615,28.9024 -19.2635,17.5194 -21.5613,27.2407 -24.2425,102.5619 -2.0156,56.6235 -6.775,86.693 -14.8964,94.1161 -6.564,5.9995 -11.9392,15.665 -11.9449,21.4787 -0.017,17.2603 -39.1466,62.1312 -54.1814,62.1312 -7.6483,0 -13.906,3.9455 -13.906,8.7678 0,4.8224 -13.4067,14.107 -29.7928,20.6327 -16.386,6.5256 -29.7928,15.2359 -29.7928,19.3561 0,20.3271 -86.5957,-0.3947 -105.0131,-25.1292 -4.1051,-5.5128 -5.4148,-0.9262 -3.0915,10.8262 2.8898,14.6187 0.6895,18.9792 -7.7738,15.4027 -6.4927,-2.7439 -11.8049,-10.5812 -11.8049,-17.4162 0,-11.7334 -30.8628,-28.9453 -44.6892,-24.9228 -3.5113,1.0215 -6.3842,-4.4705 -6.3842,-12.2046 0,-7.7341 -3.8305,-14.0621 -8.5122,-14.0621 -4.6817,0 -8.5122,-16.8744 -8.5122,-37.4986 0,-20.6243 -3.8305,-37.4987 -8.5123,-37.4987 -4.9297,0 -8.5122,-30.0508 -8.5122,-71.4029 0,-70.5222 0.2545,-71.3493 20.6454,-67.0564 25.1183,5.2882 70.5437,-30.639 60.767,-48.0607 -12.6525,-22.5465 -48.5341,-30.8366 -64.5174,-14.9063 -13.6165,13.5712 -15.0924,12.8838 -18.853,-8.7813 -2.2439,-12.9278 -0.1276,-24.9558 4.7023,-26.7291 11.7518,-4.3141 -0.7457,-25.5541 -15.036,-25.5541 -23.4276,0 -63.9591,99.1439 -64.1944,157.0257 -0.085,20.772 -4.1871,30.4677 -12.8922,30.4677 -7.0226,0 -12.7684,5.4991 -12.7684,12.2202 0,16.5357 -79.4059,62.7772 -107.8011,62.7772 -16.3906,0 -34.9605,-13.9169 -66.0321,-49.4869 -23.7757,-27.2179 -55.6776,-55.1506 -70.8932,-62.0727 -43.8426,-31.7909 -160.2434,-25.8823 -163.8604,8.7507 0,10.484 -12.4491,33.4568 -27.6647,51.0505 -42.3933,49.0194 -36.2073,67.1385 -62.3421,94.1551 -61.8125,63.8979 -183.0918,122.2232 -202.1316,122.2232 -58.4561,49.4627 -122.0909,83.8166 -122.1232,85.8005 0,17.5615 -20.2768,36.3989 -93.5251,86.8864 -38.9257,26.8301 -65.1668,37.6305 -102.1467,42.0415 -27.3702,3.2648 -66.6978,8.0538 -87.3947,10.6423 -20.6968,2.5885 -59.00184,13.2626 -85.12221,23.7203 -63.02518,25.2333 -274.24088,36.6339 -473.1028,25.5365 -32.77207,-1.829 -70.11945,-0.084 -82.99419,3.8843 l -23.40862,7.2096 z m 2383.42292,338.4029 c 0,-5.1561 -11.4915,-9.3747 -25.5367,-9.3747 -31.7575,0 -32.4009,-11.4149 -2.128,-37.7597 l 23.4086,-20.3713 2.6674,29.0655 c 1.4671,15.9861 6.2552,29.0655 10.6403,29.0655 4.385,0 7.9729,4.2186 7.9729,9.3747 0,5.1561 -3.8305,9.3747 -8.5123,9.3747 -4.6817,0 -8.5122,-4.2186 -8.5122,-9.3747 z"
         id="path2200"
         sodipodi:nodetypes="scccssccsscsssccccsssssssssscsssssssssscccssssssccscccsssssssssssssssssssssssssssssssccssccsssssccsssscsssss" />
      <path
         style="opacity:0.997;fill:#f6e3d9;fill-opacity:1;stroke:none;stroke-width:0.2;stroke-miterlimit:4;stroke-dasharray:none;filter:url(#filter8713)"
         d="m 1711.3516,2344.6987 c -2.3298,-2.5659 -69.0443,-7.0751 -148.2546,-10.0204 -79.2102,-2.9454 -157.4253,-9.9769 -173.8114,-15.6256 -36.1302,-12.4552 -62.6398,-15.4138 -140.8005,-15.7138 -53.3939,-0.2053 -57.4992,6.3767 -74.2007,-14.7778 -10.311,-13.0603 -30.8648,-28.3304 -39.8068,-30.1138 -36.6598,-7.3113 -25.0521,-19.2979 10.2516,-25.0484 130.7348,-21.2947 146.205,-28.6675 146.205,-53.5932 0,-21.4073 45.9618,-30.1016 171.467,-35.8676 26.9142,-1.2364 39.6061,-42.6054 38.1695,-124.4125 -1.6813,-95.7429 -30.0609,-213.6511 -61.4959,-255.4962 -4.1141,-5.4765 -20.8083,-29.7109 -37.0983,-53.8544 -31.2117,-46.2592 -119.7936,-133.328 -178.1063,-175.0642 -27.4122,-31.6222 -53.9958,-34.951 -86.5154,-51.8816 -59.0914,-31.1748 -88.0893,-42.966 -148.14371,-60.2388 -81.21817,-23.3598 -112.77591,-28.0689 -263.87897,-39.3766 -112.95913,8.3758 -257.76061,29.1981 -352.53354,87.5667 -8.37004,-0.1129 -4.9799,-188.4183 -4.9799,-560.82858 V 436.93107 H 2810.8272 v 257.80344 327.34629 c 0,0 -4.5867,0.8197 -97.8904,15.6327 -157.2361,24.9631 -229.8042,42.4928 -235.591,51.7226 -3.0388,4.8469 -9.5348,5.9849 -17.0299,2.8174 -9.3244,-3.9406 -15.5144,-2.6549 -15.5144,8.6708 0,9.1039 -14.7959,32.4642 -32.8798,51.9118 -36.8993,39.6819 -55.0021,88.6016 -50.8054,137.2931 2.7201,31.5591 4.389,33.0015 47.5083,41.0577 47.8073,8.932 82.4574,34.2333 29.3723,34.45 -469.759,57.2835 -320.3069,4.4611 -672.8181,247.8153 -7.5285,5.156 -27.1929,26.2223 -43.6987,46.8139 -16.5057,20.5915 -40.5444,49.3917 -53.4191,64.0001 -12.8747,14.6086 -23.4086,28.336 -23.4086,30.5055 0,2.1695 -13.4551,24.5706 -29.9003,49.7803 -16.4452,25.2097 -34.3227,59.8072 -39.7278,76.8835 -8.4948,26.8369 -10.6392,28.5698 -15.812,12.7775 -3.9005,-11.908 -7.199,-3.5604 -6.1548,23.916 3.8376,100.981 4.9745,101.4792 -9.4411,161.2565 -9.7533,53.0487 7.3393,37.5157 5.7999,51.9096 -3.1209,17.847 28.1915,16.5529 45.1165,16.7812 7.349,0.099 -0.4974,35.4783 -8.982,41.3903 -9.8588,6.8696 -10.3563,13.2202 -2.5198,32.1621 14.1784,34.2709 57.9226,41.2327 100.642,16.0166 39.1491,-23.1087 52.8097,-24.231 71.2479,-5.854 8.2148,8.1876 41.643,16.2377 83.3242,20.066 63.2999,5.8138 68.8696,7.9077 61.4804,23.1135 -10.8364,22.2994 -54.9189,45.7732 -75.064,39.9713 -8.8837,-2.5585 -31.7996,4.1397 -50.9243,14.885 -34.302,19.2725 -54.1034,23.9929 -62.3856,14.8716 z"
         id="path2202"
         sodipodi:nodetypes="ssssssssssssccsccsccccsssssssccsssssssccssssssssss" />
    </g>
    <text
       xml:space="preserve"
       id="text1205"
       style="font-style:normal;font-variant:normal;font-weight:normal;font-stretch:normal;font-size:65.8737px;line-height:118.42%;font-family:'Crimson Pro';-inkscape-font-specification:'Crimson Pro';letter-spacing:75px;white-space:pre;shape-inside:url(#rect1207);mix-blend-mode:normal;fill:#243978;fill-opacity:1;stroke-width:0.205851;filter:url(#filter1233);"
       transform="matrix(0.9439219,0,0,1,1084.6445,636.22888)"
       inkscape:export-filename="D:\Portfolio\Inkscape\rect9123.png"
       inkscape:export-xdpi="96"
       inkscape:export-ydpi="96"><tspan
         x="367.81836"
         y="4114.7605"><tspan
           style="shape-inside:url(#rect1207);filter:url(#filter1233)">HASSAM ALI</tspan></tspan></text>
    <text
       xml:space="preserve"
       id="text1205-6"
       style="font-style:normal;font-variant:normal;font-weight:normal;font-stretch:normal;font-size:96px;line-height:118.42%;font-family:'Crimson Pro';-inkscape-font-specification:'Crimson Pro';letter-spacing:100px;white-space:pre;shape-inside:url(#rect1207-5);mix-blend-mode:normal;fill:#253a78;fill-opacity:1;stroke-width:0.156603;filter:url(#filter1233-4);"
       transform="matrix(1.2109511,0,0,1.3468748,933.43787,-4841.3915)"
       inkscape:export-filename="D:\Portfolio\Inkscape\rect9123.png"
       inkscape:export-xdpi="96"
       inkscape:export-ydpi="96"><tspan
         x="367.81836"
         y="4141.8374"><tspan
           style="font-style:normal;font-variant:normal;font-weight:normal;font-stretch:normal;font-family:'Crimson Pro';-inkscape-font-specification:'Crimson Pro';fill:#253a78;fill-opacity:1;stroke-width:0.156603">GWADAR</tspan></tspan></text>
    <text
       xml:space="preserve"
       id="text1205-6-7"
       style="font-style:normal;font-variant:normal;font-weight:normal;font-stretch:normal;font-size:85.3333px;line-height:118.42%;font-family:'Crimson Pro';-inkscape-font-specification:'Crimson Pro';letter-spacing:50px;white-space:pre;shape-inside:url(#rect1207-5-8);mix-blend-mode:normal;fill:#253a78;fill-opacity:1;filter:url(#filter1233-4-7);"
       transform="translate(1190.9186,-3281.6178)"
       inkscape:export-filename="D:\Portfolio\Inkscape\rect9123.png"
       inkscape:export-xdpi="96"
       inkscape:export-ydpi="96"><tspan
         x="367.81836"
         y="4132.2504"><tspan
           style="font-size:85.3333px">PAKISTAN</tspan></tspan></text>
  </g>
  <rect
     style="fill:none;fill-opacity:1;stroke:#000000;stroke-width:15.1002;stroke-linecap:square;stroke-miterlimit:4;stroke-dasharray:none;stroke-opacity:1;paint-order:markers stroke fill;filter:url(#filter2550);stop-color:#000000"
     id="rect1950"
     width="3164.8574"
     height="4510.8311"
     x="317.85828"
     y="451.12256"
     inkscape:export-filename="D:\Portfolio\Inkscape\rect9123.png"
     inkscape:export-xdpi="96"
     inkscape:export-ydpi="96"
     transform="matrix(0.99997951,0,0,1,7.2519521,-113.31615)" />
  <rect
     style="fill:none;fill-opacity:1;stroke:#000000;stroke-width:2.5;stroke-linecap:round;stroke-linejoin:round;stroke-opacity:1;paint-order:markers stroke fill;stop-color:#000000"
     id="rect1109"
     width="3812.5"
     height="5183.9438"
     x="1.25"
     y="1.25"
     inkscape:export-filename="D:\Portfolio\Inkscape\rect9123.png"
     inkscape:export-xdpi="96"
     inkscape:export-ydpi="96" />
</svg>
