<?xml version="1.0" encoding="UTF-8" standalone="no"?>
<svg
   xmlns:dc="http://purl.org/dc/elements/1.1/"
   xmlns:cc="http://creativecommons.org/ns#"
   xmlns:rdf="http://www.w3.org/1999/02/22-rdf-syntax-ns#"
   xmlns:svg="http://www.w3.org/2000/svg"
   xmlns="http://www.w3.org/2000/svg"
   xmlns:xlink="http://www.w3.org/1999/xlink"
   xmlns:sodipodi="http://sodipodi.sourceforge.net/DTD/sodipodi-0.dtd"
   xmlns:inkscape="http://www.inkscape.org/namespaces/inkscape"
   width="552mm"
   height="482mm"
   viewBox="0 0 551.99999 482"
   version="1.1"
   id="svg8"
   inkscape:version="1.0.2-2 (e86c870879, 2021-01-15)"
   sodipodi:docname="dhai.svg">
  <defs
     id="defs2">
    <linearGradient
       inkscape:collect="always"
       id="linearGradient939">
      <stop
         style="stop-color:#56fc1e;stop-opacity:1"
         offset="0"
         id="stop935" />
      <stop
         style="stop-color:#d20d25;stop-opacity:1"
         offset="1"
         id="stop937" />
    </linearGradient>
    <linearGradient
       inkscape:collect="always"
       id="linearGradient918">
      <stop
         style="stop-color:#e8fbfc;stop-opacity:1"
         offset="0"
         id="stop914" />
      <stop
         style="stop-color:#66def7;stop-opacity:1"
         offset="1"
         id="stop916" />
    </linearGradient>
    <radialGradient
       id="grad1"
       cx="0.5"
       cy="0.5"
       r="1">
      <stop
         offset="0%"
         stop-color="#ffffff"
         stop-opacity="1.0000"
         id="stop833" />
      <stop
         offset="100%"
         stop-color="#ececed"
         stop-opacity="1.0000"
         id="stop835" />
    </radialGradient>
    <linearGradient
       id="grad2">
      <stop
         offset="0.0000%"
         stop-color="#bae5f7"
         stop-opacity="1.0000"
         id="stop844" />
      <stop
         offset="12.0000%"
         stop-color="#ffffff"
         stop-opacity="1.0000"
         id="stop846" />
      <stop
         offset="0.0000%"
         stop-color="#d6d6d6"
         stop-opacity="1.0000"
         id="stop848" />
    </linearGradient>
    <linearGradient
       xlink:href="#linearGradient918"
       id="grad3"
       x1="685.23193"
       y1="613.05695"
       x2="684.07794"
       y2="1189.993"
       gradientTransform="matrix(0.10415337,0,0,0.06545715,233.46309,322.63748)"
       gradientUnits="userSpaceOnUse" />
    <linearGradient
       id="grad4">
      <stop
         offset="0.0000%"
         stop-color="#cf7851"
         stop-opacity="1.0000"
         id="stop858" />
      <stop
         offset="12.0000%"
         stop-color="#ffffff"
         stop-opacity="1.0000"
         id="stop860" />
      <stop
         offset="0.0000%"
         stop-color="#d6d6d6"
         stop-opacity="1.0000"
         id="stop862" />
      <stop
         offset="4352.0000%"
         stop-color="#ffffff"
         stop-opacity="1.0000"
         id="stop864" />
    </linearGradient>
    <linearGradient
       xlink:href="#linearGradient939"
       id="grad5"
       x1="773.83386"
       y1="1774.1803"
       x2="780.72589"
       y2="852.68073"
       gradientUnits="userSpaceOnUse"
       gradientTransform="matrix(0.09681526,0,0,0.07041847,233.46309,322.63748)" />
  </defs>
  <sodipodi:namedview
     id="base"
     pagecolor="#ffffff"
     bordercolor="#666666"
     borderopacity="1.0"
     inkscape:pageopacity="0.0"
     inkscape:pageshadow="2"
     inkscape:zoom="0.35"
     inkscape:cx="1256.748"
     inkscape:cy="1058.9541"
     inkscape:document-units="mm"
     inkscape:current-layer="g956"
     inkscape:document-rotation="0"
     showgrid="false"
     inkscape:window-width="2560"
     inkscape:window-height="1017"
     inkscape:window-x="-8"
     inkscape:window-y="-8"
     inkscape:window-maximized="1"
     showguides="false"
     fit-margin-top="0"
     fit-margin-left="0"
     fit-margin-right="0"
     fit-margin-bottom="0"
     lock-margins="true" />
  <metadata
     id="metadata5">
    <rdf:RDF>
      <cc:Work
         rdf:about="">
        <dc:format>image/svg+xml</dc:format>
        <dc:type
           rdf:resource="http://purl.org/dc/dcmitype/StillImage" />
        <dc:title></dc:title>
      </cc:Work>
    </rdf:RDF>
  </metadata>
  <g
     inkscape:label="Layer 1"
     inkscape:groupmode="layer"
     id="layer1"
     transform="translate(-105.54874,-90.429772)">
    <g
       id="g956"
       transform="matrix(0.26458333,0,0,0.26458333,43.769723,4.8381759)">
      <g
         id="Layer1000"
         transform="matrix(12.111134,0,0,12.111134,-2428.5784,-3565.724)"
         style="stroke-width:0.0825686">
        <path
           d="m 306,340.2885 c 30.7688,0 55.7119,24.9429 55.7119,55.7115 0,30.7686 -24.9431,55.7115 -55.7119,55.7115 -30.7688,0 -55.7119,-24.9429 -55.7119,-55.7115 0,-30.7686 24.9431,-55.7115 55.7119,-55.7115 z"
           style="fill:#ffffff;fill-rule:evenodd;stroke-width:0.0825686"
           id="path842" />
        <defs
           id="defs852">
          <linearGradient
             id="linearGradient923">
            <stop
               offset="0.0000%"
               stop-color="#bae5f7"
               stop-opacity="1.0000"
               id="stop917" />
            <stop
               offset="12.0000%"
               stop-color="#ffffff"
               stop-opacity="1.0000"
               id="stop919" />
            <stop
               offset="0.0000%"
               stop-color="#d6d6d6"
               stop-opacity="1.0000"
               id="stop921" />
          </linearGradient>
          <linearGradient
             xlink:href="#grad2"
             id="linearGradient925"
             x1="0"
             y1="0"
             x2="0"
             y2="1"
             gradientTransform="rotate(170,0.5,0.5)"
             gradientUnits="objectBoundingBox" />
        </defs>
        <path
           d="m 254.5169,400.1425 c 2.2088,0.0344 4.0853,-3.5849 5.6304,-10.8587 4.8061,-15.189 10.1524,-20.9318 16.2881,-12.8695 4.3559,6.168 8.7838,12.2631 13.4728,18.0978 1.6403,2.3065 2.69636,1.8606 3.54679,-0.10648 L 301.169,383.2512 c 3.8213,-4.3154 7.89749,-5.41569 13.04859,-1.09489 l 6.07724,6.99242 c 1.3914,2.1724 3.01126,5.10614 4.01132,3.40471 4.94871,-9.54786 11.76675,-23.10694 19.09115,-32.42704 -40.6663,-38.3318 -93.9958,-1.2146 -88.8804,40.0161 z"
           style="fill:url(#grad3);fill-opacity:1;stroke-width:0.0825686"
           id="path854"
           sodipodi:nodetypes="ccccccccccc" />
        <path
           d="m 332.4202,380.127 c 4.2672,0.3186 8.107,1.0919 11.7234,2.9308 l 7.897,-10.8278 c -1.9609,-4.4233 -5.0682,-8.168 -8.5483,-11.7234 z"
           style="fill:#c8181f;fill-opacity:1;fill-rule:evenodd;stroke-width:0.0825686"
           id="path856" />
        <defs
           id="defs868">
          <linearGradient
             id="linearGradient938">
            <stop
               offset="0.0000%"
               stop-color="#cf7851"
               stop-opacity="1.0000"
               id="stop930" />
            <stop
               offset="12.0000%"
               stop-color="#ffffff"
               stop-opacity="1.0000"
               id="stop932" />
            <stop
               offset="0.0000%"
               stop-color="#d6d6d6"
               stop-opacity="1.0000"
               id="stop934" />
            <stop
               offset="4352.0000%"
               stop-color="#ffffff"
               stop-opacity="1.0000"
               id="stop936" />
          </linearGradient>
          <linearGradient
             xlink:href="#grad4"
             id="linearGradient940"
             x1="0"
             y1="0"
             x2="0"
             y2="1"
             gradientUnits="objectBoundingBox" />
        </defs>
        <path
           d="m 254.7728,403.2289 c 4.1595,-0.2387 4.4242,-5.9956 6.2035,-9.6968 6.733,-2.3288 14.3138,-6.2443 20.5787,-5.4718 3.1219,4.3833 6.6771,8.3334 10.6655,11.8505 3.5052,-4.1493 6.2532,-9.4889 10.1914,-13.7466 4.4513,-5.6914 9.6243,-6.0449 14.2206,0.237 2.6156,3.4765 4.8344,6.9528 6.8733,10.4285 4.3889,-5.3265 4.5636,-9.9175 8.5892,-15.9713 4.0121,0.2464 7.7875,1.1224 11.2185,2.9187 l -8.1695,12.15 5.6574,-0.8583 c 2.8146,-7.0776 7.6647,-14.8821 11.4972,-22.3233 7.8295,15.5824 7.1563,35.4156 -1.0626,48.0221 -20.9302,37.2332 -67.2053,31.8299 -85.3237,8.0583 -5.8457,-7.4663 -9.6479,-15.8211 -11.1395,-25.597 z"
           style="fill:url(#grad5);fill-opacity:1;stroke-width:0.0825686"
           id="path870" />
        <path
           d="m 316.9441,436.166 -8.1202,4.3006 c -7.8902,3.2737 -15.78,2.7106 -23.6695,-0.4772 -6.7855,-3.9968 -13.4858,-8.2316 -19.1838,-15.2706 l -6.3946,-6.2037 c -1.6814,-3.1813 -3.0444,-7.1898 -3.7074,-10.8795 5.1692,7.775 11.2611,15.7767 18.467,22.7892 8.5749,7.4458 18.2473,11.3984 29.6223,9.9366 2.9731,-1.339 5.8458,-2.7327 8.6042,-4.189 z"
           style="fill:#00a3dd;fill-rule:evenodd;stroke-width:0.0825686"
           id="path872" />
        <path
           d="m 327.9495,426.3787 c 0.7038,-0.5497 1.3936,-1.1068 2.0685,-1.6721 3.9265,-2.3747 8.0043,-4.2955 12.1863,-5.9056 3.3142,-1.9216 4.6678,-4.8814 3.656,-9.0929 -2.2188,-4.8118 -7.7453,-10.8954 -6.814,-14.6578 l 1.7232,0.0659 c 0.3565,-1.5696 0.8792,-3.1579 1.9973,-4.8125 5.0093,-1.7921 9.4834,-4.1584 13.3113,-7.218 l 0.5624,2.2497 c -3.793,2.7685 -8.9481,3.7284 -11.8114,5.9995 -2.2198,1.4907 -2.7959,3.9473 -2.6248,6.8431 1.5171,3.4163 3.2631,6.6613 5.3433,9.6553 1.5751,1.404 1.9409,3.4686 1.9686,5.7182 -0.819,3.3627 -3.3069,5.3069 -6.9369,6.2806 -3.316,1.2712 -6.4278,3.0522 -9.3214,5.4487 l -3.356,4.023 -1.9044,1.0084 z"
           style="fill:#00a3dd;fill-rule:evenodd;stroke-width:0.0825686"
           id="path874" />
        <path
           d="m 261.6536,391.6633 c 6.5221,-1.624 12.9703,-4.5366 18.9013,-4.8635 -2.4137,-2.6341 -4.6796,-5.6368 -6.7979,-9.0085 -2.4321,-3.1451 -5.2507,-1.5944 -7.2952,1.7133 -2.5151,4.219 -3.9152,8.2352 -4.8082,12.1587 z"
           style="fill:#c8181f;fill-opacity:1;fill-rule:evenodd;stroke-width:0.0825686"
           id="path876" />
        <path
           d="m 306,324.0002 c 39.6564,0 72.0001,32.3436 72.0001,71.9998 0,39.6563 -32.3437,71.9999 -72.0001,71.9999 -39.6564,0 -72.0001,-32.3436 -72.0001,-71.9999 0,-39.6562 32.3437,-71.9998 72.0001,-71.9998 z m 0,20.2499 c 28.5031,0 51.7501,23.2469 51.7501,51.7499 0,28.503 -23.247,51.7499 -51.7501,51.7499 -28.5031,0 -51.7501,-23.2469 -51.7501,-51.7499 0,-28.503 23.247,-51.7499 51.7501,-51.7499 z"
           style="fill:#00722c;fill-rule:evenodd;stroke:#1b1918;stroke-width:0.0832952;stroke-linecap:butt;stroke-linejoin:miter;stroke-dasharray:none"
           id="path878" />
        <path
           d="m 241.1873,403.5523 -0.2521,-3.6063 c -0.0497,-0.7093 0.007,-1.2903 0.1686,-1.7426 0.1633,-0.4509 0.4142,-0.832 0.7544,-1.1427 0.342,-0.3105 0.7467,-0.5463 1.2163,-0.7096 0.4704,-0.1616 0.9724,-0.261 1.5082,-0.2987 0.8395,-0.0586 1.4971,-0.009 1.9731,0.1507 0.4761,0.1577 0.8824,0.396 1.2168,0.7141 0.3366,0.3167 0.5704,0.6659 0.7019,1.0481 0.18,0.5222 0.2849,1.0001 0.3153,1.4315 l 0.2521,3.6063 z m 1.6097,-2.5511 4.2903,-0.3 -0.0416,-0.5941 c -0.0357,-0.5086 -0.1157,-0.8651 -0.2439,-1.0712 -0.1266,-0.2062 -0.3358,-0.3604 -0.6243,-0.4633 -0.288,-0.1012 -0.7477,-0.1296 -1.3769,-0.0857 -0.8318,0.0581 -1.3911,0.2331 -1.6795,0.5255 -0.288,0.2939 -0.4105,0.7545 -0.3664,1.3835 z m -2.0445,-7.2258 0.5682,-6.4941 1.6746,0.1466 -0.3556,4.0651 1.2474,0.1091 0.3299,-3.771 1.5996,0.1398 -0.3299,3.7714 1.545,0.135 0.3661,-4.1839 1.7768,0.1554 -0.5784,6.6127 z m 0.9053,-9.1315 1.4554,-5.8377 1.6417,0.4095 -0.8642,3.4667 1.3342,0.3327 0.738,-2.96 1.5419,0.3845 -0.7379,2.96 3.1217,0.7782 -0.5913,2.371 z m 1.9853,-7.7739 2.1223,-6.1636 1.5897,0.5473 -1.3287,3.8584 1.1838,0.4076 1.2324,-3.5793 1.5185,0.523 -1.2326,3.5791 1.4666,0.5049 1.3673,-3.971 1.6865,0.5807 -2.1611,6.2763 z m 3.3294,-8.9164 1.1365,-1.9686 5.2543,-0.3894 -3.7722,-2.1779 1.1466,-1.9859 6.8189,3.9368 -1.1467,1.9861 -5.2182,0.3929 3.7434,2.1614 -1.144,1.9813 z m 12.1461,-10.106 1.8435,-1.2507 c 0.3743,0.4873 0.6201,0.9763 0.7382,1.4682 0.1181,0.4919 0.1121,0.9801 -0.0171,1.4629 -0.1276,0.4838 -0.415,0.9988 -0.858,1.546 -0.5387,0.6652 -1.0764,1.1311 -1.6089,1.3956 -0.5354,0.2649 -1.1712,0.3538 -1.9061,0.2656 -0.7345,-0.0897 -1.4816,-0.4398 -2.2409,-1.0547 -1.0129,-0.8203 -1.574,-1.7208 -1.6808,-2.699 -0.1082,-0.9791 0.2369,-1.9616 1.0341,-2.946 0.624,-0.7708 1.2699,-1.2505 1.9393,-1.4394 0.6698,-0.189 1.4136,-0.1292 2.2322,0.18 l -0.9802,1.9706 c -0.234,-0.0925 -0.4202,-0.1422 -0.5593,-0.1484 -0.2291,-0.0111 -0.4453,0.0287 -0.6472,0.1173 -0.203,0.0905 -0.3799,0.2303 -0.5333,0.4197 -0.3459,0.4274 -0.4401,0.8964 -0.2802,1.4036 0.1169,0.3797 0.4484,0.792 0.9968,1.2363 0.6797,0.5502 1.2283,0.8223 1.6468,0.8215 0.4193,-0.002 0.7788,-0.1903 1.0798,-0.5622 0.2932,-0.3618 0.4136,-0.7172 0.3598,-1.0675 -0.0524,-0.349 -0.239,-0.7215 -0.5585,-1.1194 z m -0.8335,-6.3995 4.7674,-4.4459 1.1464,1.2297 -2.9843,2.7827 0.8539,0.9159 2.7685,-2.5819 1.0951,1.1747 -2.7685,2.5815 1.058,1.1345 3.0715,-2.8644 1.2163,1.3044 -4.8547,4.5272 z m 9.8347,-8.6142 2.063,-1.2891 1.4602,2.3366 2.2558,-1.4097 -1.46,-2.3364 2.0723,-1.2948 4.1724,6.6772 -2.0723,1.2946 -1.6876,-2.7 -2.2558,1.4095 1.6876,2.7002 -2.063,1.2891 z m 10.1794,-1.5249 c -0.5228,-1.1739 -0.6018,-2.2343 -0.2394,-3.1785 0.3633,-0.9463 1.129,-1.6785 2.2962,-2.1981 1.1974,-0.5331 2.2634,-0.6223 3.1977,-0.2678 0.932,0.3534 1.6581,1.1096 2.1733,2.2669 0.3744,0.8409 0.5391,1.5942 0.4954,2.2576 -0.0435,0.6637 -0.2657,1.2642 -0.6667,1.8018 -0.4024,0.5385 -1.0009,0.9836 -1.7996,1.3394 -0.8106,0.3606 -1.5395,0.5309 -2.1871,0.5099 -0.6465,-0.0231 -1.2586,-0.2402 -1.8393,-0.6519 -0.5789,-0.4123 -1.0565,-1.0388 -1.4305,-1.8793 z m 2.2283,-0.9803 c 0.3237,0.7269 0.6894,1.1881 1.1007,1.3864 0.4107,0.1965 0.8498,0.1913 1.3136,-0.015 0.4777,-0.2128 0.7783,-0.5332 0.9013,-0.9595 0.1227,-0.4276 0.007,-1.0442 -0.3512,-1.8482 -0.3019,-0.6782 -0.6591,-1.1112 -1.0714,-1.3027 -0.4117,-0.1898 -0.8513,-0.1808 -1.3203,0.0279 -0.4471,0.1991 -0.737,0.5168 -0.8666,0.9557 -0.1305,0.4375 -0.032,1.0236 0.2939,1.7554 z m 11.3131,-7.97 2.3666,-0.5463 1.0562,4.5746 c 0.1047,0.4536 0.1317,0.8972 0.0837,1.3332 -0.0483,0.4346 -0.188,0.8393 -0.4202,1.211 -0.2323,0.3715 -0.4997,0.6554 -0.8036,0.8551 -0.4215,0.2761 -0.9536,0.4892 -1.6004,0.6385 -0.3733,0.0862 -0.786,0.1554 -1.2396,0.2037 -0.4535,0.0501 -0.8452,0.0313 -1.1775,-0.0559 -0.3326,-0.0866 -0.6552,-0.2455 -0.9675,-0.4746 -0.3126,-0.2288 -0.5484,-0.4849 -0.7098,-0.7673 -0.259,-0.4537 -0.4321,-0.8693 -0.5191,-1.2458 l -1.0562,-4.5748 2.3669,-0.5463 1.0813,4.6837 c 0.0967,0.4195 0.2884,0.7196 0.5729,0.9004 0.2868,0.1821 0.6354,0.2258 1.0479,0.1303 0.4074,-0.094 0.702,-0.2841 0.8805,-0.5698 0.1773,-0.2837 0.2173,-0.6409 0.119,-1.066 z m 5.1355,4.1805 2.2995,-0.3058 c 0.0755,0.3713 0.1979,0.6492 0.3651,0.836 0.2711,0.301 0.6407,0.4331 1.1052,0.4006 0.3455,-0.0244 0.6069,-0.1231 0.7838,-0.2994 0.1755,-0.1754 0.2552,-0.3707 0.2404,-0.5844 -0.0142,-0.2031 -0.1148,-0.3798 -0.3051,-0.5282 -0.1907,-0.1484 -0.6146,-0.2713 -1.2753,-0.3684 -1.0813,-0.1651 -1.8622,-0.4282 -2.3436,-0.7937 -0.4849,-0.3647 -0.7485,-0.8535 -0.7916,-1.468 -0.0283,-0.4041 0.0618,-0.7946 0.2711,-1.1691 0.2088,-0.3748 0.5403,-0.681 0.9957,-0.9203 0.4556,-0.2379 1.0922,-0.3853 1.9098,-0.4424 1.0038,-0.0703 1.7833,0.0624 2.336,0.3989 0.5527,0.336 0.9069,0.9085 1.0646,1.7154 l -2.2787,0.2934 c -0.0847,-0.3487 -0.2309,-0.5977 -0.4378,-0.7449 -0.2052,-0.1455 -0.4796,-0.2072 -0.8214,-0.1831 -0.2836,0.0198 -0.4914,0.093 -0.6259,0.2239 -0.1342,0.1285 -0.1952,0.2798 -0.183,0.4517 0.008,0.1247 0.0748,0.2319 0.1989,0.3243 0.1223,0.0963 0.3998,0.1723 0.8358,0.2321 1.0765,0.1542 1.8519,0.3334 2.3271,0.5354 0.4754,0.2018 0.8302,0.4676 1.0629,0.8005 0.233,0.3311 0.3659,0.7113 0.396,1.1411 0.0353,0.5028 -0.0731,0.9772 -0.3214,1.4208 -0.2482,0.4455 -0.6151,0.7945 -1.1008,1.0491 -0.4839,0.2542 -1.1073,0.4084 -1.8678,0.4614 -1.3353,0.0934 -2.2787,-0.0979 -2.8283,-0.5776 -0.5519,-0.4781 -0.8881,-1.1106 -1.0112,-1.8993 z m 8.6737,-5.7813 2.4375,0.0425 -0.1373,7.8723 -2.4378,-0.0425 z m 5.1258,0.1419 2.2564,0.2768 2.4112,4.6845 0.5309,-4.3231 2.2763,0.2794 -0.9596,7.8149 -2.2762,-0.2793 -2.4009,-4.6501 -0.5267,4.2905 -2.2708,-0.2789 z m 12.6182,7.5125 0.4237,-1.5812 3.63,0.9728 -0.869,3.2418 c -0.8207,0.287 -1.522,0.4466 -2.1023,0.4729 -0.5806,0.0289 -1.2374,-0.0562 -1.9707,-0.2525 -0.9027,-0.242 -1.5967,-0.5931 -2.0822,-1.0535 -0.4881,-0.4591 -0.8062,-1.0357 -0.9547,-1.7284 -0.1503,-0.6931 -0.1208,-1.4329 0.0905,-2.2211 0.2225,-0.8304 0.5876,-1.5068 1.0941,-2.0296 0.5076,-0.5207 1.1334,-0.852 1.8793,-0.9939 0.5814,-0.108 1.3083,-0.0443 2.1793,0.1891 0.8393,0.2249 1.4476,0.4696 1.8249,0.7337 0.3752,0.2639 0.6572,0.5919 0.8477,0.9862 0.1891,0.3926 0.2876,0.8535 0.294,1.3829 l -2.3749,-0.2039 c -0.0169,-0.3117 -0.1175,-0.5741 -0.2998,-0.786 -0.1806,-0.2115 -0.4451,-0.3641 -0.7906,-0.4569 -0.5154,-0.1379 -0.9741,-0.0692 -1.3761,0.2064 -0.4026,0.2775 -0.7081,0.8009 -0.9157,1.5765 -0.2208,0.8236 -0.2223,1.453 -0.007,1.8884 0.2135,0.4349 0.5982,0.7279 1.1526,0.8761 0.2618,0.0705 0.5238,0.099 0.7815,0.0864 0.2594,-0.0122 0.5686,-0.068 0.9238,-0.1682 l 0.1921,-0.717 z m 12.4018,7.0841 -2.4244,-1.3437 -0.9638,0.9516 -2.1741,-1.205 6.4051,-5.4522 2.32,1.2862 -1.2278,8.3217 -2.2269,-1.2342 z m 0.3797,-1.7366 0.6107,-2.8978 -2.129,2.0562 z m 10.7575,1.5395 1.9139,1.4953 -2.8903,3.6999 c -0.2867,0.3665 -0.6143,0.6669 -0.9836,0.9039 -0.3679,0.2359 -0.7706,0.3821 -1.2056,0.4354 -0.4347,0.0534 -0.8236,0.0242 -1.1701,-0.0863 -0.4799,-0.1538 -0.9805,-0.4334 -1.5035,-0.842 -0.302,-0.2358 -0.6154,-0.5131 -0.9384,-0.8351 -0.3241,-0.3208 -0.5562,-0.637 -0.6977,-0.9502 -0.1418,-0.3131 -0.2214,-0.6638 -0.2399,-1.0505 -0.0188,-0.387 0.0315,-0.7315 0.1499,-1.0345 0.1894,-0.4868 0.4032,-0.8828 0.6413,-1.1875 l 2.8905,-3.6997 1.9142,1.4955 -2.9594,3.7877 c -0.2651,0.3393 -0.3779,0.6774 -0.3393,1.012 0.0387,0.3375 0.2245,0.6358 0.558,0.8966 0.3295,0.2575 0.6628,0.3667 0.9972,0.3257 0.3319,-0.0408 0.6348,-0.235 0.9032,-0.5787 z m 3.5028,2.9862 5.137,5.3196 -1.3992,1.3512 -1.7241,-1.7855 -4.2645,4.1185 -1.6901,-1.75 4.2648,-4.1182 -1.7231,-1.7845 z m 6.5331,7.0392 1.4297,1.9679 -2.229,1.6196 1.5635,2.1521 2.229,-1.6196 1.4365,1.9768 -6.3699,4.628 -1.4365,-1.9768 2.5762,-1.8717 -1.5635,-2.1518 -2.5762,1.8714 -1.4296,-1.9679 z m 2.0591,10.0416 c 1.1347,-0.6032 2.1869,-0.7562 3.154,-0.4605 0.9691,0.2964 1.7531,1.0091 2.353,2.1374 0.6154,1.1573 0.7789,2.2143 0.4903,3.1713 -0.2876,0.9543 -0.9917,1.7313 -2.11,2.326 -0.8127,0.4321 -1.5524,0.6492 -2.2177,0.6517 -0.6648,0.003 -1.2796,-0.1771 -1.8436,-0.5393 -0.5653,-0.3639 -1.0512,-0.9298 -1.4615,-1.702 -0.4166,-0.7832 -0.6372,-1.4986 -0.6615,-2.1461 -0.0219,-0.6463 0.1517,-1.2722 0.522,-1.8802 0.371,-0.6065 0.9627,-1.1262 1.775,-1.5583 z m 1.1332,2.1546 c -0.7026,0.3735 -1.1372,0.7706 -1.306,1.1946 -0.1674,0.4235 -0.1317,0.8613 0.1066,1.3095 0.2453,0.4614 0.5861,0.7391 1.0198,0.8323 0.4354,0.0925 1.0422,-0.0662 1.8192,-0.4791 0.6555,-0.3486 1.0623,-0.7354 1.2247,-1.1603 0.1611,-0.4236 0.1213,-0.8613 -0.1197,-1.3146 -0.2299,-0.4321 -0.567,-0.6993 -1.0139,-0.7981 -0.4453,-0.0995 -1.0232,0.0396 -1.7307,0.4157 z m -0.2853,8.1959 7.5686,-2.17 1.1176,3.8978 c 0.2072,0.7225 0.3041,1.2934 0.288,1.71 -0.0134,0.4177 -0.1544,0.7917 -0.4237,1.1225 -0.2676,0.3305 -0.6432,0.5641 -1.1241,0.7018 -0.4212,0.1208 -0.8084,0.1346 -1.1642,0.0439 -0.3565,-0.0921 -0.6737,-0.2682 -0.9535,-0.5255 -0.1775,-0.1666 -0.3562,-0.4106 -0.5333,-0.736 -0.0136,0.3054 -0.0489,0.5348 -0.1054,0.6905 -0.0375,0.1022 -0.1335,0.2649 -0.2892,0.4871 -0.1575,0.2224 -0.2812,0.3762 -0.3766,0.4624 l -1.8695,1.7606 -0.7578,-2.6431 1.9552,-1.913 c 0.2525,-0.2438 0.4076,-0.4409 0.4616,-0.5918 0.0682,-0.2008 0.0713,-0.4095 0.0103,-0.6228 l -0.0592,-0.2064 -3.0715,0.8809 z m 5.1757,1.0578 0.2829,0.9868 c 0.0303,0.106 0.1231,0.3027 0.2798,0.5894 0.076,0.146 0.1919,0.2501 0.3469,0.3126 0.1546,0.0604 0.315,0.0678 0.4808,0.0204 0.2447,-0.0703 0.4094,-0.2014 0.4954,-0.394 0.0876,-0.193 0.0694,-0.5024 -0.0528,-0.9287 l -0.2946,-1.0277 z m 4.7802,5.769 0.4653,2.3933 -7.7292,1.5022 -0.4649,-2.3932 z m 0.8355,4.3625 0.6445,7.367 -1.9377,0.1694 -0.2164,-2.4726 -5.906,0.5168 -0.2119,-2.4233 5.9061,-0.5169 -0.2162,-2.471 z m 0.6715,8.9137 -0.1886,2.6955 -2.7625,1.4 2.5408,1.7711 -0.1873,2.6792 -4.351,-3.3733 -3.2898,-0.2301 0.1701,-2.4322 3.2898,0.2301 z"
           style="fill:#ffffff;fill-rule:evenodd;stroke-width:0.0825686"
           id="path880" />
        <path
           d="m 277.1877,430.1384 h 0.8824 c 0.0369,-3.0341 -0.3877,-5.8955 -0.5042,-9.1023 0.0835,-1.8111 0.2738,-3.4609 0.957,-4.7563 0.6025,-0.7415 1.1964,-1.3388 1.7184,-2.2584 -0.6508,0.1684 -1.077,0.9977 -1.7119,1.0856 0.0802,-0.5846 0.0106,-1.1691 -0.2088,-1.7537 -0.629,1.8137 -1.2128,3.616 -1.6701,5.3863 -0.2213,-1.1206 -0.337,-2.0417 -0.5381,-3.4905 -0.3577,-2.5779 0.2865,6.2424 0.2876,6.4133 0.06,0.8164 -0.1745,0.8051 -0.5429,0.4175 -0.3588,-0.3714 -0.6907,-0.7862 -0.835,-1.5031 -0.3202,-1.2527 -0.6563,-3.1499 -0.9604,-3.7579 -0.0793,-0.3567 -0.2549,-0.2622 -0.334,0.0417 0.3474,1.7904 0.5977,3.5161 0.501,5.0105 1.0471,0.5188 1.7988,1.8132 2.2548,3.8832 0.0615,1.4855 0.1888,3.1269 0.7042,4.3841 z"
           style="fill:#93413f;fill-rule:evenodd;stroke-width:0.0825686"
           id="path882" />
        <path
           d="m 276.0474,413.8338 c -3.8004,-0.1337 -6.0836,-1.4242 -6.8495,-3.8715 0.0187,-0.8269 -0.1885,-1.6539 -0.8934,-2.4817 -1.3487,-0.7393 -2.0646,-1.6595 -1.3897,-2.978 0.3936,-0.9421 1.2212,-1.3058 2.4817,-1.0919 -0.1452,-1.5645 0.6492,-2.6233 2.3824,-3.1766 0.7123,-1.2154 1.831,-2.1599 3.844,-2.5085 1.1135,-1.2554 2.9638,-1.6076 5.0901,0.0268 0.5138,1.9613 0.8159,3.9467 2.6803,5.7575 0.9571,1.4829 2.0323,2.9068 3.2796,4.2447 1.1579,0.5765 1.0238,1.4508 0.3025,2.4605 0.6592,0.5265 0.5599,0.9627 0.3527,1.6333 0.3167,1.5868 -0.2517,2.6305 -2.2473,2.4817 z"
           style="fill:#00b200;fill-rule:evenodd;stroke-width:0.0825686;fill-opacity:1"
           id="path884" />
        <path
           d="m 297.0165,419.8497 h -10.3386 l 22.4934,-16.7653 v 32.6923 h -12.1548 z"
           style="fill:none;stroke:#1b1918;stroke-width:0.0633797;stroke-linecap:round;stroke-linejoin:round;stroke-dasharray:none"
           id="path886" />
        <path
           d="m 321.3262,419.8497 h 10.3386 l -22.4935,-16.7653 v 32.6923 h 12.1549 z"
           style="fill:none;stroke:#1b1918;stroke-width:0.0633797;stroke-linecap:round;stroke-linejoin:round;stroke-dasharray:none"
           id="path888" />
        <path
           d="m 290.3104,417.3349 v 18.5815 h 37.4428 v -18.8609"
           style="fill:none;stroke:#1b1918;stroke-width:0.0633797;stroke-linecap:round;stroke-linejoin:round;stroke-dasharray:none"
           id="path890" />
        <path
           d="m 254.7456,422.3741 1.13,1.9573 -6.3207,3.6493 -1.1302,-1.9573 z m -2.5751,5.31 1.2512,1.749 c -0.2712,0.2233 -0.4454,0.4445 -0.5255,0.6628 -0.1283,0.3528 -0.0757,0.7126 0.153,1.0787 0.1702,0.2724 0.3652,0.4431 0.5861,0.5115 0.22,0.0669 0.4144,0.0475 0.5831,-0.0578 0.1599,-0.1001 0.2607,-0.2593 0.2994,-0.4797 0.0384,-0.2203 -0.0453,-0.621 -0.2535,-1.2041 -0.3354,-0.9567 -0.4597,-1.7105 -0.3704,-2.2633 0.0877,-0.5556 0.3727,-0.9843 0.8571,-1.287 0.3184,-0.199 0.6773,-0.2951 1.075,-0.2869 0.3977,0.008 0.7925,0.1459 1.1867,0.4146 0.3929,0.2695 0.7905,0.7262 1.1931,1.3704 0.4943,0.7913 0.7248,1.4868 0.6899,2.0856 -0.0346,0.5988 -0.3488,1.1377 -0.9408,1.6177 l -1.2316,-1.7369 c 0.2485,-0.2214 0.3887,-0.4493 0.4191,-0.6827 0.03,-0.2312 -0.0391,-0.4825 -0.2075,-0.7521 -0.1396,-0.2233 -0.2901,-0.3617 -0.4555,-0.4146 -0.1638,-0.054 -0.3143,-0.0381 -0.4498,0.0466 -0.0979,0.0613 -0.157,0.1621 -0.1787,0.3039 -0.0254,0.1422 0.0331,0.4023 0.1739,0.785 0.3422,0.9485 0.533,1.6609 0.5746,2.1378 0.0414,0.477 -0.0215,0.8831 -0.1926,1.2185 -0.1697,0.3345 -0.4229,0.6088 -0.7617,0.8205 -0.3961,0.2477 -0.8316,0.3653 -1.3028,0.3552 -0.4727,-0.009 -0.9182,-0.1577 -1.3377,-0.4445 -0.4188,-0.2853 -0.8161,-0.7284 -1.1907,-1.3279 -0.6573,-1.052 -0.9112,-1.9074 -0.7579,-2.5662 0.1509,-0.6593 0.5224,-1.21 1.1145,-1.6541 z m 7.7613,2.974 1.4803,1.7032 -4.1513,3.6088 2.3087,2.656 -1.3568,1.1794 -3.7893,-4.359 z m 3.0622,12.1964 -1.8483,-1.7848 -1.0912,0.6212 -1.6576,-1.6006 7.043,-3.345 1.7687,1.7081 -3.0959,7.1565 -1.698,-1.6397 z m 0.7567,-1.4637 1.2419,-2.4481 -2.3996,1.3301 z m 5.2006,-1.1801 2.4004,1.7439 -1.6835,4.2655 3.5326,-2.9221 2.3921,1.738 -4.2901,5.9046 -1.4903,-1.0828 3.2713,-4.5022 -4.4276,3.6622 -1.3486,-0.9798 2.1192,-5.3393 -3.2711,4.5023 -1.4944,-1.0857 z m 8.127,12.494 -2.2894,-1.1665 -0.8618,0.9131 -2.053,-1.0461 5.7571,-5.2578 2.1909,1.1162 -0.8682,7.7488 -2.1032,-1.0715 z m 0.2958,-1.621 0.4719,-2.7044 -1.9058,1.9737 z m 4.9343,-2.6004 3.9153,1.5818 c 0.6524,0.2635 1.0879,0.6284 1.3055,1.0919 0.2191,0.4644 0.2325,0.9352 0.0402,1.4111 -0.1617,0.4 -0.4249,0.6933 -0.7898,0.8793 -0.244,0.1235 -0.5477,0.1765 -0.9122,0.1576 0.4383,0.3128 0.7143,0.6588 0.8299,1.0354 0.1132,0.3774 0.0837,0.7816 -0.09,1.2117 -0.142,0.3514 -0.3512,0.6334 -0.6268,0.8482 -0.2773,0.2142 -0.5885,0.3451 -0.9382,0.3944 -0.2156,0.0301 -0.5103,-0.003 -0.8833,-0.1003 -0.4959,-0.1288 -0.8205,-0.2235 -0.9751,-0.2858 l -3.6095,-1.4584 z m 1.037,3.5071 0.9091,0.3673 c 0.3262,0.1317 0.576,0.1667 0.7504,0.1072 0.1734,-0.062 0.3022,-0.1988 0.3875,-0.4099 0.0795,-0.1969 0.0788,-0.3769 -0.004,-0.5386 -0.0841,-0.1641 -0.2839,-0.3089 -0.6007,-0.437 l -0.9232,-0.3731 z m -1.0738,2.6579 1.0667,0.4311 c 0.3606,0.1457 0.6398,0.1852 0.8379,0.1168 0.1998,-0.0679 0.3433,-0.2095 0.4305,-0.4256 0.0807,-0.1999 0.0731,-0.39 -0.0242,-0.5705 -0.0975,-0.1805 -0.3281,-0.345 -0.6952,-0.4933 l -1.062,-0.4291 z m 9.2253,3.2735 -2.4933,-0.6215 -0.6343,1.0835 -2.2358,-0.5575 4.4269,-6.4181 2.3859,0.5947 0.8971,7.7457 -2.2903,-0.5711 z m -0.0766,-1.6459 -0.1485,-2.7413 -1.413,2.3519 z m 3.9884,-3.6645 3.326,0.4086 c 0.6543,0.0802 1.173,0.2348 1.5561,0.4616 0.381,0.2282 0.6837,0.5239 0.906,0.8884 0.2223,0.3662 0.3653,0.7759 0.431,1.2327 0.0637,0.4562 0.0654,0.9307 0.005,1.4248 -0.0951,0.7742 -0.2564,1.3639 -0.486,1.769 -0.2277,0.405 -0.5163,0.7324 -0.8653,0.9808 -0.3474,0.25 -0.7067,0.401 -1.0776,0.4533 -0.507,0.0711 -0.9603,0.0823 -1.3584,0.0334 l -3.3259,-0.4084 z m 2.0367,1.9159 -0.486,3.9571 0.5482,0.0672 c 0.4687,0.0576 0.8074,0.0478 1.0175,-0.0327 0.2099,-0.0785 0.3875,-0.2416 0.5321,-0.4858 0.1431,-0.2444 0.2503,-0.6576 0.3217,-1.2378 0.0942,-0.7674 0.0338,-1.3072 -0.181,-1.6212 -0.2166,-0.3143 -0.6141,-0.507 -1.1943,-0.5782 z m 4.578,2.7167 2.9448,0.1029 -0.0549,1.5657 -2.9446,-0.1027 z m 3.8269,3.6113 -0.2546,-7.294 3.7565,-0.1313 c 0.6961,-0.0243 1.2315,0.0166 1.6025,0.1243 0.3728,0.1062 0.6776,0.3166 0.9148,0.6329 0.2371,0.3149 0.3631,0.7049 0.3793,1.1685 0.0141,0.406 -0.0602,0.7571 -0.2216,1.0569 -0.1629,0.2999 -0.3925,0.546 -0.6867,0.7399 -0.1895,0.1222 -0.4494,0.228 -0.7813,0.3145 0.2715,0.0806 0.4699,0.164 0.5972,0.2494 0.0834,0.0568 0.2083,0.1798 0.3732,0.3697 0.1648,0.1915 0.2753,0.3372 0.3317,0.4423 l 1.1642,2.0764 -2.5474,0.0889 -1.282,-2.1877 c -0.1629,-0.2817 -0.3053,-0.4655 -0.4289,-0.548 -0.1652,-0.1063 -0.3523,-0.1559 -0.5578,-0.1486 l -0.1986,0.007 0.1032,2.96 z m 2.1122,-4.4182 0.9509,-0.0331 c 0.102,-0.004 0.2996,-0.0428 0.5929,-0.1194 0.1483,-0.0358 0.2679,-0.1164 0.3587,-0.2421 0.0893,-0.1255 0.1318,-0.2681 0.1262,-0.4277 -0.008,-0.236 -0.0893,-0.4135 -0.2431,-0.5338 -0.1539,-0.1222 -0.4362,-0.1753 -0.8472,-0.1608 l -0.9902,0.0346 z m 9.9534,2.0595 -2.5222,0.4903 -0.1169,1.2501 -2.262,0.4397 1.2998,-7.6877 2.4135,-0.4693 4.0866,6.6407 -2.3171,0.4505 z m -0.7648,-1.4595 -1.2931,-2.4215 -0.2867,2.7287 z m 1.3811,-4.4812 2.0245,-0.6971 2.0567,3.6034 -0.2637,-4.2208 2.0197,-0.6954 2.3957,3.4866 -0.5977,-4.1057 2.0148,-0.6936 0.8562,7.4242 -2.0903,0.7197 -2.706,-3.9278 0.2911,4.7593 -2.0903,0.7197 z m 16.2885,0.1852 -2.2894,1.1666 0.2322,1.2339 -2.0531,1.0461 -0.8698,-7.7481 2.1908,-1.1163 5.7588,5.2571 -2.1032,1.0716 z m -1.1375,-1.192 -1.9105,-1.9712 0.4764,2.7019 z m 0.7835,-5.4526 1.8927,-1.229 2.9958,4.6133 2.9515,-1.9168 0.9791,1.5079 -4.8439,3.1458 z m 5.0084,-3.1772 2.9131,-2.3591 c 0.6341,-0.5135 1.2313,-0.7477 1.7918,-0.7009 0.5596,0.0456 1.0666,0.3476 1.5169,0.9037 0.4641,0.5732 0.6548,1.1598 0.5711,1.7611 -0.0837,0.6014 -0.4788,1.1882 -1.1853,1.7603 l -0.9588,0.7763 1.7048,2.1051 -1.7605,1.4255 z m 3.7185,0.9924 0.429,-0.3474 c 0.3382,-0.2738 0.5274,-0.5234 0.5697,-0.7521 0.0408,-0.2277 -0.0123,-0.4338 -0.1599,-0.6162 -0.1445,-0.1782 -0.3269,-0.2818 -0.545,-0.3084 -0.2183,-0.0291 -0.4917,0.0896 -0.8192,0.3549 l -0.4992,0.4042 z m 1.5646,-5.3772 1.6259,-1.57 5.0701,5.25 -1.6259,1.5702 z m 2.4174,-2.0946 1.3542,-1.6141 4.8592,0.4902 -3.0929,-2.5953 1.3666,-1.6285 5.591,4.6915 -1.3666,1.6285 -4.827,-0.481 3.0696,2.5756 -1.3631,1.6243 z m 4.8599,-5.6749 1.7758,-2.8419 c 0.3493,-0.5589 0.7086,-0.9638 1.076,-1.2151 0.368,-0.2489 0.7638,-0.3982 1.1882,-0.4456 0.4257,-0.0466 0.8576,-0.003 1.2992,0.1304 0.4404,0.1351 0.8713,0.334 1.2934,0.5979 0.6615,0.4132 1.1278,0.8088 1.3977,1.1879 0.271,0.3777 0.4458,0.7776 0.5234,1.1988 0.0798,0.4205 0.0648,0.8099 -0.0447,1.1683 -0.1497,0.4894 -0.3312,0.9049 -0.5436,1.245 l -1.7759,2.8419 z m 2.5972,-1.0362 3.3808,2.1126 0.2926,-0.4682 c 0.2505,-0.4006 0.3847,-0.7116 0.4005,-0.9361 0.0174,-0.2234 -0.0554,-0.4533 -0.2155,-0.6876 -0.161,-0.233 -0.4902,-0.5047 -0.9859,-0.8144 -0.6557,-0.4097 -1.1704,-0.5833 -1.5458,-0.5211 -0.3763,0.0633 -0.7191,0.3422 -1.0287,0.8379 z m 1.3495,-5.0157 0.9907,-2.0315 6.5601,3.1994 -0.991,2.0315 z"
           style="fill:#ffffff;fill-rule:evenodd;stroke-width:0.0825686"
           id="path892" />
      </g>
    </g>
  </g>
</svg>
