<?xml version="1.0" encoding="UTF-8" standalone="no"?>
<svg
   xmlns:dc="http://purl.org/dc/elements/1.1/"
   xmlns:cc="http://creativecommons.org/ns#"
   xmlns:rdf="http://www.w3.org/1999/02/22-rdf-syntax-ns#"
   xmlns:svg="http://www.w3.org/2000/svg"
   xmlns="http://www.w3.org/2000/svg"
   xmlns:sodipodi="http://sodipodi.sourceforge.net/DTD/sodipodi-0.dtd"
   xmlns:inkscape="http://www.inkscape.org/namespaces/inkscape"
   version="1.0"
   width="552pt"
   height="482pt"
   viewBox="0 0 552 482"
   preserveAspectRatio="xMidYMid meet"
   id="svg128"
   sodipodi:docname="ndma.svg"
   inkscape:version="1.0.2-2 (e86c870879, 2021-01-15)">
  <metadata
     id="metadata134">
    <rdf:RDF>
      <cc:Work
         rdf:about="">
        <dc:format>image/svg+xml</dc:format>
        <dc:type
           rdf:resource="http://purl.org/dc/dcmitype/StillImage" />
        <dc:title></dc:title>
      </cc:Work>
    </rdf:RDF>
  </metadata>
  <defs
     id="defs132" />
  <sodipodi:namedview
     pagecolor="#ffffff"
     bordercolor="#666666"
     borderopacity="1"
     objecttolerance="10"
     gridtolerance="10"
     guidetolerance="10"
     inkscape:pageopacity="0"
     inkscape:pageshadow="2"
     inkscape:window-width="2560"
     inkscape:window-height="1017"
     id="namedview130"
     showgrid="false"
     inkscape:zoom="0.53997245"
     inkscape:cx="844.63774"
     inkscape:cy="169.16879"
     inkscape:window-x="-8"
     inkscape:window-y="-8"
     inkscape:window-maximized="1"
     inkscape:current-layer="svg128"
     inkscape:document-rotation="0" />
  <g
     id="g967"
     transform="matrix(0.27070789,0,0,0.27070789,36.550188,10.015941)"
     style="stroke-width:3.69402">
    <path
       style="fill:#44b2ff;fill-opacity:1;stroke:none;stroke-width:2.77051px;stroke-linecap:butt;stroke-linejoin:miter;stroke-opacity:1"
       d="m 903,1070 1.85789,-198.58781 489.40501,-38.21928 -1.3099,163.90659 -7.553,31.7005 -23.525,42.9561 -32.2933,16.3203 -408.82275,15.3611 L 903,1070"
       id="path961"
       sodipodi:nodetypes="ccccccccc" />
    <g
       transform="matrix(0.1,0,0,-0.1,0,1705)"
       fill="#000000"
       stroke="none"
       id="g126"
       style="stroke-width:10.1586">
      <path
         d="m 8972,17030 c -125,-27 -207,-114 -206,-219 1,-64 18,-103 66,-147 47,-45 80,-59 235,-104 76,-22 149,-48 163,-58 28,-21 39,-77 20,-112 -30,-56 -172,-79 -255,-41 -49,23 -71,46 -88,97 -12,32 -18,39 -41,38 -14,0 -53,-1 -86,-2 l -59,-2 6,-32 c 19,-106 88,-190 186,-226 153,-58 382,-28 464,60 55,58 77,163 52,239 -31,90 -107,140 -294,189 -131,35 -161,47 -188,78 -26,29 -18,63 22,89 28,19 47,23 108,23 94,0 128,-17 154,-76 l 20,-44 h 84 c 80,0 85,1 85,21 0,85 -69,173 -164,208 -67,25 -215,36 -284,21 z"
         id="path2"
         style="fill:#0a690b;fill-opacity:1;stroke-width:3.69402" />
      <path
         d="m 8373,17013 c -51,-4 -52,-5 -48,-31 3,-15 16,-189 30,-387 15,-198 28,-369 30,-380 4,-19 10,-20 84,-14 45,3 83,8 86,11 5,5 -34,573 -51,746 l -6,62 -37,-2 c -20,-1 -59,-3 -88,-5 z"
         id="path4"
         style="fill:#0a690b;fill-opacity:1;stroke-width:3.69402" />
      <path
         d="m 8017,16982 -108,-15 -157,-203 c -86,-111 -157,-202 -158,-201 -1,1 -12,81 -25,177 -12,96 -23,176 -24,177 -1,2 -41,-2 -89,-9 -87,-11 -88,-11 -83,-37 3,-14 26,-192 52,-396 26,-203 51,-374 55,-378 6,-7 158,8 167,16 1,2 -4,57 -13,121 l -15,118 40,51 c 22,29 51,65 64,81 l 24,29 148,-177 c 134,-160 150,-177 174,-172 14,3 62,10 105,16 44,6 81,12 83,14 2,2 -86,101 -197,221 -110,120 -200,222 -200,226 0,5 59,82 132,172 159,196 152,187 142,186 -5,-1 -58,-8 -117,-17 z"
         id="path6"
         style="fill:#0a690b;fill-opacity:1;stroke-width:3.69402" />
      <path
         d="m 9654,16930 c -3,-33 -6,-63 -6,-67 1,-5 55,-15 121,-23 66,-9 123,-19 127,-23 4,-4 -12,-154 -35,-333 -23,-180 -39,-330 -34,-334 4,-4 43,-12 85,-17 l 78,-9 5,30 c 3,17 23,168 45,335 21,167 40,305 42,306 2,2 58,-4 126,-12 67,-9 125,-13 128,-10 5,5 24,120 20,124 -1,1 -143,20 -316,43 -173,22 -329,42 -347,45 l -32,6 z"
         id="path8"
         style="fill:#0a690b;fill-opacity:1;stroke-width:3.69402" />
      <path
         d="m 10497,16448 -275,-343 76,-22 c 43,-12 84,-23 93,-23 9,0 42,34 73,75 31,41 60,75 64,75 17,0 328,-92 335,-99 4,-4 13,-51 19,-103 l 11,-96 86,-25 c 63,-17 87,-21 89,-12 4,18 -108,859 -116,867 -8,7 -152,48 -169,48 -6,0 -134,-154 -286,-342 z m 332,25 c 6,-60 14,-132 18,-162 5,-44 3,-53 -8,-49 -8,3 -60,18 -117,33 -74,21 -101,32 -98,42 8,19 180,243 187,243 3,0 11,-48 18,-107 z"
         id="path10"
         style="fill:#0a690b;fill-opacity:1;stroke-width:3.69402" />
      <path
         d="m 6687,16715 c -43,-12 -80,-25 -82,-27 -4,-4 -105,-828 -105,-857 0,-18 4,-17 82,5 44,13 84,26 87,30 3,3 11,49 16,101 l 10,96 173,49 c 96,28 175,48 176,46 58,-78 120,-148 132,-148 25,0 164,42 164,50 0,12 -551,675 -563,677 -7,1 -47,-9 -90,-22 z m 153,-301 c 50,-63 93,-121 96,-128 3,-9 -30,-23 -107,-45 -61,-18 -113,-30 -116,-28 -6,7 25,317 32,317 2,0 44,-52 95,-116 z"
         id="path12"
         style="fill:#0a690b;fill-opacity:1;stroke-width:3.69402" />
      <path
         d="m 11487,16558 c -55,-135 -287,-730 -287,-736 0,-10 139,-67 145,-60 3,3 94,230 186,466 10,25 12,25 18,7 4,-11 36,-153 71,-316 l 64,-295 80,-32 c 44,-18 83,-28 87,-24 3,4 66,160 139,347 73,187 139,354 146,372 l 14,31 -68,26 c -37,14 -72,26 -78,26 -6,0 -55,-113 -109,-250 -54,-138 -99,-249 -101,-247 -2,2 -33,140 -69,308 -36,167 -68,311 -70,319 -3,9 -38,28 -77,43 -83,31 -84,31 -91,15 z"
         id="path14"
         style="fill:#0a690b;fill-opacity:1;stroke-width:3.69402" />
      <path
         d="m 5950,16461 c -96,-35 -401,-176 -402,-186 -1,-14 326,-734 333,-735 3,0 40,16 82,35 l 76,35 -64,140 -64,140 123,59 c 188,89 249,157 250,277 0,83 -50,176 -116,217 -62,39 -142,45 -218,18 z m 107,-161 c 71,-43 63,-144 -15,-194 -40,-25 -169,-86 -182,-86 -13,0 -101,203 -92,212 20,20 190,87 222,87 19,1 49,-8 67,-19 z"
         id="path16"
         style="fill:#0a690b;fill-opacity:1;stroke-width:3.69402" />
      <path
         d="m 8550,15960 c -1333,-73 -2584,-555 -3634,-1399 -485,-390 -965,-909 -1311,-1421 -94,-138 -92,-137 71,60 224,269 583,623 874,861 574,469 1275,864 1987,1117 577,206 1136,325 1808,384 183,16 867,16 1050,0 672,-59 1231,-178 1808,-384 712,-253 1413,-648 1987,-1117 291,-238 650,-592 874,-861 163,-197 165,-198 71,-60 -346,512 -826,1031 -1311,1421 -994,800 -2171,1275 -3424,1384 -218,18 -645,26 -850,15 z"
         id="path18"
         style="fill:#0a690b;fill-opacity:1;stroke-width:3.69402" />
      <path
         d="m 4070,15433 c -704,-458 -1092,-766 -1586,-1258 -302,-301 -490,-512 -726,-815 C 324,11518 -266,9192 120,6905 354,5517 949,4204 1854,3080 2101,2773 2494,2357 2783,2097 3837,1147 5101,462 6477,95 c 92,-25 171,-45 175,-45 5,0 7,381 6,846 l -3,846 -250,82 C 5592,2093 4859,2475 4180,2983 1964,4643 797,7314 1086,10070 c 130,1245 563,2447 1257,3490 307,461 580,794 982,1196 256,257 410,396 626,569 128,102 157,125 149,124 -3,0 -16,-7 -30,-16 z"
         id="path20"
         style="fill:#0a690b;fill-opacity:1;stroke-width:3.69402" />
      <path
         d="m 13595,15442 c 6,-5 56,-47 113,-92 385,-304 802,-713 1139,-1117 1450,-1735 2071,-4042 1692,-6291 -349,-2078 -1518,-3916 -3264,-5129 -603,-419 -1269,-749 -1990,-989 l -250,-82 -3,-846 c -1,-465 1,-846 6,-846 18,0 352,92 507,140 1227,378 2336,1001 3309,1859 297,261 702,686 963,1008 1582,1949 2197,4436 1702,6873 -266,1304 -859,2546 -1718,3594 -264,323 -681,756 -971,1010 -287,252 -636,520 -940,723 -150,100 -310,201 -295,185 z"
         id="path22"
         style="fill:#0a690b;fill-opacity:1;stroke-width:3.69402" />
      <path
         d="m 8430,14829 c -1199,-96 -2304,-552 -3210,-1325 -148,-126 -489,-467 -614,-614 -681,-799 -1122,-1762 -1280,-2790 -23,-153 -47,-381 -60,-592 l -6,-88 h 2700 2700 v 2710 2710 l -62,-1 c -35,-1 -110,-6 -168,-10 z m -1658,-955 c 604,-78 1138,-415 1489,-939 88,-132 200,-363 252,-522 83,-255 111,-433 111,-708 0,-275 -33,-485 -115,-723 -277,-802 -947,-1352 -1769,-1452 -109,-13 -341,-13 -450,0 -778,94 -1434,606 -1729,1348 -180,451 -205,976 -71,1445 243,845 953,1458 1800,1556 125,14 350,12 482,-5 z"
         id="path24"
         style="fill:#0a690b;fill-opacity:1;stroke-width:3.69402" />
      <path
         d="m 6242,13705 c -784,-119 -1418,-711 -1612,-1505 -42,-174 -55,-286 -55,-495 0,-209 13,-321 55,-495 178,-723 718,-1284 1413,-1464 281,-73 641,-77 912,-10 555,138 1023,513 1282,1029 98,193 161,389 200,610 24,141 24,519 0,660 -147,849 -755,1493 -1563,1656 -141,28 -488,36 -632,14 z m 368,-86 c 208,-25 382,-78 565,-169 355,-178 656,-499 816,-870 90,-209 137,-418 146,-651 26,-656 -290,-1260 -837,-1600 -242,-150 -516,-233 -810,-245 -673,-28 -1300,359 -1599,987 -206,433 -234,915 -80,1377 42,127 155,348 232,455 266,368 649,617 1074,696 59,11 126,22 148,24 91,8 266,6 345,-4 z"
         id="path26"
         style="fill:#0a690b;fill-opacity:1;stroke-width:3.69402" />
      <path
         d="m 6275,13494 c -223,-32 -375,-77 -540,-159 -307,-154 -558,-408 -714,-722 -377,-756 -139,-1682 552,-2144 164,-110 348,-185 557,-230 152,-33 427,-33 585,-1 690,138 1198,702 1286,1426 16,136 6,391 -21,521 -12,55 -39,152 -60,216 -181,544 -634,952 -1188,1069 -94,20 -380,35 -457,24 z m 252,-100 c 150,-22 261,-56 400,-124 773,-377 1040,-1382 560,-2108 -219,-331 -549,-552 -922,-616 -118,-21 -343,-21 -460,0 -275,48 -535,184 -735,384 -207,207 -338,453 -401,750 -29,139 -32,407 -6,550 82,441 362,825 746,1023 58,30 138,66 177,80 69,25 235,63 304,70 90,9 242,6 337,-9 z"
         id="path28"
         style="fill:#0a690b;fill-opacity:1;stroke-width:3.69402" />
      <path
         d="m 6156,13290 c -198,-31 -421,-126 -577,-244 -454,-344 -642,-959 -459,-1507 45,-135 82,-212 155,-324 156,-237 379,-414 643,-509 258,-92 576,-92 834,0 352,127 643,416 777,774 166,442 96,936 -186,1311 -180,240 -418,398 -714,474 -86,22 -131,27 -259,30 -85,2 -181,0 -214,-5 z m 301,-95 c 368,-70 684,-331 823,-680 130,-322 117,-674 -35,-975 -149,-294 -407,-507 -714,-587 -128,-34 -318,-42 -446,-19 -223,38 -406,131 -569,286 -372,353 -470,905 -241,1365 63,127 116,200 218,304 153,155 337,256 547,301 108,24 308,26 417,5 z"
         id="path30"
         style="fill:#0a690b;fill-opacity:1;stroke-width:3.69402" />
      <path
         d="m 6061,13115 c -98,-22 -158,-43 -253,-92 -651,-333 -775,-1240 -239,-1746 126,-118 254,-191 426,-243 82,-25 105,-27 260,-28 148,-1 181,2 255,22 188,52 342,144 481,290 190,199 284,424 296,707 22,526 -328,986 -830,1089 -94,20 -307,20 -396,1 z"
         id="path32"
         style="fill:#0a690b;fill-opacity:1;stroke-width:3.69402" />
      <path
         d="M 9030,12130 V 9420 h 811 811 l -16,23 c -160,224 -178,403 -58,602 20,33 74,112 120,175 167,228 206,317 205,470 0,150 -58,289 -198,475 -78,104 -87,131 -57,158 37,34 66,22 124,-50 258,-321 320,-588 198,-850 -31,-67 -76,-136 -188,-288 -40,-55 -90,-133 -110,-174 -35,-72 -37,-80 -37,-176 0,-93 3,-104 32,-160 17,-33 55,-93 84,-132 l 54,-73 h 273 273 l -21,30 c -32,45 -86,167 -106,240 -12,44 -17,99 -17,170 1,173 48,291 237,595 164,264 201,370 194,555 -4,94 -10,129 -34,195 -52,142 -146,288 -287,445 -70,77 -80,105 -49,133 34,31 65,21 123,-40 183,-194 315,-412 359,-594 54,-227 2,-426 -195,-739 -106,-168 -188,-331 -208,-412 -42,-168 -11,-326 101,-515 l 37,-63 h 193 c 169,0 192,2 192,16 0,9 29,48 65,86 145,157 252,326 305,485 63,185 51,391 -30,557 -17,34 -52,88 -78,120 -26,32 -56,69 -66,82 -16,20 -18,28 -8,49 13,28 46,45 75,37 32,-8 134,-142 182,-237 69,-138 89,-229 83,-395 -6,-149 -28,-236 -95,-378 -44,-92 -154,-256 -233,-347 l -61,-70 1207,-3 c 664,-1 1209,-1 1211,1 5,6 -16,303 -33,452 -84,747 -318,1472 -687,2125 -877,1553 -2452,2603 -4207,2804 -150,18 -372,36 -431,36 h -39 z"
         id="path34"
         style="fill:#0a690b;fill-opacity:1;stroke-width:3.69402" />
      <path
         d="m 14858,11871 -196,-6 14,-34 14,-33 206,4 c 202,3 205,3 183,-15 -13,-10 -83,-71 -155,-134 l -131,-115 15,-40 15,-39 26,24 c 14,13 101,92 193,175 l 166,152 h 49 c 59,0 88,-18 103,-65 11,-35 12,-35 41,-20 16,9 29,22 29,31 0,34 -30,84 -62,101 -38,20 -167,24 -510,14 z"
         id="path36"
         style="fill:#0a690b;fill-opacity:1;stroke-width:3.69402" />
      <path
         d="m 2512,11773 c -6,-20 -10,-38 -9,-38 1,-1 112,-39 245,-85 137,-47 238,-86 230,-90 -7,-4 -144,-42 -304,-85 l -292,-78 -12,-39 c -6,-22 -9,-42 -7,-44 2,-3 144,-51 315,-108 l 311,-104 12,35 c 6,19 8,37 5,40 -4,4 -115,44 -249,89 l -242,82 50,14 c 28,8 166,46 307,84 l 258,69 14,42 14,42 -306,102 c -169,56 -312,104 -318,106 -6,2 -16,-13 -22,-34 z"
         id="path38"
         style="fill:#0a690b;fill-opacity:1;stroke-width:3.69402" />
      <path
         d="m 15348,11317 c -25,-10 -27,-14 -22,-47 4,-24 1,-40 -8,-47 -18,-15 -306,-96 -317,-89 -4,3 -11,19 -14,36 -4,20 -12,30 -24,30 -35,0 -43,-14 -33,-50 5,-18 7,-36 4,-39 -3,-3 -39,-15 -80,-26 l -74,-21 33,-32 33,-32 50,15 c 64,19 74,19 74,-4 0,-26 13,-33 44,-25 21,5 23,9 16,35 -9,32 -25,25 220,95 140,39 159,53 160,112 0,28 -24,104 -32,101 -2,-1 -15,-6 -30,-12 z"
         id="path40"
         style="fill:#0a690b;fill-opacity:1;stroke-width:3.69402" />
      <path
         d="m 2309,10890 c -47,-13 -69,-30 -90,-72 -29,-56 -35,-132 -15,-188 21,-59 21,-60 -13,-60 -24,0 -29,-5 -35,-31 -9,-48 -9,-49 39,-49 25,0 106,-13 180,-30 74,-16 147,-30 162,-30 74,0 130,81 140,200 7,81 -8,130 -48,165 -40,33 -54,32 -65,-6 -8,-28 -6,-35 23,-64 36,-36 40,-63 22,-129 -20,-72 -85,-108 -133,-73 -16,11 -16,23 -8,116 11,124 2,178 -37,215 -32,31 -84,46 -122,36 z m 77,-105 c 24,-24 25,-29 22,-135 -3,-122 -5,-124 -71,-96 -52,22 -79,59 -85,116 -10,111 69,180 134,115 z"
         id="path42"
         style="fill:#0a690b;fill-opacity:1;stroke-width:3.69402" />
      <path
         d="m 15295,10686 -220,-52 3,-34 c 1,-19 5,-36 7,-39 5,-4 456,97 463,104 8,8 -11,75 -22,74 -6,-1 -110,-25 -231,-53 z"
         id="path44"
         style="fill:#0a690b;fill-opacity:1;stroke-width:3.69402" />
      <path
         d="m 14921,10599 c -31,-9 -33,-13 -27,-41 8,-41 8,-41 56,-33 37,6 41,10 36,29 -3,11 -6,29 -6,39 0,19 -9,20 -59,6 z"
         id="path46"
         style="stroke-width:3.69402" />
      <path
         d="m 15144,10223 c -10,-51 5,-84 50,-113 l 39,-25 -29,-5 c -24,-4 -30,-11 -32,-38 -4,-40 -17,-40 261,-5 l 217,26 v 26 c 0,52 -6,54 -136,37 -65,-9 -145,-16 -177,-16 -52,0 -62,3 -89,30 -27,27 -30,36 -24,69 6,37 5,39 -25,45 -47,9 -48,9 -55,-31 z"
         id="path48"
         style="fill:#0a690b;fill-opacity:1;stroke-width:3.69402" />
      <path
         d="m 2515,10065 c -3,-8 -7,-21 -9,-28 -3,-11 -29,-10 -137,5 -140,18 -226,22 -254,12 -24,-9 -45,-58 -45,-104 0,-39 1,-40 35,-40 30,0 35,3 35,23 0,46 11,51 107,43 48,-4 124,-13 168,-19 l 80,-12 -3,-42 c -3,-42 -3,-43 27,-43 27,0 31,4 31,28 0,48 8,52 89,41 40,-6 75,-8 77,-6 2,2 -2,20 -11,40 -13,32 -19,36 -62,42 -70,9 -73,11 -73,45 0,25 -4,30 -25,30 -14,0 -28,-7 -30,-15 z"
         id="path50"
         style="fill:#0a690b;fill-opacity:1;stroke-width:3.69402" />
      <path
         d="m 15335,9641 c -86,-39 -125,-103 -125,-203 1,-146 85,-223 246,-222 89,0 152,23 198,74 98,109 58,298 -76,355 -54,22 -191,20 -243,-4 z m 235,-81 c 89,-45 98,-180 15,-234 -72,-47 -212,-42 -268,10 -73,68 -58,176 30,223 53,28 169,29 223,1 z"
         id="path52"
         style="fill:#0a690b;fill-opacity:1;stroke-width:3.69402" />
      <path
         d="m 2044,9531 c -2,-2 -4,-19 -4,-36 v -32 l 98,-6 c 53,-4 161,-7 238,-7 150,0 154,1 154,50 0,15 -11,19 -62,24 -80,7 -418,13 -424,7 z"
         id="path54"
         style="fill:#0a690b;fill-opacity:1;stroke-width:3.69402" />
      <path
         d="m 2620,9480 v -40 h 45 45 v 40 40 h -45 -45 z"
         id="path56"
         style="fill:#0a690b;fill-opacity:1;stroke-width:3.69402" />
      <path
         d="m 2176,9060 c -60,-23 -90,-50 -116,-105 -42,-87 -12,-222 61,-278 75,-57 208,-61 308,-10 45,23 60,37 83,82 64,121 16,265 -104,315 -53,22 -170,20 -232,-4 z m 223,-78 c 51,-25 76,-65 76,-120 0,-88 -63,-140 -181,-150 -112,-9 -187,46 -188,140 -1,58 23,94 84,126 56,28 158,31 209,4 z"
         id="path58"
         style="fill:#0a690b;fill-opacity:1;stroke-width:3.69402" />
      <path
         d="M 9030,7884 V 6707 l 40,46 c 71,81 156,115 204,84 22,-15 23,-21 19,-84 -3,-37 0,-80 6,-95 l 11,-28 h 274 c 302,0 360,7 401,48 23,23 26,33 22,66 -5,32 -19,53 -75,110 -76,77 -102,119 -102,163 0,90 135,141 287,109 180,-37 288,-136 348,-316 15,-44 38,-94 52,-110 l 25,-30 h 166 c 235,0 338,26 420,104 45,42 64,80 64,131 0,93 -61,157 -309,322 -196,132 -221,159 -208,231 13,81 99,147 232,178 85,20 308,14 398,-11 159,-44 366,-172 481,-298 114,-125 165,-216 235,-420 54,-157 86,-212 134,-233 241,-100 511,325 397,624 -64,167 -230,283 -562,392 -163,53 -214,81 -243,129 -22,38 -22,64 3,86 19,17 27,18 91,7 155,-27 261,-6 294,58 13,26 14,35 3,57 -16,33 -63,66 -126,89 -226,83 -276,110 -318,173 -15,23 -29,61 -32,86 -4,41 -1,50 23,76 69,71 213,94 545,86 382,-9 648,-65 917,-192 468,-222 718,-585 749,-1090 7,-116 -7,-311 -31,-425 -7,-36 -12,-66 -11,-68 4,-4 111,235 171,383 220,539 354,1135 395,1750 5,83 10,153 10,158 0,4 -1215,7 -2700,7 H 9030 Z"
         id="path60"
         style="fill:#0a690b;fill-opacity:1;stroke-width:3.69402" />
      <path
         d="m 15280,8839 c -60,-24 -90,-76 -91,-154 -1,-39 5,-65 20,-90 12,-20 21,-39 21,-42 0,-3 -52,-2 -115,2 l -115,7 v -39 -38 l 308,-23 c 169,-12 317,-22 330,-22 18,0 22,5 22,34 0,42 -1,43 -145,51 -146,8 -196,20 -230,55 -52,54 -39,157 23,181 19,8 76,7 196,-1 183,-14 189,-12 184,40 -3,25 -4,25 -148,37 -180,14 -228,14 -260,2 z"
         id="path62"
         style="fill:#0a690b;fill-opacity:1;stroke-width:3.69402" />
      <path
         d="m 2326,8260 c -114,-21 -210,-40 -211,-42 -2,-2 0,-19 4,-38 5,-22 13,-34 22,-33 8,1 80,14 161,28 126,21 153,23 184,12 92,-30 113,-164 32,-202 -18,-9 -103,-28 -188,-44 l -155,-28 2,-32 c 0,-18 4,-35 7,-38 10,-10 348,56 385,75 91,46 95,189 9,273 -39,38 -40,39 -15,39 32,0 37,7 30,43 -7,35 -5,35 -267,-13 z"
         id="path64"
         style="fill:#0a690b;fill-opacity:1;stroke-width:3.69402" />
      <path
         d="m 4873,7908 c -106,-189 -195,-350 -198,-360 -5,-12 16,-29 97,-74 198,-113 208,-135 162,-376 -8,-42 -14,-105 -12,-139 l 3,-63 115,-89 c 63,-48 120,-100 127,-115 7,-15 12,-72 13,-128 0,-85 -3,-103 -18,-117 -23,-21 -36,-21 -56,-1 -12,12 -16,38 -16,114 v 98 l -107,84 c -58,45 -115,95 -126,110 -31,42 -33,121 -6,278 17,102 21,146 13,167 -7,21 -37,44 -124,94 -63,37 -118,64 -121,60 -6,-5 -548,-970 -578,-1028 -10,-19 -4,-34 44,-113 129,-214 351,-520 515,-710 673,-783 1532,-1361 2500,-1681 471,-155 904,-236 1468,-274 l 92,-6 v 1284 1285 l -351,623 c -193,343 -354,627 -358,631 -5,6 -140,-66 -228,-121 -18,-12 -36,-33 -39,-48 -4,-15 3,-90 16,-169 25,-157 24,-231 -7,-272 -11,-15 -68,-65 -126,-110 l -107,-84 v -98 c 0,-76 -4,-102 -16,-114 -20,-21 -37,-20 -57,2 -14,15 -17,39 -17,118 1,55 6,111 13,126 7,15 64,67 127,115 l 115,89 3,57 c 2,32 -4,95 -12,140 -35,194 -30,244 27,294 18,15 83,57 145,92 61,36 112,68 112,71 0,4 -37,72 -81,151 -45,79 -133,236 -197,348 l -115,204 -24,-47 c -13,-26 -210,-469 -438,-984 -227,-516 -418,-949 -425,-964 -7,-15 -21,-30 -31,-33 -24,-8 -59,12 -59,33 0,10 73,182 161,382 89,201 162,370 162,375 0,15 -486,1135 -493,1135 -5,0 -320,-552 -320,-562 0,-3 31,-29 70,-58 106,-79 114,-93 120,-228 l 5,-114 73,-23 c 147,-46 162,-70 162,-251 0,-105 -3,-134 -15,-144 -12,-10 -18,-10 -30,0 -12,10 -13,32 -8,119 7,119 -3,168 -39,190 -13,8 -61,27 -108,41 l -85,27 -5,124 c -4,77 -11,132 -19,144 -14,22 -135,115 -149,115 -4,0 -72,-113 -149,-250 l -142,-250 150,-334 c 82,-183 149,-342 149,-354 0,-30 -35,-47 -61,-30 -12,8 -83,152 -175,358 -85,190 -279,623 -431,963 -152,339 -279,617 -282,617 -3,0 -92,-154 -198,-342 z"
         id="path66"
         style="fill:#0a690b;fill-opacity:1;stroke-width:3.69402" />
      <path
         d="m 15116,8101 -6,-39 -76,15 c -42,8 -78,12 -81,9 -9,-9 21,-76 36,-80 9,-3 35,-8 59,-11 40,-6 42,-8 42,-41 0,-31 3,-34 30,-34 25,0 30,4 30,25 0,31 -2,31 177,-1 79,-14 162,-24 185,-22 51,4 78,36 85,102 l 6,46 h -35 c -31,0 -36,-3 -42,-30 -10,-50 -12,-50 -269,-3 l -88,16 7,43 c 6,44 6,44 -24,44 -27,0 -30,-4 -36,-39 z"
         id="path68"
         style="fill:#0a690b;fill-opacity:1;stroke-width:3.69402" />
      <path
         d="m 14995,7564 c -3,-20 -5,-37 -3,-39 2,-1 46,-15 98,-29 243,-68 270,-86 270,-178 0,-41 -5,-54 -29,-79 -19,-19 -40,-29 -59,-29 -23,0 -199,45 -334,86 -12,3 -19,-5 -28,-31 -7,-20 -10,-38 -8,-39 14,-11 346,-96 376,-96 110,0 184,151 124,253 -22,39 -19,43 22,28 22,-9 26,-7 35,21 6,17 9,33 7,35 -3,3 -451,133 -460,133 -2,0 -7,-16 -11,-36 z"
         id="path70"
         style="fill:#0a690b;fill-opacity:1;stroke-width:3.69402" />
      <path
         d="m 2618,7490 c 4,-37 6,-40 34,-40 65,0 128,-121 96,-187 -15,-31 -61,-58 -84,-49 -8,3 -35,50 -60,103 -48,103 -72,136 -116,159 -82,43 -188,-27 -188,-123 0,-54 37,-136 80,-178 l 40,-40 -21,-16 c -18,-13 -21,-22 -15,-53 8,-41 9,-41 39,-22 12,8 95,37 185,64 89,27 171,57 182,67 51,46 44,171 -14,267 -34,56 -82,88 -131,88 -30,0 -30,-1 -27,-40 z m -134,-102 c 31,-29 118,-196 105,-204 -5,-3 -33,-8 -62,-10 -65,-6 -107,17 -137,75 -33,66 -23,132 23,151 34,14 44,12 71,-12 z"
         id="path72"
         style="fill:#0a690b;fill-opacity:1;stroke-width:3.69402" />
      <path
         d="m 2860,6776 c -168,-66 -307,-121 -308,-122 -2,-2 1,-19 8,-39 9,-27 16,-35 29,-30 207,77 601,240 601,248 -1,7 -6,24 -13,38 l -12,26 z"
         id="path74"
         style="fill:#0a690b;fill-opacity:1;stroke-width:3.69402" />
      <path
         d="m 14506,6742 -19,-41 141,-148 c 77,-82 190,-197 251,-258 l 110,-109 16,37 c 8,20 15,40 15,44 0,4 -33,41 -74,83 l -74,75 57,125 57,125 110,-3 109,-4 18,36 c 9,20 17,40 17,45 0,4 -93,11 -207,15 -115,3 -276,9 -358,13 l -151,6 z m 272,-48 c 72,-4 132,-11 132,-15 0,-19 -91,-200 -99,-197 -5,1 -62,54 -127,117 -117,114 -117,114 -78,108 21,-3 99,-9 172,-13 z"
         id="path76"
         style="fill:#0a690b;fill-opacity:1;stroke-width:3.69402" />
      <path
         d="M 9030,4995 V 3640 l 98,6 c 53,3 167,12 252,20 1140,107 2220,567 3105,1325 265,227 604,590 825,884 73,97 286,410 311,458 9,16 -103,17 -2291,17 H 9030 Z"
         id="path78"
         style="fill:#0a690b;fill-opacity:1;stroke-width:3.69402" />
      <path
         d="m 3172,6121 c -150,-87 -277,-162 -282,-167 -9,-9 102,-209 155,-278 15,-20 49,-49 74,-64 40,-23 57,-27 126,-27 71,0 88,4 157,37 146,69 228,174 228,290 0,50 -7,71 -48,150 -65,124 -121,218 -130,218 -4,-1 -130,-72 -280,-159 z m 324,-56 c 61,-113 68,-159 35,-224 -37,-71 -135,-140 -238,-166 -71,-18 -121,-10 -167,26 -28,22 -142,207 -133,216 15,15 433,252 441,250 5,-2 33,-48 62,-102 z"
         id="path80"
         style="fill:#0a690b;fill-opacity:1;stroke-width:3.69402" />
      <path
         d="m 14140,5962 c 0,-45 2,-50 38,-70 68,-39 66,-37 48,-65 -16,-24 -16,-26 6,-41 22,-16 24,-15 43,8 l 20,24 145,-93 c 158,-102 176,-110 214,-95 23,8 86,82 86,100 0,4 -14,13 -30,20 -28,12 -32,10 -51,-14 -11,-14 -28,-26 -36,-26 -16,0 -283,168 -283,177 0,3 9,20 20,38 l 20,32 -26,14 c -27,14 -35,9 -63,-40 -7,-12 -13,-11 -37,6 -16,11 -48,32 -71,47 l -43,26 z"
         id="path82"
         style="fill:#0a690b;fill-opacity:1;stroke-width:3.69402" />
      <path
         d="m 3886,5527 c -24,-20 -27,-26 -18,-43 22,-42 36,-45 71,-16 l 33,27 -22,28 c -26,33 -28,33 -64,4 z"
         id="path84"
         style="stroke-width:3.69402" />
      <path
         d="m 13975,5451 c -69,-42 -114,-128 -99,-193 l 6,-31 -28,22 -28,22 -22,-28 c -12,-15 -19,-31 -16,-34 27,-23 371,-289 374,-289 2,0 14,13 26,30 l 22,29 -114,91 c -146,116 -166,139 -166,195 0,35 6,52 30,79 37,42 71,51 113,31 18,-8 88,-59 156,-114 l 125,-98 23,28 c 13,15 23,29 23,32 0,9 -263,211 -299,229 -45,23 -88,23 -126,-1 z"
         id="path86"
         style="fill:#0a690b;fill-opacity:1;stroke-width:3.69402" />
      <path
         d="m 3588,5292 c -173,-136 -186,-148 -174,-166 30,-46 35,-44 224,104 100,79 182,149 182,155 0,6 -10,21 -23,33 l -22,21 z"
         id="path88"
         style="fill:#0a690b;fill-opacity:1;stroke-width:3.69402" />
      <path
         d="m 3976,5021 c -71,-47 -73,-101 -6,-232 28,-54 50,-109 50,-122 0,-33 -24,-51 -67,-51 -29,0 -43,8 -79,46 -35,38 -44,54 -44,83 0,20 5,46 11,57 9,17 7,24 -17,44 -27,21 -30,22 -42,6 -42,-55 -34,-141 19,-208 90,-114 216,-132 283,-41 33,45 25,90 -34,206 -44,87 -51,108 -44,130 19,55 113,30 149,-39 18,-34 20,-81 4,-97 -7,-7 -2,-17 19,-32 17,-11 33,-21 37,-21 14,0 36,75 31,105 -10,51 -62,123 -113,155 -56,36 -113,40 -157,11 z"
         id="path90"
         style="fill:#0a690b;fill-opacity:1;stroke-width:3.69402" />
      <path
         d="m 13510,4860 c -101,-18 -180,-111 -180,-214 0,-83 84,-202 174,-245 89,-44 191,-19 263,63 50,57 70,124 54,182 -18,63 -23,66 -58,38 -29,-22 -30,-26 -21,-58 16,-51 3,-100 -37,-135 -57,-49 -131,-51 -193,-3 l -22,17 124,131 125,131 -27,25 c -62,56 -132,80 -202,68 z m 99,-89 c 11,-7 21,-15 21,-19 -1,-4 -41,-50 -91,-102 l -90,-95 -19,24 c -44,52 -37,127 16,177 46,44 99,49 163,15 z"
         id="path92"
         style="fill:#0a690b;fill-opacity:1;stroke-width:3.69402" />
      <path
         d="m 4498,4494 c -34,-18 -35,-24 -4,-53 20,-19 28,-21 44,-12 12,6 34,11 50,11 61,0 149,-90 137,-139 -6,-25 -36,-70 -46,-71 -3,0 -50,28 -105,62 -85,54 -107,63 -156,66 -57,4 -59,3 -99,-37 -40,-40 -41,-43 -37,-95 8,-97 73,-152 211,-181 20,-4 27,-10 23,-20 -3,-8 -9,-21 -12,-29 -3,-8 7,-22 24,-35 l 30,-21 26,42 c 14,24 65,89 114,146 101,116 117,145 107,198 -8,46 -90,135 -149,164 -50,23 -119,26 -158,4 z m 21,-243 c 35,-22 77,-45 93,-52 l 28,-11 -21,-29 c -42,-60 -125,-76 -189,-38 -71,42 -90,101 -48,146 31,33 64,29 137,-16 z"
         id="path94"
         style="fill:#0a690b;fill-opacity:1;stroke-width:3.69402" />
      <path
         d="m 12935,4355 c -59,-21 -102,-70 -116,-130 l -12,-53 -33,10 c -79,21 -183,-66 -184,-154 l -1,-33 -24,27 -24,28 -26,-23 -27,-23 147,-187 c 81,-103 150,-187 153,-187 4,1 19,11 33,23 l 27,22 -94,120 c -52,66 -101,139 -110,162 -15,39 -15,44 2,80 11,20 34,46 52,57 31,17 36,18 65,4 20,-10 72,-67 137,-151 58,-75 110,-136 116,-137 6,0 21,11 33,24 l 22,24 -96,123 c -102,130 -115,152 -115,201 0,44 56,98 103,98 40,0 54,-14 187,-182 46,-60 87,-108 91,-108 4,0 19,10 33,23 l 26,22 -110,140 c -146,184 -177,206 -255,180 z"
         id="path96"
         style="fill:#0a690b;fill-opacity:1;stroke-width:3.69402" />
      <path
         d="m 5108,4022 c -38,-23 -62,-76 -55,-120 4,-21 28,-63 64,-109 32,-40 64,-84 72,-97 34,-55 -26,-112 -90,-85 -76,31 -120,99 -99,153 9,24 7,28 -25,43 -19,9 -38,14 -42,10 -15,-16 -15,-114 0,-144 20,-38 90,-101 133,-119 84,-35 182,-6 211,63 21,52 6,96 -68,188 -74,94 -85,115 -70,144 19,34 55,37 106,7 52,-31 79,-75 70,-115 -5,-23 -1,-29 29,-43 33,-16 34,-16 40,5 22,81 -16,155 -106,207 -61,35 -127,40 -170,12 z"
         id="path98"
         style="fill:#0a690b;fill-opacity:1;stroke-width:3.69402" />
      <path
         d="m 5865,3793 c -24,-3 -36,-14 -58,-54 l -28,-51 -25,17 c -14,9 -27,15 -29,13 -15,-18 -26,-53 -18,-55 6,-2 17,-9 26,-16 13,-10 4,-32 -74,-166 -100,-172 -107,-201 -61,-243 28,-26 64,-48 80,-48 5,0 14,12 21,26 10,23 8,29 -19,54 -31,29 -31,29 -14,62 48,94 147,258 155,258 6,0 23,-7 39,-15 26,-14 29,-13 44,9 15,24 14,25 -20,45 l -35,21 17,32 c 9,18 28,50 41,70 33,53 35,51 -42,41 z"
         id="path100"
         style="fill:#0a690b;fill-opacity:1;stroke-width:3.69402" />
      <path
         d="m 12020,3733 c -149,-78 -161,-260 -26,-399 82,-84 167,-94 274,-34 67,39 104,94 110,164 2,30 0,56 -5,59 -6,4 -24,1 -40,-5 -27,-10 -31,-17 -35,-60 -8,-81 -84,-139 -161,-124 -37,7 -107,60 -107,81 0,8 68,53 150,100 83,48 150,90 150,94 0,5 -13,27 -30,49 -72,99 -179,128 -280,75 z m 178,-79 c 20,-19 33,-38 27,-40 -5,-2 -59,-33 -120,-68 l -110,-64 -13,31 c -20,46 -7,95 38,139 34,34 43,38 89,38 45,0 56,-4 89,-36 z"
         id="path102"
         style="fill:#0a690b;fill-opacity:1;stroke-width:3.69402" />
      <path
         d="m 11497,3448 c -25,-9 -27,-14 -22,-39 6,-28 6,-29 -20,-19 -122,46 -252,-49 -254,-186 -2,-94 54,-205 129,-255 81,-54 205,-31 255,48 11,18 23,32 26,33 9,0 32,-78 32,-111 0,-62 -71,-119 -149,-119 -27,0 -47,6 -58,19 -13,14 -24,17 -48,12 -43,-9 -45,-23 -9,-63 28,-32 32,-33 103,-33 165,1 264,110 229,251 -13,51 -169,455 -179,465 -4,4 -20,2 -35,-3 z m -37,-123 c 84,-43 137,-200 94,-275 -36,-59 -119,-78 -182,-40 -70,43 -114,198 -77,270 29,55 105,76 165,45 z"
         id="path104"
         style="fill:#0a690b;fill-opacity:1;stroke-width:3.69402" />
      <path
         d="m 6263,3411 c -85,-21 -150,-92 -183,-199 -37,-116 -2,-211 97,-265 94,-51 195,-44 253,18 l 22,24 -32,19 -32,20 -35,-24 c -98,-66 -226,21 -208,142 3,25 12,47 19,50 7,3 81,-27 165,-65 85,-39 157,-68 162,-65 13,7 39,103 39,141 0,125 -143,234 -267,204 z m 132,-85 c 39,-26 58,-63 57,-111 0,-24 -3,-48 -6,-54 -4,-6 -31,1 -69,18 -34,16 -91,41 -125,57 l -64,29 23,29 c 43,55 127,70 184,32 z"
         id="path106"
         style="fill:#0a690b;fill-opacity:1;stroke-width:3.69402" />
      <path
         d="m 6891,3123 c -77,-262 -110,-388 -103,-395 4,-4 21,-10 37,-14 l 30,-5 34,123 c 43,155 62,200 96,226 33,26 55,27 96,6 28,-14 31,-14 49,8 26,31 22,47 -20,70 -42,22 -84,18 -117,-14 -28,-26 -37,-20 -23,16 9,24 7,28 -16,36 -40,16 -42,14 -63,-57 z"
         id="path108"
         style="fill:#0a690b;fill-opacity:1;stroke-width:3.69402" />
      <path
         d="m 10617,3140 c -99,-31 -157,-91 -157,-160 0,-30 2,-31 38,-28 34,3 37,6 40,35 5,55 77,103 155,103 33,0 74,-37 83,-72 6,-26 2,-29 -112,-85 -127,-63 -152,-86 -161,-150 -12,-91 66,-163 160,-148 61,11 132,50 163,91 l 28,36 13,-26 c 15,-28 28,-31 67,-16 l 26,9 -19,33 c -10,18 -38,98 -61,178 -47,165 -58,186 -105,206 -45,18 -87,17 -158,-6 z m 192,-247 c 16,-56 14,-76 -11,-113 -32,-47 -68,-71 -116,-77 -49,-7 -86,13 -96,51 -12,48 8,72 106,124 51,27 96,50 100,51 4,0 12,-16 17,-36 z"
         id="path110"
         style="fill:#0a690b;fill-opacity:1;stroke-width:3.69402" />
      <path
         d="m 7935,3115 c -4,-14 -45,-593 -45,-627 0,-26 3,-28 40,-28 38,0 40,1 40,33 1,58 37,508 42,512 3,3 38,-123 78,-279 l 72,-284 39,-4 39,-4 44,101 c 24,55 76,175 116,267 41,93 75,166 77,164 2,-1 -6,-123 -17,-271 -12,-147 -20,-269 -18,-270 2,-1 20,-5 41,-9 24,-5 37,-3 37,4 0,6 11,155 25,332 14,177 24,322 23,324 -2,1 -27,4 -57,5 -48,3 -55,0 -66,-22 -14,-26 -200,-456 -216,-497 -5,-14 -12,-22 -15,-19 -3,3 -38,133 -77,289 l -72,283 -64,5 c -38,3 -65,1 -66,-5 z"
         id="path112"
         style="fill:#0a690b;fill-opacity:1;stroke-width:3.69402" />
      <path
         d="m 9843,2959 c -23,-11 -51,-34 -61,-51 l -20,-31 -7,32 c -5,23 -12,31 -28,31 -48,0 -48,-4 -4,-249 l 42,-233 34,6 c 18,3 35,7 38,9 2,3 -7,69 -21,148 -29,161 -31,194 -12,227 29,53 116,79 168,51 29,-16 42,-57 73,-231 l 28,-156 36,5 c 20,3 37,7 38,8 7,5 -60,346 -74,379 -10,21 -31,47 -48,57 -42,26 -128,25 -182,-2 z"
         id="path114"
         style="fill:#0a690b;fill-opacity:1;stroke-width:3.69402" />
      <path
         d="m 9045,2888 c -48,-17 -81,-45 -99,-82 -23,-48 -21,-53 20,-58 33,-4 37,-1 55,33 47,93 229,71 229,-27 0,-18 -4,-36 -10,-39 -5,-3 -58,-15 -117,-26 -122,-23 -164,-44 -187,-93 -49,-104 19,-196 146,-196 52,0 147,34 162,59 11,18 21,13 32,-17 10,-25 15,-28 48,-24 30,3 36,8 30,21 -4,9 -12,97 -18,196 -12,201 -20,225 -81,251 -40,16 -166,17 -210,2 z m 211,-289 c -9,-64 -28,-95 -77,-120 -59,-29 -114,-25 -151,11 -24,25 -29,36 -24,58 10,39 39,59 104,72 31,6 71,15 87,20 65,18 68,15 61,-41 z"
         id="path116"
         style="fill:#0a690b;fill-opacity:1;stroke-width:3.69402" />
      <path
         d="M 6960,800 V 0 h 90 90 l 2,522 3,522 179,-485 C 7422,293 7510,58 7518,38 l 14,-38 h 94 94 v 800 800 h -85 -85 v -531 c 0,-291 -4,-528 -8,-525 -5,3 -95,241 -202,530 l -193,526 h -94 -93 z"
         id="path118"
         style="fill:#0a690b;fill-opacity:1;stroke-width:3.69402" />
      <path
         d="M 7930,800 V -2 l 233,4 c 226,3 233,4 288,30 80,37 134,95 181,194 64,138 88,265 95,496 6,224 -6,371 -43,508 -45,171 -125,294 -222,342 -45,22 -59,23 -289,26 l -243,4 z m 477,498 c 50,-33 86,-102 109,-208 13,-56 17,-129 17,-285 0,-281 -22,-401 -90,-476 -44,-49 -81,-59 -215,-59 h -108 v 531 531 l 123,-4 c 115,-3 127,-5 164,-30 z"
         id="path120"
         style="fill:#0a690b;fill-opacity:1;stroke-width:3.69402" />
      <path
         d="M 8900,800 V 0 h 90 90 l 2,618 3,617 89,-595 c 48,-327 90,-605 93,-617 5,-22 10,-23 94,-23 84,0 89,1 94,23 3,12 43,278 90,592 47,314 89,584 94,600 6,19 9,-202 10,-592 l 1,-623 h 85 85 v 800 800 h -143 -143 l -84,-541 c -49,-318 -87,-534 -91,-523 -4,11 -42,240 -84,509 -42,270 -78,505 -82,523 l -5,32 h -144 -144 z"
         id="path122"
         style="fill:#0a690b;fill-opacity:1;stroke-width:3.69402" />
      <path
         d="m 10295,1588 c -8,-25 -365,-1564 -365,-1576 0,-9 28,-12 98,-12 h 98 l 40,183 40,182 189,3 c 104,1 192,-1 196,-5 4,-5 24,-80 44,-168 20,-88 38,-168 41,-177 5,-16 19,-18 105,-18 65,0 99,4 99,11 0,10 -364,1533 -376,1572 -5,15 -19,17 -105,17 -71,0 -101,-4 -104,-12 z m 174,-663 c 34,-154 61,-283 61,-287 0,-5 -58,-8 -130,-8 -97,0 -130,3 -130,13 -1,31 124,577 130,570 4,-4 34,-134 69,-288 z"
         id="path124"
         style="fill:#0a690b;fill-opacity:1;stroke-width:3.69402" />
    </g>
    <path
       style="fill:#ff0000;fill-opacity:1;stroke:#ff0000;stroke-width:2.77051px;stroke-linecap:butt;stroke-linejoin:miter;stroke-opacity:1"
       d="m 1065.2,763 h 134.765 c 15.3971,6.25842 148.1915,-139.23726 13.6279,-251.87487 -13.7355,0.89947 11.9172,50.14021 -14.3152,57.93927 0.1338,0 -19.2849,2.53031 -12.1794,-63.38517 2.1242,-19.70512 -10.7071,-41.54778 -10.7071,-41.54778 -24.2248,-35.30853 -35.9358,-48.14154 -47.5128,-52.75008 -1.5391,-0.42541 -36.8011,14.31487 -43.2366,77.68466 -0.3785,-1.20322 -3.4069,-1.20322 -3.4069,-1.20322 l -5.6783,-4.41182 c 0,0 -14.9473,-34.82468 -50.1528,-34.82468 0.3785,0.80216 36.9034,33.62145 8.1334,77.33858 C 1029.9945,533.18424 953.14813,646.68837 1065.2,763 Z"
       id="path979"
       sodipodi:nodetypes="ccccscccccccc" />
    <path
       style="fill:#44b2ff;fill-opacity:1;stroke:none;stroke-width:2.77051px;stroke-linecap:butt;stroke-linejoin:miter;stroke-opacity:1"
       d="m 864.62745,800.73532 -539.61087,0.69443 c 0,0 -19.44543,148.61869 73.61487,256.26305 -0.69449,-1.3889 109.03334,-193.75985 109.03334,-193.75985 L 566.69557,994.4952 634.7546,877.82257 c 0,0 55.5584,125.00643 56.25287,122.22843 0.69448,-2.77788 57.64183,-130.5622 57.64183,-130.5622 l 115.28365,201.3991 h 2.08342 z"
       id="path959"
       sodipodi:nodetypes="ccccccscccc" />
    <path
       style="fill:none;stroke:#ffffff;stroke-width:44.3282;stroke-linecap:round;stroke-linejoin:round;stroke-miterlimit:4;stroke-dasharray:none;stroke-opacity:1"
       d="m 1181.3527,763.91374 c 0,0 76.3927,-64.93387 16.6674,-133.68738"
       id="path984"
       sodipodi:nodetypes="cc" />
    <path
       style="fill:none;stroke:#ffffff;stroke-width:44.3282;stroke-linecap:round;stroke-linejoin:miter;stroke-miterlimit:4;stroke-dasharray:none;stroke-opacity:0.955823"
       d="m 1142.2322,763.6161 c 0,0 -45.6697,-39.28574 22.5892,-125.71431 0,0 30.4465,-42.72322 -36.8303,-110 l 0.9821,0.49107"
       id="path994"
       sodipodi:nodetypes="cccc" />
    <path
       style="fill:none;stroke:#ffffe6;stroke-width:44.3282;stroke-linecap:round;stroke-linejoin:miter;stroke-miterlimit:4;stroke-dasharray:none;stroke-opacity:1"
       d="m 1084.5859,768.5786 c 0,0 -44.6876,-21.1161 11.7856,-89.37502 0,0 33.884,-39.28572 -19.6428,-97.23215"
       id="path994-4"
       sodipodi:nodetypes="ccc" />
  </g>
</svg>
