<?xml version="1.0" encoding="UTF-8" standalone="no"?>
<svg
   xmlns:dc="http://purl.org/dc/elements/1.1/"
   xmlns:cc="http://creativecommons.org/ns#"
   xmlns:rdf="http://www.w3.org/1999/02/22-rdf-syntax-ns#"
   xmlns:svg="http://www.w3.org/2000/svg"
   xmlns="http://www.w3.org/2000/svg"
   xmlns:sodipodi="http://sodipodi.sourceforge.net/DTD/sodipodi-0.dtd"
   xmlns:inkscape="http://www.inkscape.org/namespaces/inkscape"
   version="1.0"
   width="1024.000000pt"
   height="1015.000000pt"
   viewBox="0 0 1024.000000 1015.000000"
   preserveAspectRatio="xMidYMid meet"
   id="svg110"
   sodipodi:docname="nust.svg"
   inkscape:version="1.0.2-2 (e86c870879, 2021-01-15)">
  <metadata
     id="metadata116">
    <rdf:RDF>
      <cc:Work
         rdf:about="">
        <dc:format>image/svg+xml</dc:format>
        <dc:type
           rdf:resource="http://purl.org/dc/dcmitype/StillImage" />
      </cc:Work>
    </rdf:RDF>
  </metadata>
  <defs
     id="defs114" />
  <sodipodi:namedview
     pagecolor="#ffffff"
     bordercolor="#666666"
     borderopacity="1"
     objecttolerance="10"
     gridtolerance="10"
     guidetolerance="10"
     inkscape:pageopacity="0"
     inkscape:pageshadow="2"
     inkscape:window-width="2560"
     inkscape:window-height="1017"
     id="namedview112"
     showgrid="false"
     inkscape:zoom="0.64137931"
     inkscape:cx="682.66667"
     inkscape:cy="676.66667"
     inkscape:window-x="-8"
     inkscape:window-y="-8"
     inkscape:window-maximized="1"
     inkscape:current-layer="svg110" />
  <g
     transform="translate(0.000000,1015.000000) scale(0.100000,-0.100000)"
     fill="#000000"
     stroke="none"
     id="g108"
     style="fill:#00538d;fill-opacity:1">
    <path
       d="M4990 9753 c-1335 -62 -2580 -699 -3435 -1758 -520 -642 -867 -1444 -984 -2270 -58 -406 -59 -880 -5 -1285 93 -693 338 -1351 721 -1939 290 -446 692 -874 1118 -1193 645 -483 1399 -792 2191 -897 472 -63 1003 -50 1459 34 461 86 840 212 1255 420 1388 694 2348 2041 2550 3577 222 1694 -471 3346 -1839 4382 -853 647 -1941 980 -3031 929z m570 -143 c605 -45 1228 -222 1750 -497 1349 -710 2243 -2006 2426 -3518 34 -287 34 -774 -1 -1061 -99 -820 -392 -1553 -882 -2210 -132 -176 -257 -319 -432 -494 -749 -747 -1708 -1199 -2771 -1305 -197 -20 -625 -23 -810 -6 -611 57 -1152 211 -1675 476 -1542 783 -2504 2345 -2505 4068 -1 1210 478 2365 1335 3222 780 780 1823 1256 2910 1328 121 8 532 6 655 -3z"
       id="path2"
       style="fill:#00538d;fill-opacity:1" />
    <path
       d="M4915 9444 c-305 -29 -440 -49 -650 -95 -834 -184 -1599 -611 -2195 -1225 -622 -641 -1032 -1450 -1180 -2323 -45 -270 -54 -393 -54 -736 0 -351 9 -472 59 -760 215 -1248 973 -2355 2063 -3013 1176 -710 2625 -825 3901 -310 185 74 424 194 603 302 332 199 563 380 848 665 376 376 617 711 846 1175 393 795 533 1697 403 2584 -168 1151 -792 2190 -1734 2887 -616 456 -1321 735 -2100 831 -122 15 -705 28 -810 18z m156 -487 c6 -53 -6 -72 -21 -33 -13 36 -39 46 -116 46 l-67 0 8 -72 c3 -40 9 -76 11 -80 8 -13 89 -9 102 4 7 7 12 20 12 30 0 10 4 18 10 18 15 0 21 -39 18 -105 -4 -60 -4 -60 -17 -28 -15 38 -30 45 -82 37 -37 -6 -39 -8 -39 -43 0 -20 3 -60 6 -88 6 -50 8 -53 35 -53 34 0 38 -16 7 -23 -52 -13 -178 -20 -178 -9 0 5 14 15 30 21 29 10 30 12 30 68 0 98 -21 297 -32 310 -6 7 -19 13 -29 13 -11 0 -19 4 -19 9 0 7 241 29 300 27 22 -1 26 -6 31 -49z m476 36 c33 -15 36 -15 48 0 20 27 25 20 25 -30 0 -61 -10 -123 -20 -123 -4 0 -11 16 -15 37 -14 74 -94 122 -143 86 -56 -42 -37 -79 77 -153 84 -55 118 -100 106 -143 -16 -56 -30 -78 -61 -98 -29 -17 -43 -20 -87 -14 -28 4 -67 13 -85 21 -28 11 -34 11 -39 -1 -3 -8 -9 -15 -14 -15 -11 0 -11 70 0 125 6 33 9 36 15 20 5 -11 13 -33 19 -49 24 -63 123 -88 167 -41 35 37 19 70 -61 125 -106 73 -121 91 -127 149 -4 47 -2 53 31 86 30 30 42 35 82 35 26 0 63 -8 82 -17z m469 -63 c32 -16 61 -25 62 -20 2 6 8 10 13 10 14 0 7 -143 -7 -147 -6 -2 -14 13 -17 35 -10 62 -77 112 -151 112 -47 0 -88 -45 -112 -122 -38 -126 -11 -237 63 -257 73 -21 125 -9 167 38 18 19 36 20 36 1 0 -4 -22 -24 -49 -44 -41 -30 -57 -36 -100 -36 -153 0 -253 137 -206 282 38 113 110 171 221 177 12 0 48 -12 80 -29z m-1455 5 c57 -20 86 -49 115 -110 32 -68 32 -149 0 -213 -29 -58 -48 -75 -110 -103 -123 -54 -257 24 -286 168 -26 125 22 218 136 258 51 19 92 18 145 0z m1745 -76 c84 -21 97 -34 40 -41 -29 -3 -30 -6 -73 -158 -49 -175 -53 -209 -23 -217 11 -3 20 -12 20 -20 0 -10 -6 -12 -21 -8 -12 4 -51 15 -87 26 -74 21 -108 44 -55 37 45 -6 54 10 93 177 41 174 43 199 12 203 -12 2 -20 8 -17 13 8 13 14 12 111 -12z m-2320 -62 c-24 -19 -42 -73 -60 -182 -17 -100 -17 -101 6 -165 21 -60 25 -65 56 -68 17 -2 32 -6 32 -10 0 -10 -159 -66 -166 -59 -3 3 4 10 15 17 27 14 26 22 -5 95 -22 52 -36 68 -111 125 -103 79 -143 102 -165 95 -9 -3 -19 -2 -22 3 -5 8 156 83 177 82 14 0 7 -30 -8 -30 -36 0 -10 -38 62 -92 43 -31 78 -56 79 -55 7 7 32 182 27 193 -3 8 -16 14 -29 14 -45 0 -24 18 49 43 68 23 98 20 63 -6z m2619 -35 c83 -31 152 -59 154 -62 2 -3 1 -27 -3 -53 -8 -50 -31 -62 -31 -16 0 13 -4 30 -9 38 -8 13 -126 71 -144 71 -8 0 -62 -125 -62 -142 0 -7 94 -48 110 -48 6 0 22 11 36 25 18 18 26 21 30 11 6 -16 -44 -146 -56 -146 -5 0 -10 15 -12 32 -2 26 -11 37 -43 54 -81 44 -80 44 -110 -46 -15 -45 -25 -83 -24 -84 10 -9 139 -56 152 -56 9 0 29 11 45 25 28 23 52 32 52 19 0 -13 -66 -84 -78 -84 -14 0 -214 69 -279 96 -41 16 -44 36 -4 28 18 -4 32 -1 37 7 20 32 124 306 124 327 0 15 -8 26 -26 32 -14 6 -22 14 -19 20 8 13 -13 19 160 -48z m295 -127 c27 -13 51 -28 53 -32 3 -5 22 -92 43 -195 20 -104 40 -188 43 -188 4 0 32 52 64 116 57 114 65 154 31 154 -8 0 -14 5 -14 10 0 15 12 12 84 -20 69 -32 79 -52 23 -47 -32 2 -32 2 -118 -172 -47 -96 -91 -177 -97 -179 -6 -2 -14 7 -17 20 -3 13 -23 106 -46 208 -22 101 -41 186 -43 187 -2 2 -30 -48 -64 -111 -66 -121 -76 -160 -41 -171 13 -4 17 -11 12 -16 -12 -12 -155 50 -147 63 4 6 19 8 34 4 17 -3 32 0 38 7 6 7 42 74 81 149 78 148 82 174 35 205 -13 8 -21 19 -18 24 7 12 9 12 64 -16z m-3375 -58 c33 -57 32 -60 -9 -36 -37 22 -66 19 -104 -10 l-24 -17 82 -147 c93 -166 102 -177 132 -158 21 13 34 9 24 -8 -10 -15 -156 -94 -163 -87 -4 3 1 14 10 24 10 10 17 25 17 33 0 11 -152 304 -164 317 -3 2 -23 -9 -46 -24 -39 -26 -41 -31 -38 -66 2 -21 0 -38 -4 -38 -4 0 -20 18 -34 40 -20 31 -24 44 -16 52 9 9 300 167 309 168 1 0 14 -20 28 -43z m-408 -195 c-10 -10 -17 -22 -17 -27 0 -4 44 -77 97 -161 93 -147 119 -175 138 -144 8 12 25 13 25 1 0 -12 -159 -115 -167 -107 -4 3 4 17 16 30 20 21 21 27 10 48 -25 47 -172 273 -183 280 -6 5 -23 5 -38 2 -48 -10 -31 9 50 58 78 47 99 53 69 20z m4394 -98 c27 -15 59 -44 74 -66 22 -32 28 -37 45 -28 11 6 21 6 24 1 8 -12 -63 -131 -77 -131 -6 0 -8 19 -4 51 7 61 -6 93 -53 128 -47 34 -100 39 -143 12 -54 -33 -103 -93 -125 -154 -20 -52 -20 -58 -6 -101 9 -26 30 -57 47 -72 30 -25 36 -26 109 -21 43 3 78 1 78 -4 0 -14 -109 -41 -138 -34 -50 12 -131 73 -152 115 -42 82 -18 188 59 264 53 52 81 64 160 65 40 1 65 -6 102 -25z m-4601 -100 c23 -30 39 -58 36 -61 -3 -3 -25 4 -49 16 -24 11 -51 21 -60 21 -53 0 -104 -60 -88 -103 12 -31 58 -41 130 -27 72 14 151 12 180 -3 13 -6 33 -28 43 -48 15 -30 17 -44 9 -78 -12 -55 -33 -77 -108 -113 -47 -22 -60 -33 -56 -45 11 -30 -16 -9 -61 46 -49 59 -51 83 -6 51 44 -32 81 -35 128 -11 44 23 59 52 48 96 -10 39 -37 48 -116 36 -38 -6 -92 -11 -120 -11 -46 0 -56 4 -87 35 -33 33 -35 39 -31 80 7 62 31 93 94 122 30 13 54 31 54 39 0 26 17 14 60 -42z m2640 35 c588 -61 1142 -287 1630 -665 141 -109 397 -362 510 -504 452 -569 699 -1267 700 -1980 0 -404 -75 -801 -222 -1170 -345 -867 -1056 -1542 -1938 -1842 -206 -70 -415 -117 -670 -150 -143 -19 -576 -15 -730 6 -744 100 -1384 420 -1890 942 -1007 1040 -1184 2642 -427 3867 178 287 421 570 667 774 491 409 1093 662 1716 723 211 20 452 20 654 -1z m2314 -228 c64 -57 116 -109 116 -114 0 -15 -49 -77 -61 -77 -6 0 -6 7 1 19 22 41 12 68 -42 115 -29 25 -57 46 -63 46 -6 0 -33 -22 -60 -50 l-49 -50 39 -40 c46 -47 66 -55 95 -40 35 19 32 7 -15 -50 -57 -70 -66 -73 -60 -18 6 41 4 45 -38 80 l-44 37 -57 -64 c-64 -72 -64 -74 3 -129 51 -42 83 -53 117 -37 65 29 58 -1 -7 -34 -59 -31 -36 -43 -196 104 -98 89 -123 125 -66 96 20 -11 30 -11 42 -2 18 13 147 149 204 215 37 42 37 43 21 73 -8 17 -11 30 -6 28 6 -2 62 -51 126 -108z m-5247 -116 c37 -37 40 -58 18 -131 -6 -19 1 -22 79 -38 80 -17 100 -17 169 0 40 9 34 -8 -17 -50 l-44 -36 -126 22 c-83 14 -130 18 -136 12 -15 -15 86 -124 115 -124 13 0 27 5 30 10 7 12 28 14 23 2 -1 -5 -33 -37 -71 -72 -68 -63 -93 -74 -62 -26 l17 26 -127 135 c-71 74 -133 135 -139 135 -7 0 -17 -5 -24 -12 -6 -6 -15 -9 -18 -5 -9 9 15 36 109 118 71 64 80 69 123 69 39 0 51 -5 81 -35z m5506 -149 c41 -17 63 -42 81 -92 10 -30 18 -38 35 -37 11 2 21 -1 21 -6 0 -9 -104 -101 -114 -101 -12 0 -6 28 9 40 9 8 15 30 15 58 0 77 -66 127 -112 85 -23 -21 -24 -81 -2 -168 21 -81 13 -126 -27 -159 -47 -39 -116 -37 -165 6 -20 18 -45 52 -55 75 -13 31 -24 43 -39 43 -11 0 -20 4 -20 9 0 11 111 101 123 101 5 0 -3 -20 -17 -45 -21 -35 -25 -53 -21 -79 8 -38 49 -83 80 -86 36 -4 44 0 60 24 14 22 14 33 0 120 -21 132 -20 148 13 179 47 45 85 55 135 33z m-5857 -122 c45 -35 43 -45 -10 -38 -43 6 -43 6 -87 -50 -24 -31 -44 -60 -44 -65 0 -5 25 -29 55 -54 l55 -46 32 37 c38 43 50 79 34 95 -6 6 -11 17 -11 25 0 15 29 -3 95 -61 l40 -35 -40 5 c-38 4 -42 2 -77 -41 -21 -24 -38 -47 -38 -49 0 -3 30 -28 66 -57 l66 -52 34 39 c60 67 75 114 53 168 -2 6 0 12 6 15 11 6 56 -69 52 -87 -3 -17 -198 -255 -204 -250 -2 3 0 14 6 25 17 32 1 48 -250 236 -38 29 -39 29 -59 11 -11 -10 -22 -16 -25 -13 -6 5 201 268 211 268 3 0 21 -12 40 -26z m-296 -349 c0 -28 17 -56 98 -157 157 -199 165 -209 158 -215 -3 -3 -105 4 -226 17 -204 21 -222 21 -239 6 -44 -40 -41 -11 9 75 42 71 61 87 53 44 -7 -32 14 -40 142 -54 55 -7 118 -14 139 -17 l39 -6 -80 98 c-44 55 -86 109 -94 122 -14 23 -43 29 -54 12 -8 -13 -25 -13 -25 0 0 20 62 120 71 114 5 -3 9 -20 9 -39z m6564 -56 c64 -51 70 -123 12 -159 -41 -25 -47 -25 -98 0 -23 11 -43 20 -45 20 -2 0 -17 -28 -33 -62 l-30 -63 41 -3 c47 -4 89 19 89 48 0 35 17 22 55 -41 38 -61 40 -86 7 -56 -26 24 -197 25 -206 1 -20 -51 10 -114 54 -114 28 0 25 -18 -4 -26 -38 -9 -90 13 -109 45 -9 16 -17 50 -17 75 0 39 -4 48 -23 55 -34 13 -86 59 -102 92 -18 34 -19 90 -2 111 41 51 96 60 179 28 l53 -20 19 26 c25 35 75 64 107 64 15 0 38 -9 53 -21z m-6830 -389 c-6 -29 -5 -30 97 -77 57 -26 133 -62 169 -80 l65 -32 27 26 c16 15 28 21 28 15 0 -21 -80 -172 -90 -172 -13 0 -13 13 2 28 20 20 -6 37 -160 107 -81 37 -153 72 -161 78 -10 9 -18 6 -31 -11 -39 -48 -38 -18 2 63 44 88 62 107 52 55z m7180 -291 c37 -89 66 -162 64 -164 -6 -6 -87 -45 -93 -45 -13 0 -3 27 15 43 11 9 20 24 20 32 0 24 -28 85 -39 85 -12 0 -268 -98 -304 -117 -24 -12 -28 -20 -25 -44 8 -50 -12 -28 -48 55 -40 93 -42 111 -9 74 13 -16 27 -28 31 -28 7 0 327 131 333 137 3 2 -5 23 -17 48 -20 40 -24 44 -64 47 l-43 4 35 16 c69 34 70 34 144 -143z m-7289 59 l0 -33 190 -66 c104 -36 190 -70 192 -75 2 -5 -87 -42 -197 -83 -110 -41 -200 -77 -200 -80 0 -3 59 -25 131 -49 103 -35 133 -41 145 -31 8 6 14 18 14 25 0 8 5 14 10 14 14 0 12 -16 -8 -84 -19 -63 -50 -95 -38 -38 6 23 3 31 -11 37 -64 26 -301 105 -316 105 -11 0 -32 -14 -48 -31 -16 -18 -32 -30 -34 -27 -8 8 39 119 54 127 9 5 91 35 184 67 92 32 167 61 167 64 0 3 -57 25 -127 49 -119 42 -127 43 -139 26 -7 -10 -15 -23 -17 -29 -2 -6 -8 -8 -12 -4 -11 10 38 148 53 148 4 0 7 -15 7 -32z m7424 -454 c22 -78 41 -148 41 -157 0 -15 -88 -52 -99 -41 -3 3 6 15 22 26 36 26 34 73 -8 185 -3 9 -23 6 -72 -11 l-68 -23 2 -37 c4 -58 28 -96 63 -96 44 0 36 -18 -12 -30 -24 -6 -58 -16 -76 -22 -45 -14 -53 -2 -16 27 l30 24 -15 64 -16 64 -80 -24 c-44 -14 -83 -28 -88 -32 -4 -4 2 -37 13 -74 22 -69 56 -107 99 -107 12 0 21 -6 21 -15 0 -19 -95 -21 -107 -3 -15 23 -101 313 -95 322 3 5 11 -3 19 -18 7 -14 17 -26 22 -26 15 0 274 70 319 87 37 13 43 19 42 42 -5 77 8 48 59 -125z m-7584 -16 c-3 -13 -2 -28 2 -34 5 -6 63 -23 130 -39 191 -44 238 -81 237 -184 -1 -70 -33 -134 -83 -168 -44 -30 -58 -29 -201 7 -143 36 -176 38 -183 10 -5 -20 -27 -28 -27 -11 0 10 27 134 36 164 9 28 24 20 24 -13 0 -41 24 -53 162 -84 147 -32 161 -32 198 2 58 51 49 161 -16 191 -14 6 -77 25 -140 42 -116 31 -164 32 -164 4 0 -15 -18 -30 -26 -22 -8 7 38 157 48 157 4 0 6 -10 3 -22z m7556 -323 c108 -39 175 -165 138 -261 -9 -24 -7 -30 13 -45 26 -20 26 -20 -65 -39 -32 -6 -61 -9 -65 -6 -3 3 13 22 36 42 28 24 45 48 53 77 10 37 9 47 -12 85 -31 60 -66 76 -164 77 -137 0 -205 -54 -205 -162 0 -49 3 -58 34 -86 18 -18 44 -40 57 -49 23 -17 23 -17 3 -18 -34 0 -86 41 -111 89 -38 73 -27 186 25 245 51 58 175 82 263 51z m-7330 -382 l49 -18 -2 -164 c-2 -121 -6 -165 -15 -169 -8 -2 -13 6 -13 21 0 16 -7 28 -17 31 -10 2 -94 7 -186 11 l-168 7 -12 -31 c-6 -17 -15 -31 -19 -31 -11 0 -10 188 1 195 5 3 15 -10 21 -29 10 -31 16 -36 53 -40 59 -7 278 -13 300 -9 15 4 17 17 17 93 0 95 0 94 -66 137 -29 18 0 16 57 -4z m7494 -126 c9 -110 4 -135 -18 -84 l-16 37 -87 0 -87 0 7 -52 c3 -29 6 -72 6 -95 l0 -43 78 0 c81 0 102 9 102 42 0 10 4 18 9 18 8 0 21 -94 21 -156 0 -24 -5 -34 -15 -34 -9 0 -15 9 -15 25 l0 25 -134 0 c-73 0 -161 -3 -195 -6 -59 -7 -61 -8 -61 -35 0 -16 -4 -29 -10 -29 -5 0 -10 15 -10 33 0 17 -3 62 -7 100 -4 47 -3 67 6 67 6 0 11 -8 11 -18 0 -33 21 -42 102 -42 61 0 80 3 84 15 4 9 3 53 -1 98 l-6 82 -77 -3 c-85 -5 -102 -13 -102 -48 0 -13 -4 -24 -10 -24 -5 0 -10 15 -10 33 0 17 -3 62 -7 100 -4 43 -2 67 4 67 6 0 13 -13 17 -30 5 -30 7 -30 68 -30 35 0 121 3 191 7 l128 6 6 29 c10 51 21 29 28 -55z m-7445 -345 c0 -87 -1 -87 -19 -63 l-18 24 -44 -24 c-49 -27 -55 -42 -44 -127 6 -51 9 -55 48 -72 47 -21 77 -13 77 22 0 49 18 -1 22 -59 3 -67 -6 -90 -21 -51 -11 30 5 23 -236 105 -104 35 -194 69 -199 73 -5 6 73 50 189 107 109 54 202 105 206 113 4 8 10 23 13 33 13 41 26 0 26 -81z m7030 -87 c0 -31 43 -55 102 -56 24 0 89 -6 146 -13 94 -11 105 -10 122 6 10 9 21 26 25 38 3 11 11 20 16 20 10 0 12 -38 3 -92 -6 -34 -14 -41 -175 -140 -191 -117 -190 -108 -14 -128 109 -12 135 -7 135 26 0 8 5 14 11 14 8 0 10 -15 5 -46 -3 -26 -6 -60 -6 -75 0 -19 -5 -29 -15 -29 -11 0 -14 7 -9 24 5 20 1 25 -28 35 -18 6 -94 17 -168 26 -200 22 -221 26 -217 39 2 6 84 63 183 126 l179 115 -80 7 c-44 4 -108 13 -142 19 -70 12 -83 8 -83 -27 0 -15 -6 -24 -16 -24 -13 0 -15 8 -10 40 3 22 9 58 12 80 6 44 24 55 24 15z m-6977 -363 c3 -4 -53 -81 -124 -171 -71 -90 -128 -166 -126 -168 5 -4 192 36 237 51 25 8 36 18 38 36 7 51 20 39 36 -30 9 -40 16 -76 16 -81 0 -17 -18 -9 -23 11 -9 35 -70 27 -329 -41 -27 -7 -39 -17 -47 -39 -5 -17 -8 -37 -5 -45 4 -8 1 -15 -5 -15 -5 0 -15 19 -21 43 -6 23 -13 50 -16 59 -3 11 37 71 114 170 66 84 118 155 116 156 -6 8 -249 -50 -256 -61 -4 -6 -5 -22 -1 -34 3 -14 1 -23 -6 -23 -6 0 -13 10 -16 23 -17 73 -25 113 -25 125 0 22 18 13 22 -10 4 -31 31 -29 233 15 179 40 182 40 188 29z m7152 -161 c48 -22 85 -61 115 -119 18 -34 21 -55 18 -101 -5 -70 -36 -117 -106 -162 -39 -24 -56 -29 -111 -29 -154 0 -263 131 -226 270 18 70 40 99 101 132 61 34 147 38 209 9z m-7082 -334 c51 -30 68 -53 91 -122 32 -94 -16 -205 -108 -249 -108 -51 -218 -37 -281 36 -46 54 -70 133 -56 183 14 52 56 119 87 139 80 53 190 58 267 13z m6729 -79 c3 -32 6 -34 133 -85 72 -28 138 -56 147 -62 29 -18 66 -13 82 11 28 40 26 13 -5 -80 -32 -96 -52 -119 -47 -55 l3 37 -160 62 c-88 35 -165 63 -171 63 -10 1 -24 -28 -55 -107 -14 -36 -11 -57 16 -97 15 -20 24 -39 21 -42 -6 -7 -95 60 -96 72 -1 19 112 315 120 315 5 0 10 -15 12 -32z m-6477 -447 c-5 -13 -9 -11 -21 12 -8 15 -18 27 -22 27 -6 0 -175 -70 -329 -137 -14 -6 -16 -15 -13 -50 3 -46 -18 -21 -53 59 -38 89 -39 112 -1 77 28 -26 23 -27 199 53 173 79 168 75 161 103 -3 12 -2 25 2 29 11 11 84 -154 77 -173z m6492 -7 c65 -31 108 -82 123 -146 15 -62 6 -111 -31 -170 -68 -106 -215 -124 -327 -39 -69 51 -100 170 -68 256 19 50 82 110 131 125 43 13 112 3 172 -26z m-6378 -173 c39 -77 44 -114 9 -69 l-18 23 -62 -33 c-171 -91 -258 -144 -258 -157 0 -7 12 -28 26 -45 22 -25 33 -31 60 -28 18 1 36 -1 40 -5 7 -7 -71 -46 -92 -47 -6 0 -48 68 -93 150 -59 108 -80 154 -73 163 16 19 81 51 89 43 4 -3 -3 -13 -15 -22 -35 -24 -29 -74 14 -132 2 -3 194 101 281 152 39 23 42 28 37 56 -11 55 15 32 55 -49z m111 -191 c29 -39 50 -74 46 -77 -3 -4 -12 -1 -18 5 -21 21 -34 13 -65 -37 l-31 -49 40 -48 c63 -77 57 -74 113 -59 47 12 50 14 49 44 -1 17 1 31 5 31 9 -1 81 -97 81 -109 0 -7 -8 -7 -25 1 -22 10 -59 3 -240 -42 -118 -30 -217 -51 -220 -48 -4 3 42 92 100 197 88 157 106 197 102 220 -5 24 -1 41 9 41 1 0 26 -32 54 -70z m5973 -33 c128 -54 193 -222 126 -323 -32 -48 -69 -87 -94 -101 -16 -9 -17 -14 -7 -26 9 -10 9 -17 3 -21 -11 -7 -121 61 -121 75 0 4 22 5 48 2 90 -10 152 48 152 145 0 41 -6 58 -33 94 -42 56 -123 97 -193 98 -68 0 -127 -41 -145 -100 -7 -22 -10 -42 -8 -44 2 -1 32 -22 67 -45 62 -41 64 -42 88 -26 42 28 39 9 -11 -65 -50 -72 -72 -89 -61 -46 5 22 -3 32 -64 78 -75 57 -81 72 -56 132 18 42 68 112 98 135 66 51 145 65 211 38z m-5677 -354 c-6 -30 -56 -382 -56 -396 0 -9 81 59 170 142 l52 49 -18 31 c-10 17 -15 34 -11 37 4 4 8 5 10 3 1 -2 26 -30 56 -61 31 -33 50 -61 46 -68 -5 -8 -12 -7 -25 5 -10 9 -27 15 -39 13 -11 -2 -72 -54 -136 -117 -122 -120 -123 -122 -100 -183 13 -32 -13 -19 -49 25 l-35 43 19 150 c11 82 22 172 26 199 l7 50 -94 -89 c-107 -100 -115 -111 -99 -131 7 -8 10 -19 8 -25 -2 -6 -28 14 -58 44 -55 56 -61 81 -14 56 31 -17 20 -25 184 128 73 67 139 122 147 122 11 0 13 -7 9 -27z m5204 -32 c0 -6 -4 -13 -10 -16 -22 -14 -7 -47 41 -92 51 -48 53 -48 163 -66 138 -22 144 -22 181 -12 27 8 25 3 -34 -63 -61 -68 -91 -90 -77 -57 3 8 9 21 12 29 4 11 -5 18 -33 25 -51 13 -164 33 -168 29 -5 -5 46 -173 57 -185 7 -9 15 -10 30 -2 40 21 30 -3 -22 -56 -29 -30 -58 -52 -63 -48 -5 3 -4 10 2 16 17 17 13 63 -15 184 l-26 112 -56 46 c-54 45 -63 47 -107 29 -11 -4 9 24 44 64 61 68 81 84 81 63z m-445 -719 c26 -123 45 -226 41 -229 -3 -3 -93 52 -201 122 -107 70 -194 130 -192 132 2 2 61 -17 131 -42 70 -25 134 -45 142 -45 12 0 14 27 13 158 l0 157 -20 -55 c-22 -61 -28 -136 -16 -193 l8 -38 -57 32 c-49 28 -70 33 -141 37 -122 7 -108 20 49 52 57 11 58 12 89 71 18 32 43 71 57 85 l26 25 12 -23 c6 -13 33 -123 59 -246z m-4167 148 c14 -25 27 -47 28 -49 2 -2 38 -10 80 -18 43 -8 87 -20 99 -26 17 -10 5 -13 -70 -17 -88 -5 -117 -14 -180 -56 -29 -19 -29 -19 -21 1 23 59 17 145 -20 262 -8 27 54 -45 84 -97z m-90 -210 c4 0 68 20 142 45 74 25 138 44 143 42 4 -1 -59 -45 -140 -98 -218 -142 -263 -170 -263 -165 0 9 90 429 98 456 4 14 8 -44 10 -127 1 -84 6 -153 10 -153z m3662 -17 c0 -4 -11 -16 -25 -28 l-24 -20 69 -184 c39 -101 70 -188 70 -193 0 -18 -37 -1 -210 97 -94 53 -173 96 -174 94 -5 -6 83 -231 96 -246 6 -7 23 -13 39 -13 47 0 33 -15 -42 -45 -70 -27 -104 -26 -61 2 12 9 22 25 22 38 0 27 -106 283 -128 308 -9 10 -29 17 -49 17 -48 0 -41 15 20 39 l53 22 174 -100 c96 -55 176 -98 178 -97 1 2 -21 58 -49 125 -51 121 -52 123 -81 119 -52 -8 -41 12 24 41 62 29 98 38 98 24z m-2917 -50 c97 -45 137 -87 137 -144 0 -108 -86 -152 -193 -100 -27 13 -50 22 -52 20 -10 -11 -55 -124 -55 -140 0 -10 9 -23 21 -29 11 -7 18 -14 15 -17 -5 -6 -45 9 -131 48 l-50 23 40 5 39 6 67 145 c37 80 68 157 68 171 1 17 -8 33 -21 43 l-23 17 30 -6 c17 -3 65 -22 108 -42z m376 -228 c7 -55 19 -144 27 -197 8 -54 14 -102 14 -107 0 -5 12 -23 26 -40 23 -27 24 -31 7 -31 -10 1 -46 8 -79 18 -63 17 -81 34 -44 40 22 4 23 8 14 74 l-6 45 -75 17 c-72 17 -75 17 -95 0 -11 -11 -26 -31 -34 -46 -13 -25 -12 -28 14 -47 30 -23 18 -26 -38 -12 -19 5 -47 12 -62 15 -34 8 -37 26 -5 26 29 0 61 34 177 190 110 148 132 173 140 163 4 -5 13 -53 19 -108z m1994 -93 c134 -183 151 -202 178 -202 12 0 19 -5 17 -12 -5 -14 -154 -45 -165 -35 -4 4 2 14 13 21 19 14 19 15 0 50 -30 57 -36 59 -117 38 -69 -17 -74 -20 -87 -55 -19 -49 -9 -87 23 -87 48 0 25 -18 -42 -33 -38 -8 -70 -13 -72 -11 -3 2 5 14 16 27 24 25 33 62 68 282 30 183 32 188 44 181 5 -4 61 -77 124 -164z m-1659 105 c72 -13 103 -37 48 -37 -30 0 -30 -1 -44 -77 -8 -43 -14 -80 -12 -81 5 -7 139 85 164 112 l24 27 -22 6 c-12 3 -22 10 -22 15 0 10 111 0 148 -13 30 -11 28 -29 -3 -29 -15 0 -40 -7 -58 -16 -33 -17 -167 -113 -167 -120 0 -2 32 -49 72 -105 42 -60 89 -114 115 -132 62 -44 57 -57 -17 -38 -19 5 -61 15 -92 21 -56 11 -79 30 -37 30 27 0 25 6 -49 114 -53 76 -62 85 -66 65 -2 -13 -10 -51 -16 -83 -13 -62 -8 -74 34 -89 6 -2 9 -7 6 -10 -7 -7 -173 23 -185 34 -5 5 1 9 17 9 14 0 31 6 37 14 15 18 73 301 69 336 -2 15 -12 29 -25 35 -13 5 -23 13 -23 17 0 10 21 9 104 -5z m1353 -67 c8 -40 7 -50 -3 -50 -8 0 -14 4 -14 8 0 19 -43 52 -68 52 -53 0 -53 -2 -37 -176 19 -198 20 -204 45 -204 39 0 19 -18 -27 -24 -27 -4 -65 -9 -85 -12 -24 -4 -38 -2 -38 5 0 6 6 11 14 11 34 0 37 23 21 194 -8 91 -15 173 -15 182 0 12 -8 14 -37 8 -56 -10 -73 -22 -80 -55 -3 -16 -9 -29 -13 -29 -9 0 -25 98 -18 106 5 4 253 31 309 33 36 1 36 0 46 -49z m-530 5 c33 -14 38 -14 55 1 17 17 18 14 18 -65 0 -52 -4 -80 -10 -76 -5 3 -10 15 -10 27 0 11 -15 35 -34 54 -43 43 -94 47 -131 10 -39 -39 -11 -85 71 -116 61 -24 114 -66 135 -108 19 -38 20 -46 7 -84 -7 -23 -25 -50 -40 -61 -34 -26 -118 -34 -170 -16 -33 11 -41 11 -48 -1 -5 -8 -11 -12 -13 -10 -7 8 -15 149 -9 155 3 3 17 -16 31 -42 18 -33 38 -54 64 -67 72 -35 140 2 124 66 -7 25 -81 82 -147 113 -40 18 -80 70 -80 102 0 41 23 84 58 108 42 29 78 31 129 10z m-324 -2 c63 -6 95 -23 42 -23 -13 0 -28 -8 -33 -17 -5 -10 -12 -79 -16 -153 -4 -74 -10 -151 -13 -171 -5 -34 -3 -37 26 -47 17 -6 31 -16 31 -23 0 -11 -44 -9 -152 7 -44 7 -50 21 -10 26 l27 3 13 130 c7 72 11 157 10 190 -3 54 -5 60 -25 63 -13 2 -23 8 -23 13 0 11 30 11 123 2z"
       id="path4"
       style="fill:#00538d;fill-opacity:1" />
    <path
       d="M4431 8907 c-50 -18 -74 -56 -79 -127 -5 -72 10 -134 49 -195 64 -102 198 -69 219 53 7 42 -11 151 -33 205 -26 61 -91 88 -156 64z"
       id="path6"
       style="fill:#00538d;fill-opacity:1" />
    <path
       d="M5226 8103 c-4 -26 -23 -142 -41 -258 -83 -509 -98 -605 -140 -865 -140 -860 -162 -995 -161 -997 1 -1 31 6 66 17 162 49 387 52 553 7 70 -19 87 -21 87 -10 0 8 -45 294 -101 636 -138 852 -185 1144 -216 1337 -14 91 -29 169 -33 173 -4 5 -11 -13 -14 -40z"
       id="path8"
       style="fill:#00538d;fill-opacity:1" />
    <path
       d="M5741 7824 c66 -99 158 -291 197 -414 42 -131 56 -240 49 -379 -5 -110 -4 -115 11 -91 80 119 223 242 364 316 123 63 202 91 363 129 151 35 151 36 11 60 -110 19 -189 19 -381 0 -82 -8 -155 -15 -161 -15 -6 0 -67 64 -135 142 -205 235 -275 300 -347 323 -21 6 -17 -3 29 -71z"
       id="path10"
       style="fill:#00538d;fill-opacity:1" />
    <path
       d="M4691 7849 c-74 -50 -221 -195 -328 -325 l-78 -95 -85 8 c-196 18 -632 1 -606 -24 2 -3 41 -11 86 -19 182 -32 412 -124 548 -221 75 -52 183 -157 228 -219 l29 -41 -3 137 c-5 150 10 249 55 375 32 89 120 264 189 377 33 54 48 88 40 88 -8 0 -41 -19 -75 -41z"
       id="path12"
       style="fill:#00538d;fill-opacity:1" />
    <path
       d="M4766 7672 c-44 -186 -226 -885 -231 -891 -4 -3 -577 349 -770 474 -60 39 -117 75 -125 80 -33 20 214 -236 673 -694 l484 -483 5 833 c3 459 5 835 4 836 -1 1 -19 -68 -40 -155z"
       id="path14"
       style="fill:#00538d;fill-opacity:1" />
    <path
       d="M5664 7246 c3 -324 6 -702 6 -840 l0 -251 167 170 c92 94 356 361 587 594 232 233 414 420 406 416 -8 -5 -62 -38 -120 -76 -58 -37 -255 -160 -439 -274 -242 -150 -336 -203 -342 -194 -4 7 -10 29 -14 48 -24 129 -241 980 -253 991 -2 3 -2 -260 2 -584z"
       id="path16"
       style="fill:#00538d;fill-opacity:1" />
    <path
       d="M3083 7203 c18 -27 67 -95 107 -153 82 -117 100 -141 714 -987 240 -332 439 -603 441 -603 3 0 12 16 20 37 64 153 269 363 428 439 20 10 37 20 37 23 -1 12 -367 279 -1210 881 -228 163 -448 322 -489 353 -40 31 -75 57 -78 57 -3 0 11 -21 30 -47z"
       id="path18"
       style="fill:#00538d;fill-opacity:1" />
    <path
       d="M7260 7139 c-74 -56 -259 -189 -410 -297 -151 -108 -473 -341 -715 -517 -242 -177 -455 -331 -472 -343 l-33 -23 81 -41 c139 -72 301 -243 383 -407 15 -29 31 -50 36 -45 4 5 47 63 96 129 48 66 138 188 199 270 107 144 659 912 833 1160 47 66 100 141 119 168 19 26 31 47 26 47 -4 -1 -69 -46 -143 -101z"
       id="path20"
       style="fill:#00538d;fill-opacity:1" />
    <path
       d="M2860 6669 c-19 -49 -23 -325 -8 -502 l13 -147 -80 -69 c-125 -107 -289 -281 -339 -359 -25 -39 -46 -73 -46 -77 0 -3 24 12 53 34 112 85 290 176 427 219 130 41 174 47 332 47 87 0 158 0 158 0 0 0 -32 25 -71 55 -178 138 -301 360 -393 709 l-33 125 -13 -35z"
       id="path22"
       style="fill:#00538d;fill-opacity:1" />
    <path
       d="M7587 6690 c-3 -8 -16 -51 -27 -95 -66 -244 -125 -392 -209 -522 -47 -74 -149 -182 -231 -245 l-35 -27 35 7 c19 4 94 7 165 6 241 -2 461 -77 700 -239 68 -46 92 -58 84 -42 -58 109 -200 267 -367 405 -96 80 -102 87 -98 116 24 156 35 372 25 487 -8 97 -31 178 -42 149z"
       id="path24"
       style="fill:#00538d;fill-opacity:1" />
    <path
       d="M6927 6093 c-328 -328 -596 -598 -594 -600 2 -2 375 -5 828 -8 l824 -5 -150 39 c-118 31 -746 184 -852 208 -13 3 -23 10 -23 15 0 6 60 108 134 227 74 119 200 326 281 461 81 135 149 248 152 253 2 4 3 7 1 7 -2 0 -272 -269 -601 -597z"
       id="path26"
       style="fill:#00538d;fill-opacity:1" />
    <path
       d="M2952 6655 c14 -27 292 -476 417 -673 77 -123 141 -227 141 -231 0 -4 -87 -28 -192 -54 -106 -25 -335 -85 -508 -132 l-315 -85 310 5 c171 4 434 10 585 15 151 5 379 10 506 10 127 0 233 3 237 6 3 3 -24 33 -61 67 -37 34 -164 156 -282 272 -118 116 -294 285 -390 375 -96 90 -238 225 -314 300 -76 74 -137 131 -134 125z"
       id="path28"
       style="fill:#00538d;fill-opacity:1" />
    <path
       d="M5150 5729 c-213 -27 -416 -171 -508 -359 -46 -95 -72 -189 -72 -267 l0 -53 666 0 667 0 -7 75 c-13 139 -76 297 -156 387 -55 63 -187 150 -277 182 -58 20 -220 50 -243 45 -3 -1 -34 -5 -70 -10z"
       id="path30"
       style="fill:#00538d;fill-opacity:1" />
    <path
       d="M6143 5404 c33 -104 49 -174 57 -253 5 -51 10 -94 12 -95 2 0 408 1 903 4 495 3 889 8 875 12 -14 4 -230 46 -480 92 -250 47 -610 114 -800 150 -190 35 -388 72 -440 81 -52 9 -104 18 -114 22 -15 4 -18 1 -13 -13z"
       id="path32"
       style="fill:#00538d;fill-opacity:1" />
    <path
       d="M3965 5344 c-187 -35 -443 -84 -570 -109 -126 -24 -392 -74 -590 -110 -198 -37 -362 -68 -364 -71 -7 -7 1311 -5 1576 3 l240 6 7 76 c5 66 27 171 51 249 4 12 3 22 -1 21 -5 0 -162 -30 -349 -65z"
       id="path34"
       style="fill:#00538d;fill-opacity:1" />
    <path
       d="M2417 4739 c54 -499 259 -1006 575 -1417 112 -146 385 -417 529 -525 400 -299 806 -470 1303 -549 188 -30 613 -33 801 -5 627 94 1180 371 1620 812 467 468 765 1094 821 1728 l7 77 -2835 0 -2834 0 13 -121z m771 -70 c18 -27 38 -52 45 -54 88 -31 136 -52 178 -81 61 -41 87 -42 129 -7 26 21 33 24 41 12 11 -18 12 -17 -7 -78 -8 -30 -30 -69 -51 -91 -32 -37 -34 -42 -24 -71 6 -18 11 -54 11 -81 0 -44 3 -50 27 -59 15 -6 59 -11 98 -12 60 -2 79 3 137 30 85 40 148 83 216 146 60 58 66 50 18 -21 -61 -91 -120 -152 -186 -194 -121 -76 -242 -171 -266 -210 -42 -66 -74 -179 -74 -260 0 -138 72 -306 157 -366 l28 -20 0 167 c1 185 11 241 70 368 64 139 150 248 314 398 57 52 106 93 108 92 2 -2 -37 -64 -85 -138 -161 -242 -184 -305 -185 -499 -1 -261 80 -444 251 -570 76 -56 124 -75 240 -93 66 -11 95 -11 169 0 138 22 364 11 478 -22 81 -24 190 -73 182 -82 -2 -2 -64 2 -137 8 -284 24 -476 -35 -643 -195 -67 -64 -102 -84 -131 -73 -8 3 -31 31 -50 62 -43 66 -86 95 -142 95 -58 0 -190 36 -258 70 -32 17 -68 30 -80 30 -30 -1 -102 -35 -147 -71 -21 -17 -43 -28 -49 -24 -5 3 -10 36 -10 73 0 80 31 153 103 246 26 32 44 62 42 66 -3 5 -35 17 -72 29 -97 29 -194 108 -251 204 -43 72 -72 151 -72 193 0 17 -9 25 -34 34 -73 24 -146 96 -146 145 0 11 11 15 49 15 39 0 56 6 80 26 17 14 31 34 31 44 0 10 5 22 10 25 6 4 24 30 40 58 27 47 30 60 30 142 0 192 -77 339 -217 412 -63 33 -83 38 -218 52 -55 6 -120 22 -167 39 -82 31 -173 80 -165 89 3 2 51 -7 108 -21 56 -14 125 -26 154 -26 67 0 151 25 194 58 48 37 73 51 85 46 6 -3 26 -27 44 -55z m4231 5 c81 -58 186 -67 337 -29 123 31 128 31 79 -2 -70 -48 -202 -93 -300 -104 -170 -18 -222 -37 -305 -115 -93 -87 -135 -204 -128 -354 4 -82 9 -104 31 -141 14 -24 36 -63 48 -86 26 -49 53 -63 119 -63 28 0 50 -2 50 -5 0 -3 -9 -24 -20 -46 -22 -43 -82 -92 -134 -109 -28 -9 -33 -16 -44 -65 -15 -74 -66 -175 -116 -232 -53 -60 -146 -120 -218 -140 -32 -9 -58 -20 -58 -25 0 -6 20 -35 44 -66 77 -100 100 -156 101 -244 0 -42 -3 -80 -7 -84 -4 -4 -17 5 -28 19 -21 27 -135 87 -164 87 -9 0 -39 -11 -66 -25 -63 -32 -222 -75 -276 -75 -55 0 -101 -33 -138 -98 -49 -86 -81 -83 -188 16 -94 87 -155 125 -250 157 -121 40 -219 49 -376 36 -74 -7 -137 -9 -140 -6 -9 8 142 74 210 90 92 23 333 29 442 12 79 -12 100 -12 185 3 53 9 112 23 131 32 56 24 159 107 203 162 54 69 114 196 132 281 32 150 12 352 -46 467 -47 94 -114 202 -174 283 -31 43 -51 75 -44 73 20 -7 199 -177 264 -251 171 -196 244 -401 232 -654 -3 -62 -2 -113 2 -113 14 0 67 56 101 105 92 134 105 338 31 490 -37 76 -67 103 -216 203 -121 80 -204 157 -263 244 -18 26 -32 49 -32 52 0 3 37 -24 83 -61 45 -37 120 -85 167 -107 76 -36 93 -40 154 -39 37 1 81 7 97 13 26 11 29 17 30 64 1 28 4 62 8 76 5 19 -2 37 -33 82 -31 46 -40 69 -44 114 l-5 57 39 -27 c51 -34 76 -33 129 8 25 18 73 43 107 56 60 21 83 40 145 114 21 26 23 26 50 11 15 -9 43 -27 62 -41z m-2273 -9 l59 -31 3 -698 c1 -384 -1 -696 -5 -694 -126 64 -216 81 -439 81 l-171 0 5 232 c3 142 0 283 -7 366 -20 216 -83 475 -158 642 -14 31 -24 59 -22 61 3 3 270 56 349 70 14 2 93 4 176 3 146 -2 152 -3 210 -32z m744 -4 c80 -17 150 -33 156 -35 8 -3 -1 -36 -26 -98 -117 -292 -155 -537 -148 -953 l4 -252 -165 0 c-218 0 -309 -17 -434 -81 -4 -2 -6 310 -5 694 l3 698 34 20 c66 38 118 46 281 42 127 -3 181 -9 300 -35z m-1512 -137 c13 -26 22 -47 20 -48 -2 -1 -31 -11 -66 -21 -35 -10 -65 -21 -67 -25 -2 -4 8 -24 22 -45 64 -94 135 -289 175 -481 20 -100 22 -133 21 -393 l-2 -283 47 6 c26 3 126 9 222 12 188 7 280 -2 357 -36 43 -19 116 -70 110 -76 -2 -2 -30 6 -63 18 -92 33 -236 35 -414 8 -80 -13 -194 -23 -255 -24 l-110 -1 1 65 c1 36 5 157 9 270 9 231 -1 351 -42 520 -40 166 -105 310 -185 412 -20 26 -28 46 -26 65 3 25 12 31 103 65 55 20 105 37 111 37 5 1 20 -20 32 -45z m1837 13 c55 -18 106 -36 113 -40 22 -14 13 -53 -23 -100 -169 -221 -254 -600 -223 -996 6 -86 12 -181 12 -211 l1 -55 -110 1 c-60 1 -175 11 -255 24 -190 29 -326 25 -419 -13 l-63 -26 21 23 c34 36 111 74 187 92 57 13 101 15 254 10 102 -4 208 -9 235 -12 l50 -6 0 298 c1 235 4 320 18 396 28 162 84 316 162 449 l35 60 -23 8 c-13 5 -43 15 -68 22 -24 7 -45 13 -47 14 -3 3 36 95 40 95 2 0 48 -15 103 -33z m-3099 -112 c115 -56 178 -157 179 -285 0 -66 -5 -85 -33 -142 -35 -71 -72 -106 -148 -139 -66 -28 -120 -33 -190 -19 -107 22 -174 73 -215 164 -25 56 -24 79 2 36 48 -79 107 -118 194 -127 97 -10 187 36 234 119 78 135 33 295 -101 362 -56 28 -125 34 -174 16 -38 -15 -42 -5 -5 14 79 41 172 41 257 1z m4481 5 c48 -21 55 -38 9 -20 -110 41 -269 -42 -304 -159 -55 -181 83 -357 265 -338 81 8 147 52 200 133 8 11 6 1 -2 -21 -20 -50 -61 -111 -93 -136 -42 -33 -157 -62 -218 -56 -71 7 -167 52 -206 95 -73 84 -98 219 -59 323 63 166 251 249 408 179z m-4719 -129 c-5 -29 -8 -54 -6 -55 2 -2 23 -15 47 -29 l45 -26 -30 -6 c-89 -19 -87 -17 -105 -75 l-16 -55 -23 52 -22 51 -56 -5 -57 -6 40 42 40 41 -18 49 c-9 27 -17 52 -17 55 0 3 21 -4 48 -18 l47 -24 44 34 c24 19 45 33 47 32 1 -2 -2 -27 -8 -57z m4846 15 c25 14 46 24 46 22 0 -1 -9 -25 -19 -53 l-19 -50 41 -43 42 -44 -59 4 -58 3 -17 -42 c-9 -23 -19 -44 -23 -48 -3 -4 -13 18 -22 49 -15 52 -19 56 -54 62 -64 11 -67 19 -17 45 49 26 47 18 29 111 l-7 33 46 -38 45 -37 46 26z"
       id="path36"
       style="fill:#00538d;fill-opacity:1" />
    <path
       d="M3080 4619 l-34 -21 24 -14 c39 -21 57 -17 68 15 17 47 -3 53 -58 20z"
       id="path38"
       style="fill:#00538d;fill-opacity:1" />
    <path
       d="M3215 4539 c-4 -6 -5 -11 -4 -13 2 -1 23 -14 46 -30 43 -28 73 -29 73 -2 0 37 -97 75 -115 45z"
       id="path40"
       style="fill:#00538d;fill-opacity:1" />
    <path
       d="M3487 4464 c-3 -3 -36 -14 -73 -24 l-68 -17 27 -18 c48 -31 137 -1 137 47 0 18 -11 24 -23 12z"
       id="path42"
       style="fill:#00538d;fill-opacity:1" />
    <path
       d="M3387 4327 c3 -12 11 -44 19 -71 8 -27 14 -70 15 -95 0 -25 4 -55 8 -66 13 -34 22 82 12 152 -11 70 -14 79 -41 93 -15 8 -17 6 -13 -13z"
       id="path44"
       style="fill:#00538d;fill-opacity:1" />
    <path
       d="M3523 4073 c-4 -10 2 -23 16 -35 22 -17 24 -17 52 3 16 11 29 24 29 29 0 24 -88 28 -97 3z"
       id="path46"
       style="fill:#00538d;fill-opacity:1" />
    <path
       d="M3451 3936 c-18 -6 -39 -20 -47 -31 -30 -40 -6 -90 29 -62 19 16 71 107 60 106 -4 0 -23 -6 -42 -13z"
       id="path48"
       style="fill:#00538d;fill-opacity:1" />
    <path
       d="M3350 3760 c-14 -4 -46 -8 -72 -9 -26 -1 -50 -6 -53 -12 -13 -19 26 -49 64 -49 43 1 72 16 101 53 20 25 20 27 3 26 -10 -1 -29 -5 -43 -9z"
       id="path50"
       style="fill:#00538d;fill-opacity:1" />
    <path
       d="M3387 3654 c-15 -29 -15 -38 -2 -85 22 -87 69 -188 81 -176 2 2 -7 37 -21 77 -14 40 -26 92 -26 114 -1 23 -4 55 -8 71 l-7 30 -17 -31z"
       id="path52"
       style="fill:#00538d;fill-opacity:1" />
    <path
       d="M3772 3592 c-23 -100 -10 -241 34 -375 13 -39 23 -51 56 -68 22 -11 42 -18 44 -16 3 2 -4 20 -16 39 -48 82 -91 262 -102 433 l-3 40 -13 -53z"
       id="path54"
       style="fill:#00538d;fill-opacity:1" />
    <path
       d="M3794 3070 c-67 -15 -124 -81 -124 -144 0 -14 2 -26 4 -26 2 0 43 22 92 49 49 27 113 57 142 67 28 10 52 22 52 26 0 18 -119 38 -166 28z"
       id="path56"
       style="fill:#00538d;fill-opacity:1" />
    <path
       d="M4002 2960 c-27 -25 -27 -31 -2 -63 29 -37 111 -46 171 -19 l44 20 -60 26 c-33 15 -72 34 -87 42 -34 18 -40 18 -66 -6z"
       id="path58"
       style="fill:#00538d;fill-opacity:1" />
    <path
       d="M4325 2826 c-10 -34 -12 -54 -4 -67 10 -19 11 -19 40 -2 33 19 99 87 99 102 0 5 -27 11 -60 13 l-61 3 -14 -49z"
       id="path60"
       style="fill:#00538d;fill-opacity:1" />
    <path
       d="M7335 4630 c-9 -15 6 -60 20 -60 8 0 26 5 42 11 l28 11 -30 24 c-32 25 -50 30 -60 14z"
       id="path62"
       style="fill:#00538d;fill-opacity:1" />
    <path
       d="M7167 4530 c-30 -24 -35 -48 -12 -56 17 -7 106 46 101 61 -5 20 -61 16 -89 -5z"
       id="path64"
       style="fill:#00538d;fill-opacity:1" />
    <path
       d="M6950 4465 c0 -4 7 -19 15 -34 23 -45 89 -55 140 -21 l30 20 -26 0 c-14 0 -52 9 -85 20 -63 21 -74 23 -74 15z"
       id="path66"
       style="fill:#00538d;fill-opacity:1" />
    <path
       d="M7063 4337 c-12 -5 -24 -16 -28 -25 -11 -28 -16 -187 -7 -217 7 -26 11 -13 26 85 10 63 22 123 27 133 15 26 7 36 -18 24z"
       id="path68"
       style="fill:#00538d;fill-opacity:1" />
    <path
       d="M6857 4078 c-15 -12 -13 -15 16 -34 32 -21 34 -21 57 -4 32 24 21 50 -23 50 -18 0 -41 -6 -50 -12z"
       id="path70"
       style="fill:#00538d;fill-opacity:1" />
    <path
       d="M6970 3946 c0 -2 12 -24 26 -50 31 -55 56 -72 74 -51 15 18 -3 71 -29 84 -20 10 -71 23 -71 17z"
       id="path72"
       style="fill:#00538d;fill-opacity:1" />
    <path
       d="M7075 3746 c38 -58 115 -73 162 -32 l28 24 -25 6 c-14 2 -50 7 -80 10 -30 4 -66 9 -79 13 -23 6 -23 6 -6 -21z"
       id="path74"
       style="fill:#00538d;fill-opacity:1" />
    <path
       d="M7060 3650 c-1 -53 -26 -161 -54 -232 l-25 -63 24 30 c27 32 84 171 91 220 3 20 -2 38 -15 55 l-21 25 0 -35z"
       id="path76"
       style="fill:#00538d;fill-opacity:1" />
    <path
       d="M6687 3610 c-4 -14 -7 -39 -7 -57 0 -68 -41 -238 -75 -316 -20 -45 -39 -88 -42 -95 -8 -19 45 5 79 36 34 31 58 130 64 267 6 109 -6 211 -19 165z"
       id="path78"
       style="fill:#00538d;fill-opacity:1" />
    <path
       d="M6589 3069 c-43 -6 -95 -27 -87 -33 1 -2 37 -15 78 -30 41 -14 105 -44 141 -66 37 -22 70 -40 73 -40 25 0 -17 112 -53 144 -26 23 -90 34 -152 25z"
       id="path80"
       style="fill:#00538d;fill-opacity:1" />
    <path
       d="M6348 2943 c-43 -20 -78 -40 -78 -44 0 -5 17 -16 38 -25 52 -22 132 -11 163 22 22 23 23 27 8 52 -20 37 -42 36 -131 -5z"
       id="path82"
       style="fill:#00538d;fill-opacity:1" />
    <path
       d="M6060 2871 l-65 -6 42 -45 c23 -25 55 -53 71 -62 27 -16 31 -16 43 -2 10 12 9 25 -5 70 -9 29 -18 53 -19 52 -1 -1 -31 -4 -67 -7z"
       id="path84"
       style="fill:#00538d;fill-opacity:1" />
    <path
       d="M2439 7818 l-29 -33 60 -60 60 -60 25 26 c14 14 28 41 31 60 5 28 1 41 -21 67 -37 45 -85 45 -126 0z"
       id="path86"
       style="fill:#00538d;fill-opacity:1" />
    <path
       d="M8490 7163 c-19 -7 -70 -54 -70 -65 0 -4 12 -14 28 -22 23 -12 32 -12 65 1 32 13 38 20 35 41 -3 28 -35 52 -58 45z"
       id="path88"
       style="fill:#00538d;fill-opacity:1" />
    <path
       d="M8240 7113 c-31 -11 -60 -47 -60 -74 0 -30 49 -89 73 -89 9 0 20 16 27 38 7 20 23 53 36 74 l23 36 -31 11 c-33 12 -45 12 -68 4z"
       id="path90"
       style="fill:#00538d;fill-opacity:1" />
    <path
       d="M1473 4787 c-35 -17 -63 -34 -63 -37 0 -7 139 -55 143 -49 6 8 -5 119 -11 118 -4 0 -35 -14 -69 -32z"
       id="path92"
       style="fill:#00538d;fill-opacity:1" />
    <path
       d="M8716 4257 c-75 -23 -108 -112 -64 -176 29 -44 67 -66 147 -87 83 -21 144 -12 182 25 76 76 26 189 -100 224 -83 24 -121 27 -165 14z"
       id="path94"
       style="fill:#00538d;fill-opacity:1" />
    <path
       d="M1695 3932 c-122 -37 -171 -74 -181 -138 -7 -52 9 -84 59 -114 102 -63 327 32 327 138 0 101 -86 149 -205 114z"
       id="path96"
       style="fill:#00538d;fill-opacity:1" />
    <path
       d="M8352 3400 c-18 -11 -40 -37 -48 -56 -29 -70 6 -131 110 -189 119 -66 209 -55 247 29 17 40 18 49 6 78 -31 74 -164 158 -250 158 -18 0 -47 -9 -65 -20z"
       id="path98"
       style="fill:#00538d;fill-opacity:1" />
    <path
       d="M2182 2829 c-23 -39 -37 -69 -30 -67 7 3 43 11 81 18 37 8 67 18 67 24 0 6 -17 30 -38 54 l-37 43 -43 -72z"
       id="path100"
       style="fill:#00538d;fill-opacity:1" />
    <path
       d="M3801 1714 c-29 -69 -31 -78 -17 -92 23 -24 74 -19 102 9 37 37 42 89 13 121 -13 15 -33 29 -45 32 -18 6 -25 -3 -53 -70z"
       id="path102"
       style="fill:#00538d;fill-opacity:1" />
    <path
       d="M4113 1530 l-52 -65 56 -18 c31 -9 58 -15 60 -13 3 2 1 40 -4 83 l-8 78 -52 -65z"
       id="path104"
       style="fill:#00538d;fill-opacity:1" />
    <path
       d="M6097 1518 c-20 -114 -20 -128 -1 -128 24 1 94 17 100 23 4 4 -70 114 -91 135 -1 2 -5 -12 -8 -30z"
       id="path106"
       style="fill:#00538d;fill-opacity:1" />
  </g>
</svg>
